<svg xmlns="http://www.w3.org/2000/svg" viewBox="0 0 36.46 10.1"><defs><style>.cls-1{fill:none;stroke:#000;stroke-miterlimit:10;stroke-width:0.23px;}</style></defs><g id="Calque_2" data-name="Calque 2"><g id="Calque_1-2" data-name="Calque 1"><g id="Calque_2-2" data-name="Calque 2"><g id="Calque_3" data-name="Calque 3"><path class="cls-1" d="M.05,6.69s6.37-3.4,11.36.61c0,0,4.82,3.7,7-4.15h0L18,7.43l0,.21-.23,2.45"/><path d="M18.12,7.26c1.36-1.5,1.76-1.73,1.74-1.46A14.63,14.63,0,0,1,18,7.74Z"/><path class="cls-1" d="M18,7.64s.17,2.57,4.47-1.69c0,0,2.86-3.54,2.63-5.3-.06-.36-.32-.6-.59-.52-.52.15-1.36,1.14-1.51,6a3.76,3.76,0,0,0,.24,1.49c.23.54.63,1.07,1.29.65A2.41,2.41,0,0,0,25.41,6c-.07-.42-.27-1-.68-1.08,0,0-.44,0-.23.5a.8.8,0,0,0,.44.48c.52.22,1.69.63,3.6-1.16a7.23,7.23,0,0,1,7.87-.88"/></g></g></g></g></svg>