<svg xmlns="http://www.w3.org/2000/svg" viewBox="0 0 53.39 42.98"><defs><style>.cls-1,.cls-2{fill:none;stroke:#070707;stroke-miterlimit:10;}.cls-1{stroke-width:0.97px;}.cls-2{stroke-width:0.71px;}</style></defs><g id="Calque_2" data-name="Calque 2"><g id="Calque_2-2" data-name="Calque 2"><path class="cls-1" d="M52.91,4.58V28H.49V4.58A4.09,4.09,0,0,1,4.58.49H48.82A4.09,4.09,0,0,1,52.91,4.58Z"/><path class="cls-2" d="M32.83,40.78a1.33,1.33,0,0,1-1.21,1.85H21.79a1.33,1.33,0,0,1-1.23-1.83l2.39-6a1.31,1.31,0,0,1,1.22-.84h4.95a1.3,1.3,0,0,1,1.22.82Z"/><path class="cls-2" d="M52.91,28v1.74a4.09,4.09,0,0,1-4.09,4.09H4.58A4.09,4.09,0,0,1,.49,29.72V28Z"/></g></g></svg>