<svg xmlns="http://www.w3.org/2000/svg" viewBox="0 0 455.96 635.12"><defs><style>.cls-1,.cls-4{fill:#dbbca8;}.cls-1{opacity:0.28;}.cls-2{fill:#f7f5f0;opacity:0.63;}.cls-3{fill:none;stroke:#000;stroke-miterlimit:10;}</style></defs><g id="Calque_2" data-name="Calque 2"><g id="Calque_4" data-name="Calque 4"><path class="cls-1" d="M324.7,38.4c-25.45-29.27-67.15-58-117.31-20.56,0,0-46.26,39.24-37.21,98.26,4.66,30.39,23.08,56.94,49.42,72.8,30.5,18.35,84.72,57,99.65,107,0,0,19.05,115.72,97.09,98.73,0,0,59.2-24,32.88-108.52a181.5,181.5,0,0,1-7.28-67.64c2.46-32.68-3.59-82.29-51.93-118.63A426.65,426.65,0,0,1,324.7,38.4Z"/><path class="cls-2" d="M155.2,334.13c-4-26.31-20.58-91.53-85.14-77,0,0-41.82,11.45-40.9,110.53,0,2,.09,4.1.31,6.14.37,3.58-.32,16.2-19,47.84a73.6,73.6,0,0,0-8.72,53.73A69.58,69.58,0,0,0,23.09,512a60.28,60.28,0,0,0,40.1,15.28c15.65.13,40.32,4,49.77,25.88,0,0,33.06,108.14,108.14,76,0,0,54.7-12.17,32.71-95.91,0,0-9.82-27.81,2.34-49.83,8-14.44,8.23-32-.51-46-9.08-14.55-26.25-29.63-58.67-36.11,0,0-38.65-12.25-40.49-53A133.58,133.58,0,0,0,155.2,334.13Z"/><path class="cls-3" d="M322.39,388.62s17,26-10,21"/><path class="cls-3" d="M327.67,382.44s22.72,23.18,23.72,55.18"/><path class="cls-3" d="M327.67,362.52s9.21-3.09,16,0"/><path class="cls-3" d="M324.39,354.62s15-16,25-18"/><path class="cls-3" d="M358.39,301.62c-.77,0,9,12,6,34"/><path class="cls-3" d="M324.39,334.61s-6-13,5-21c0,0,23.49-11.4,14.24-20.2,0,0-12.24-15.8-5.24-19.8a42.66,42.66,0,0,1,7.4-3"/><path class="cls-3" d="M327.67,337.67s-3.28-16.13,9.22-20.59"/><path class="cls-3" d="M336.89,320.14l-11.5,22.48s-4.5,7.49,5.75,4.24h0A3.4,3.4,0,0,0,333,343.4h0a10.64,10.64,0,0,1,.63-5.93c5.06-12.17,12.49-16.54,17.81-21.85a6.22,6.22,0,0,0,.63-.73c3-4,1.2-11.09-.56-15.82a36.45,36.45,0,0,1-2-8.88,26.51,26.51,0,0,0-2.11-7.57c-2.09-5.21-2.27-8.8-2-11v-.06a2,2,0,0,1,4-.23,13.39,13.39,0,0,1,.32,2.1,24.88,24.88,0,0,0,4.08,12c4.22,6.19,7.6,15.19,7.6,15.19,4.06,9.75,20,47.9,25.84,61.85a56,56,0,0,0,4.36,8.16c8,12.71,3.36,28.81,3.36,28.81-13.44,46.82-52.56,71.18-52.56,71.18-5,10-18,14.46-18,14.46-4-1.54-22,6.54-22,6.54-15,4-43-15-43-15-29-19-31-56-31-56-9-24,3-52,3-52s-16-13-6-22c0,0,55-37,60-20l4,13s16.12-9.85,25.48,10.29a31.76,31.76,0,0,0,4.22,6.66c3.55,4.37,8.64,12.7,2.3,19.05,0,0-41,38.77-42.5,69.88"/><path class="cls-3" d="M267.39,353.62s9,32-14,83"/><path class="cls-3" d="M271,354.62s4.19,1.06,4.77,6.53"/><path class="cls-3" d="M284.39,346.62s6,3,8,6"/><path class="cls-3" d="M245.39,369.62s-4.44-6.37-.44-7.12a4.79,4.79,0,0,0,2.8-1.86,7.06,7.06,0,0,1,4-2.24,12.81,12.81,0,0,0,6.14-3.59c1.56-1.63,4.35-3.29,9.2-3.27a9.43,9.43,0,0,0,5.19-1.41c1.53-1,2.9-2.51,2.29-4.51,0,0-.22-5,7.78-3,0,0,6,1,7-3"/><path class="cls-3" d="M152.39,286.62s-24.28-9.08-31.14,30.46c0,0-18.86,45.54-19.86,46.54s-21,50-32,153"/><path class="cls-3" d="M149.39,294.62s-7-1-9,5"/><path class="cls-3" d="M122.39,339.62s-14.13,10-5.57,35.5"/><path class="cls-3" d="M161.76,317.08s-13.37,35.58-12.37,107.06"/><path class="cls-3" d="M130.78,357.88s-18.86,43.95-14,87.71c.57,5-3.43,25-8.43,27"/><path class="cls-3" d="M215.2,395.12c.19.5-24.07,35.86-53.44,60.68L116.82,496"/><path class="cls-3" d="M237.39,463.62s0,6-28,23"/><path class="cls-3" d="M293.64,230.1l-.42-6.42a203.39,203.39,0,0,0-5.25-34.8c-6.74-27.9-21.81-73.11-49.31-77.11-.83-.12-1.66-.17-2.5-.21-4.37-.2-19.67-1-34.38-2.32a51.92,51.92,0,0,0-27.59,4.9c-12.86,6.32-26.51,19.87-24.86,48.9,0,0,7.06,43.58,7.06,53.58,0,0,0,14,14.62,32.32a7.32,7.32,0,0,1,.92,1.48l0,.09a13.55,13.55,0,0,1-6.58,17.74c-4.07,2-9.93,5.85-10.74,11.92,0,.32-.32.51-.4.76-.4,1.18.25,2.25.82,3.81a25.34,25.34,0,0,1,.84,2.55c1.74,7,9.65,35.94,25,47.32a58.08,58.08,0,0,0,43.46,13.07"/><path class="cls-3" d="M258.2,196.44c.18.18-24.11-69.78-54.49-72.73q-.66-.08-1.32-.09c-31-1-41,26-43,38,0,0-3.72,14.66,4,39.41a107.7,107.7,0,0,1,4.25,19.5c1.57,13.18,10,38.57,50.52,51.35"/><path class="cls-4" d="M290.66,104.48c18.3,11.1,29.3,26.24,32.71,45,7.18,39.61-22.31,82.51-22.6,82.93l-.42-.4c.29-.42,29.62-43.09,22.49-82.41C319.47,131,308.56,116.05,290.41,105Z"/><path class="cls-4" d="M312.22,98.72l.22.26a34.56,34.56,0,0,1,7.08,17,27,27,0,0,1-.6,8.66c-.39,1.88-.6,5.43.58,11.69l-.53.13c-1.2-6.38-1-10-.57-12a26.61,26.61,0,0,0,.59-8.42,34.14,34.14,0,0,0-6.71-16.39c-7.32,11.74.42,24.53.5,24.65l-.43.37c-.09-.13-8.2-13.5-.31-25.7Z"/><path class="cls-4" d="M312,99.16l.53.08c-1.7,17.61,5.43,33.68,5.5,33.84l-.48.29C317.47,133.2,310.27,117,312,99.16Z"/><path class="cls-4" d="M289.69,111.67c1-.07,2.85,0,3.88,1.26a4,4,0,0,1,.59,3.19,51.68,51.68,0,0,1,13.46,2l-.14.61a50.54,50.54,0,0,0-13.21-2,3.25,3.25,0,0,1-.43,2.23c-.79,1.18-2.47,1.61-5,1.29a1.1,1.1,0,0,1-1-.52c-.46-.67-.44-1.88.05-3.58a5.65,5.65,0,0,1-.06-3.38,1.81,1.81,0,0,1,1.23-1.06Zm3.92,4.45a3.36,3.36,0,0,0-.43-2.76c-1.18-1.47-3.94-1-4-1a1.25,1.25,0,0,0-.86.74,5.11,5.11,0,0,0,.12,3l0,.11,0,.11c-.6,2-.37,2.8-.18,3.08a.64.64,0,0,0,.56.29c2.34.29,3.9-.07,4.56-1.05a2.73,2.73,0,0,0,.26-2.06l-.13-.42Z"/><path class="cls-4" d="M271,92.85c8.52,3.59,20.45,11.86,23.91,14.31l1.23.88-.28.54-1.23-.88c-3.44-2.44-15.34-10.69-23.8-14.26Z"/><path class="cls-4" d="M266.4,89.15c1.17-.08,2.74,1.19,4.67,3.79l.33.45-.5.07c-.16,0-3.95.53-5.32-1.19a2.49,2.49,0,0,1-.45-2.07,1.53,1.53,0,0,1,1.1-1Zm3.91,3.73c-2.24-2.89-3.45-3.16-4-3.09a1,1,0,0,0-.69.59,1.85,1.85,0,0,0,.33,1.47C266.88,93,269.25,93,270.31,92.88Z"/><path class="cls-4" d="M279.24,93a1.14,1.14,0,0,1,.53.08c1.14.44,2.07,2.47,2.78,6l.11.58-.47-.21c-.15-.07-3.64-1.68-4.19-4a2.58,2.58,0,0,1,.41-2.12A1.3,1.3,0,0,1,279.24,93Zm2.66,5.64c-.83-3.84-1.78-4.76-2.28-5a.78.78,0,0,0-.82.15,2,2,0,0,0-.29,1.53C278.88,96.89,280.94,98.16,281.9,98.66Z"/><path class="cls-4" d="M278.32,97.28c1.12-.08,2.74.65,4.82,2.2l.43.33-.47.23c-.15.08-3.72,1.83-5.44.62a2.34,2.34,0,0,1-.9-1.83,1.7,1.7,0,0,1,.82-1.34A1.73,1.73,0,0,1,278.32,97.28Zm4.07,2.4c-2.85-2-4.08-1.89-4.57-1.63a1.11,1.11,0,0,0-.53.8,1.65,1.65,0,0,0,.65,1.27C279.08,100.92,281.38,100.11,282.39,99.68Z"/><path class="cls-4" d="M273.07,92c.21,0,1.86,0,3.26,3.51l.31.79L276,96c-1.46-.83-3.88-2.35-3.75-3.32.07-.51.64-.59.83-.61Zm2.4,2.93c-1.16-2.37-2.33-2.31-2.36-2.3h0c-.31,0-.37.11-.37.11C272.77,93.08,274,94.05,275.47,95Z"/><path class="cls-4" d="M298.23,105.42a1.65,1.65,0,0,1,.83.2c1.12.56,2.91,2.52,5.06,8.7l.31.91-.7-.53c-.72-.53-7-5.26-6.77-7.9a1.54,1.54,0,0,1,1-1.32A.72.72,0,0,1,298.23,105.42Zm5,8.19c-3-8.26-5.09-7.54-5.12-7.54-.62.28-.65.67-.66.79C297.36,108.56,301.13,111.91,303.28,113.61Z"/><path class="cls-4" d="M285.08,102.46c2.06-.15,4.79,1.44,4.92,1.52l.6.34-.63.24c-3.44,1.27-5.64,1.44-6.54.51a1.48,1.48,0,0,1-.4-1.14l0-.08a2.12,2.12,0,0,1,1.19-1.21A2.86,2.86,0,0,1,285.08,102.46Zm4,1.74c-1.09-.55-3.33-1.49-4.69-1a1.53,1.53,0,0,0-.87.84.74.74,0,0,0,.24.53C284.2,105,285.43,105.47,289.12,104.2Z"/><path class="cls-4" d="M273.48,95a9.84,9.84,0,0,1,3.71,1l.85.4-.89.21c-2.17.5-3.65.48-4.3,0a.86.86,0,0,1-.31-.5.94.94,0,0,1,.26-.85A1.09,1.09,0,0,1,273.48,95Zm2.57,1.22c-1.21-.46-2.56-.81-2.92-.48a.3.3,0,0,0-.06.26h0S273.46,96.64,276.05,96.19Z"/><path class="cls-4" d="M293.17,107.29c1.16-.09,3.34,1.45,3.81,1.79l.77.56-.9,0c-2.22,0-3.64-.26-4.2-.92a.9.9,0,0,1,.14-1.35A.8.8,0,0,1,293.17,107.29Zm2.67,1.74c-1.12-.7-2.38-1.33-2.8-1.07,0,0-.09.06-.09.25h0S293.22,108.94,295.84,109Z"/><path class="cls-4" d="M288.27,99.42h.2c1,.15,1.87,2,2.74,5.51l.17.7-.55-.33c-.18-.11-4.35-2.69-3.49-5.14A1.31,1.31,0,0,1,288.27,99.42Zm2.23,5c-1-3.73-1.79-4.26-2.1-4.31s-.58.39-.58.39C287.36,101.78,289.26,103.48,290.5,104.37Z"/><path class="cls-4" d="M183.36,530.7l.35.92c2.38,6.37,3.31,10,2.69,10.61a.26.26,0,0,1-.28.06c-2.26-1-2.7-10.26-2.72-10.66ZM186.21,542c.15-.25.37-1.63-2.44-9.31.22,3.05.91,8.63,2.4,9.36A.11.11,0,0,0,186.21,542Z"/><path class="cls-4" d="M183.47,531.5l.26.15,0,.1c-.12,1.06-.83,6.39-2.67,7.09a.48.48,0,0,1-.44-.17c-.54-.68.4-3,2.8-7.06Zm-1.68,6.2a16.81,16.81,0,0,0,1.52-5.29c-2.86,4.88-2.62,5.9-2.47,6.1a.12.12,0,0,0,.08,0A2,2,0,0,0,181.79,537.7Z"/><path class="cls-4" d="M183.37,531.56l.25-.08.08.08c.89.91,5.33,5.55,4.58,7.63a.5.5,0,0,1-.53.19c-1-.22-2.52-2.88-4.33-7.69ZM188,539c.53-1.45-2.12-4.78-4.06-6.83,2.28,5.93,3.44,6.8,3.84,6.89C187.92,539.12,188,539,188,539Z"/><path class="cls-4" d="M176.67,518.11l.27-.1c0,.07,3.9,7.44,1.75,13.91l-.3-.12C180.5,525.44,176.71,518.18,176.67,518.11Z"/><path class="cls-4" d="M177.42,532a.7.7,0,0,1,.48-.33,1,1,0,0,1,1.18,1.34.57.57,0,0,1-.11.16.88.88,0,0,1-1.1.1,1,1,0,0,1-.48-1.21Zm1.35.89,0,0a.67.67,0,0,0-.33-.82.69.69,0,0,0-.46-.08.49.49,0,0,0-.33.26.65.65,0,0,0,.32.82.56.56,0,0,0,.72-.07h0Z"/><path class="cls-4" d="M174.57,529.55a.72.72,0,0,1,.48-.33,1,1,0,0,1,1.18,1.33.44.44,0,0,1-.1.16.89.89,0,0,1-1.11.11,1,1,0,0,1-.48-1.22Zm1.36.89,0,0a.66.66,0,0,0-.33-.82.69.69,0,0,0-.46-.08.46.46,0,0,0-.33.26.66.66,0,0,0,.32.82.61.61,0,0,0,.73-.07h0A.18.18,0,0,1,175.93,530.44Z"/><path class="cls-4" d="M180,529.51a.74.74,0,0,1,.48-.34,1,1,0,0,1,.7.12,1,1,0,0,1,.48,1.22.57.57,0,0,1-.11.16.88.88,0,0,1-1.1.11,1,1,0,0,1-.48-1.22Zm1.35.89,0,0a.67.67,0,0,0-.33-.82.64.64,0,0,0-.46-.08.46.46,0,0,0-.33.26.65.65,0,0,0,.32.81.56.56,0,0,0,.72-.07h0Z"/><path class="cls-4" d="M178.86,525.19l.31,0c.83,3.58,1.54,4,1.55,4l-.1.26C180.48,529.4,179.73,528.93,178.86,525.19Z"/><path class="cls-4" d="M178.69,524.12H179c.75,4.65-2.7,6-2.74,6l-.15-.27C176.25,529.77,179.41,528.56,178.69,524.12Z"/><path class="cls-4" d="M168.51,501l.3,0c.07.25,7.48,25.58,25.63,35.41,8.57,4.64,18.21,5.15,28.65,1.52l.15.28c-10.53,3.66-20.26,3.14-28.92-1.55C176,526.76,168.58,501.3,168.51,501Z"/><path class="cls-4" d="M201,539.11a16.64,16.64,0,0,1,5,3.63,13.62,13.62,0,0,0,3.19,3,17.93,17.93,0,0,0,8.81,2.62c-2.29-6.68-10-7.73-10.07-7.74v-.29c.09,0,8.15,1.11,10.43,8.15l0,.17h-.17a18.2,18.2,0,0,1-9.19-2.68,14.09,14.09,0,0,1-3.28-3,15.91,15.91,0,0,0-4.88-3.54Z"/><path class="cls-4" d="M202.71,539.55a39.78,39.78,0,0,1,15.59,8.81l-.21.19a39.34,39.34,0,0,0-15.42-8.72Z"/><path class="cls-4" d="M211.93,540.29a26.78,26.78,0,0,0,5.18-4.6,1.64,1.64,0,0,1-.76-.89c-.21-.68.17-1.49,1.14-2.38a.58.58,0,0,1,.53-.22c.42,0,.9.43,1.42,1.18a2.79,2.79,0,0,1,1.38,1.06.88.88,0,0,1,0,.82c0,.06-.81,1.4-2,1.39a2,2,0,0,1-1.47-.79,26.88,26.88,0,0,1-5.27,4.67Zm8.61-5.17h0a.63.63,0,0,0,0-.58,2.71,2.71,0,0,0-1.23-.91l-.06,0,0-.05c-.61-.89-1-1-1.18-1.06a.31.31,0,0,0-.3.13c-.89.83-1.26,1.56-1.09,2.14a1.47,1.47,0,0,0,.74.77l.21.08,0,0a1.72,1.72,0,0,0,1.25.71C219.77,536.36,220.47,535.23,220.54,535.12Z"/><path class="cls-4" d="M219.88,538.93l.76-.2c2.12-.57,9.38-2.62,13.62-4.82l.18.26c-4.27,2.21-11.54,4.27-13.67,4.84l-.77.21Z"/><path class="cls-4" d="M227.8,536.59l.25-.12c.07,0,1.88-.9,3-.38a1.29,1.29,0,0,1,.72.84.62.62,0,0,1-.32.64c-.56.31-1.68,0-3.35-.84Zm3.58.58a.38.38,0,0,0,.06-.22,1,1,0,0,0-.52-.61,3.63,3.63,0,0,0-2.44.28c1.82.91,2.5.83,2.75.7A.36.36,0,0,0,231.38,537.17Z"/><path class="cls-4" d="M228.12,535.17a1.77,1.77,0,0,1,1-.86,1.22,1.22,0,0,1,1,.23.84.84,0,0,1,.27.75c-.12.63-1,1.16-2.64,1.56l-.28.07.07-.26A5.81,5.81,0,0,1,228.12,535.17Zm1.87.24a.52.52,0,0,0,.08-.2.53.53,0,0,0-.14-.47.88.88,0,0,0-.72-.15c-.71.19-1.14,1.36-1.31,1.9C229.31,536.11,229.82,535.7,230,535.41Z"/><path class="cls-4" d="M214.35,540.21l.44-.12c.46-.11,4.43-1.06,5.42-.13a.77.77,0,0,1,.2.83.68.68,0,0,1-.42.38c-.59.27-2,.34-5.17-.8Zm5.74.49,0,0a.48.48,0,0,0-.1-.52c-.64-.59-3.23-.18-4.63.12C219.33,541.6,220,540.84,220.09,540.7Z"/><path class="cls-4" d="M224.21,536.19c.39-.64.78-1,1.19-1a.71.71,0,0,1,.58.21l0,0a1.11,1.11,0,0,1,.09.87c-.36,1.06-2.36,1.81-2.45,1.84l-.33.12.11-.32A10.35,10.35,0,0,1,224.21,536.19Zm1.54-.65a.41.41,0,0,0-.29-.08c-.3,0-.89.37-1.6,2.24.58-.26,1.7-.84,1.94-1.55A.77.77,0,0,0,225.75,535.54Z"/><path class="cls-4" d="M218.81,539.36l.29-.36c.71-.9,1.31-1.36,1.76-1.37a.52.52,0,0,1,.31.09.45.45,0,0,1,.19.4c-.08.58-1.74,1-2.07,1.12Zm2.17-1.44s-.38-.13-1.29.88c.65-.21,1.32-.52,1.36-.76,0,0,0,0-.07-.12Z"/><path class="cls-4" d="M222.53,538.13l.32-.11c.1,0,2.52-.86,3.22.27a.61.61,0,0,1-.08.69c-.39.33-1.41.1-3.12-.7Zm3.27.57a.42.42,0,0,0,0-.31c-.38-.61-1.69-.41-2.46-.2,1.83.81,2.31.67,2.43.56A.1.1,0,0,0,225.8,538.7Z"/><path class="cls-4" d="M166.5,490.51a.36.36,0,0,1,.1-.11.31.31,0,0,1,.3,0c2.19,1.12,1.93,10.31,1.92,10.7l0,.93-.28-.94C166.7,495,166,491.33,166.5,490.51Zm.32.12c-.1.05-.8.73,1.7,9.4C168.54,497,168.26,491.45,166.82,490.63Z"/><path class="cls-4" d="M170.37,495.42a2.72,2.72,0,0,1,1.38-1.31.44.44,0,0,1,.43.2c.49.7-.64,3-3.36,6.77l-.08.11-.23-.16v-.1A19.79,19.79,0,0,1,170.37,495.42Zm.3,2.31c1.49-2.47,1.37-3.13,1.26-3.29a.12.12,0,0,0-.08-.05c-1.29.39-2.35,3.62-2.87,5.91C169.7,499.27,170.25,498.43,170.67,497.73Z"/><path class="cls-4" d="M164.48,493.27a.49.49,0,0,1,.55-.15c1,.29,2.32,3,3.78,7.88l0,.13-.26.07-.07-.09C167.68,500.16,163.56,495.28,164.48,493.27Zm3.85,7.19c-1.86-6-3-6.95-3.35-7.06a.21.21,0,0,0-.22,0C164.12,494.84,166.53,498.31,168.33,500.46Z"/><path class="cls-4" d="M173.6,501.09l.29.14c-2.62,6.14.66,13.56.69,13.63l-.28.08C174.26,514.87,170.94,507.33,173.6,501.09Z"/><path class="cls-4" d="M173.28,500a.44.44,0,0,1,.12-.15h0a.91.91,0,0,1,1.12,0,1,1,0,0,1,.39,1.23h0a.74.74,0,0,1-.54.34,1,1,0,0,1-.7-.16,1,1,0,0,1-.39-1.24Zm1.35.89h0a.64.64,0,0,0-.26-.83.61.61,0,0,0-.74,0h0s0,.08-.08.1a.64.64,0,0,0,.27.83.6.6,0,0,0,.46.11A.47.47,0,0,0,174.63,500.93Z"/><path class="cls-4" d="M176,502.6a.53.53,0,0,1,.12-.14h0a.91.91,0,0,1,1.12,0,1,1,0,0,1,.39,1.24h0a.74.74,0,0,1-.53.35,1,1,0,0,1-.7-.17,1,1,0,0,1-.4-1.23Zm1.35.89h0a.64.64,0,0,0-.27-.83.58.58,0,0,0-.73,0h0l-.08.1a.64.64,0,0,0,.27.83.69.69,0,0,0,.46.11A.54.54,0,0,0,177.32,503.49Z"/><path class="cls-4" d="M170.45,502.27a.81.81,0,0,1,.12-.14h0a.9.9,0,0,1,1.12,0,.94.94,0,0,1,.39,1.23h0a.74.74,0,0,1-.54.35,1,1,0,0,1-.7-.17.94.94,0,0,1-.39-1.23Zm.36.08-.08.1a.63.63,0,0,0,.26.83.7.7,0,0,0,.46.11.46.46,0,0,0,.35-.23h0a.63.63,0,0,0-.26-.83.6.6,0,0,0-.73,0Z"/><path class="cls-4" d="M171.46,503.39c.14.07.86.59,1.44,4.34h-.3c-.56-3.6-1.25-4.08-1.26-4.09Z"/><path class="cls-4" d="M173.41,505.09a4.76,4.76,0,0,1,2.49-2l.13.28c-.14,0-3.42,1-3,5.45l-.31,0A6,6,0,0,1,173.41,505.09Z"/></g><g id="Calque_5" data-name="Calque 5"><path class="cls-3" d="M185.33,270.61s10.7,17.8,29.88,19.4"/><path class="cls-3" d="M180.89,293.33s18.5,19.29,36.5,19.29"/><path class="cls-3" d="M174.39,291.62s3.66,14,17.33,18"/><path class="cls-3" d="M174.39,312.62s24,19,52,16"/><path class="cls-3" d="M312.39,270.61s-24.11,20.44-46.06,22.72"/><path class="cls-3" d="M317.59,297.09s-26.2,21.53-45.2,13.53"/><path class="cls-3" d="M266.39,230.62v-29s1.73-17.41-5.14-11.23c-3.82,3.44-5.17,16.24-5.63,23.35a46.53,46.53,0,0,1-4.48,17.3c-4.1,8.43-8.75,11.53-8.75,11.53-18,14-22,21-22,21-2.8,3.55-2.4,9.9-1.7,14.25a69.75,69.75,0,0,1,.83,15V293a14.49,14.49,0,0,0,1.91,8.23c6.1,10.33,11.1,40.36,12.35,40"/><path class="cls-3" d="M264.61,189.33s2.91-7.12,6.31-2.67a7.18,7.18,0,0,1,1.4,4.51,75.74,75.74,0,0,0,4.07,24.45s2,6.74,0,17.37"/><path class="cls-3" d="M285.39,236.62c0-.05-.36-23.45-6-34a9,9,0,0,1-1-5,23.09,23.09,0,0,0-.5-4.83c-.68-3.33-2.25-7.13-5.81-3.68"/><path class="cls-3" d="M267.39,322.62s-20.11-29.3-6.06-40.65c0,0,14-12.05,28-19.7,0,0,4.84-2.31,3.69-15.65a44.79,44.79,0,0,1,.3-9.82c.67-5.17.61-13.53-5.17-19.41-.53-.55-1.07-1.1-1.56-1.69-2.24-2.7-5.23-8.08-4.23-6.08"/><path class="cls-3" d="M293.39,251.62s9.25-1.44,16.62,10.78c0,0,5.38,7.22,16.38,4.22,0,0,11.87-3.14,9.86,18.08a22.9,22.9,0,0,1-2.69,8.83c-3.12,5.71-9.59,15.61-18.44,19.09,0,0-17.23,5-21.48,23"/></g></g></svg>