<svg xmlns="http://www.w3.org/2000/svg" viewBox="0 0 439.09 495.14"><defs><style>.cls-1{fill:#dbbca8;opacity:0.61;}.cls-2,.cls-3{fill:none;stroke-miterlimit:10;}.cls-2{stroke:#000;stroke-width:0.64px;}.cls-3{stroke:#fff;stroke-width:24.62px;opacity:0.48;}</style></defs><g id="Calque_2" data-name="Calque 2"><g id="Calque_1-2" data-name="Calque 1"><path class="cls-1" d="M9.69,307.45C-5.49,340-7.66,389.65,39.26,471.2c8.82,15.32,37.54,27.26,52.16,23.1,38.52-11,95.83-38.08,127.69-92.8,19.54-33.57,1.08-82.11-34.17-91.49-30.5-8.12-71.71-19.67-110.9-32.52C48.43,269.09,21.92,281.21,9.69,307.45Z"/><path class="cls-2" d="M64.9,320.84c-7.85,11.61-20.49,27.9-19.72,42.72.63,12.32,12.69,24.12,23.67,28.26"/><path class="cls-2" d="M79.21,359.8s-19.89,23.64-4.88,42.63a11,11,0,0,0,3.89,3.1,40.31,40.31,0,0,1,15.71,13.86A10.48,10.48,0,0,0,95.26,421c2.71,2.62,12,10.3,27.75,9.83a10.94,10.94,0,0,1,7.49,2.66c4.53,3.91,13.41,10.41,23.39,11.52a14.79,14.79,0,0,0,2.9,0c8.75-.77,48.43-6.79,25.81-51.88"/><path class="cls-2" d="M231.49,331.65s18.56,18.51,5.33,30.33a18.1,18.1,0,0,0-4,5c-3.67,6.94-11.27,23.25-10.12,37.27a6.55,6.55,0,0,1-1.9,5.07c-6.81,7-27.33,26.86-34.4,20.34"/><path class="cls-2" d="M227.43,338.31a13.41,13.41,0,0,0,3.78-8.8,14.62,14.62,0,0,0-7.15-13.35c-4.77-2.88-13.6-11.43-26.88-36.48a28,28,0,0,0-6-7.76c-7.32-6.62-23.44-16.28-44.07.66"/><path class="cls-2" d="M192.24,376.75c8.13,1,20.9,9.51,28.82,6.94,7.26-2.36,4.18-11.89,1-16.53"/><path class="cls-2" d="M94.84,298C83,295.75,72.13,306.63,70,317.52c-2.77,13.85,5.7,25.29,14.05,35.36-2.08-2.27-4.1-4.57-6.13-6.88.52,18.53,6,35.59,23.14,44.68,6,3.19,27.55,13.55,27-1.05,9.71,18.63,34.22,16.65,49.76,6.85a34.08,34.08,0,0,0,9.51-8.71c1.59-2.19,4.43-10.73,6-10.84"/><path class="cls-2" d="M138.1,278.42s-4.73-18.44-17.31-5c0,0-20.45,5.38-7.55,35.2,0,0-14.48,49.75,7.66,70.19,0,0,14.09,21.69,53,1.61,0,0,5.26-3.48,4.25-9.81"/><path class="cls-2" d="M124.52,270.19c-6.75-13.4-18-13.31-28.36-3.67-8.88,8.29-23.79,22-17.06,35.57"/><path class="cls-2" d="M109.23,287.58S91.67,296.8,86.66,312.5C85.55,316,97.31,326,99.29,350.23c0,0,2.81,14.19,12.1,12.76"/><path class="cls-2" d="M77.58,290.83c-10-6.05-18.82-4.38-21.61,7.7-1.11,4.8-10.66,35.5,2.94,31.74"/><path class="cls-2" d="M189.49,293.83s11.82-17.34-10.1-20.51c0,0-28.84-5.38-39.1,2.81,0,0-33,31.5-19,41.68.67.49,11.61,14,16.93,20.52a9.28,9.28,0,0,0,7.41,3.44l14-.28c-3.85-2.81-6.44-10.9-7.22-13.58a10.6,10.6,0,0,0-.72-1.82c-7-14-5.68-21.1-4.67-23.62a11,11,0,0,0,.79-3.38c1-14.44-8.25,3.52-8.25,3.52s-9.12,21.6,4.92,32a27.69,27.69,0,0,0,15.15,6.91"/><path class="cls-2" d="M191.57,325s5.79-19.17,9.78-3.12a3.36,3.36,0,0,1-.11,2,28.71,28.71,0,0,0-1.46,10s1.13,6.61-10.92,7c-10.71.38-12.89-5.94-20.56-9.68a10.5,10.5,0,0,1-4.46-3.88c-2-3.26-6.63-8.59-16.05-10.41"/><path class="cls-2" d="M179.84,307.85s1.5-18.71-14.85-14.34c0,0-16.07-3.29-17.47,7.85"/><path class="cls-2" d="M191.48,358.22s11.09,16.1-10.82,12.93c0,0-41.54-7.52-32.54-23.76"/><path class="cls-2" d="M199.88,330.7s12.62-5.79,7,9.14-7.36,18.07-6.44,22.25c0,0-3.65,6.55-14.27-14"/><path class="cls-2" d="M150.41,346.21s6.78-9.29,27.59-2.66c0,0,5.72,2.84,10.86-2.71"/><path class="cls-2" d="M176.85,324.73c7.26,8.7,6.41,1.16,6.41,1.16a11.09,11.09,0,0,1-1-7.72c-.08-5.75-6.06,1-6.06,1,.44.18,6.72-37.29,27.55-19.67a6.92,6.92,0,0,1,1.9,2.69c1.89,4.68,8.14,19,17.35,28.43a4.53,4.53,0,0,1,1.18,2.14c1.52,6.37,7.28,34.71-9,38,0,0-15-1-22.95,6.05"/><path class="cls-2" d="M175.84,314.53s-1-6.7-3.63-2.6c0,0-7.93,2.31-5.83,4.94a17.22,17.22,0,0,0,5.49,4.19"/><path class="cls-2" d="M168.48,319.5s-5.3,2.74-.21,7.63a2.33,2.33,0,0,0,1.86.6c1.78-.2,5.33-.31,6.35,1.66,0,0,5,2.49,4.29-.9"/><path class="cls-2" d="M168.91,313s-5.73-6.62-7.14-2.32c0,0,.55,5.14-.19,8.12a5.69,5.69,0,0,0,2,6.19c.92.61,1.4,1.87,2.64,1.43,0,0-2.39,2.65,11,8.07,0,0,7.53,8.33,8.64.57"/><path class="cls-2" d="M164.85,309.65s-2.92-4.43,4.89-2.53c0,0,9.36-3.91,9.21,3"/><path class="cls-2" d="M177.94,313.14s7.23-3.3,7.56,4.3c0,0,6.12,17.23-4.27,11.93"/><path class="cls-2" d="M173.49,306.12s-.53-16.2-12-6.3a9.47,9.47,0,0,1-2.3,1.52c-3.87,1.77-15.24,8.27,2.43,17.48"/><path class="cls-2" d="M181.93,303.48s13.58-5.81,11,6.69c0,0-4,11.69.33,19.65,1.9,3.53-1.6,7.6-5.27,6a47.72,47.72,0,0,1-9.11-5.6"/><path class="cls-2" d="M130.53,328.83s-23.15-1-12.48,15.23c0,0,15.49,16,20.34,28.66a11.17,11.17,0,0,0,3,4.3c5.66,5,19.93,15,21.15-11"/><path class="cls-1" d="M299.55,270.8c32.77-14.79,66.79-51,84.45-143.37,3.32-17.37-10.65-45.16-24.44-51.54-36.36-16.83-97.47-33.69-157.32-13-36.71,12.68-54.4,61.51-33.81,91.62,17.81,26.06,41.5,61.7,62.8,97C245.16,274.58,273.16,282.7,299.55,270.8Z"/><path class="cls-2" d="M266.46,224.62c13.52-3.67,33.72-7.76,42.82-19.49,7.55-9.76,6.12-26.56.5-36.86"/><path class="cls-2" d="M281,185.77s30.5-4.94,31.52-29.13a11.08,11.08,0,0,0-.92-4.88A40.24,40.24,0,0,1,308.77,131a9.93,9.93,0,0,0,.06-2.11c-.34-3.75-2.37-15.63-14.61-25.56a11,11,0,0,1-3.94-6.9c-.88-5.92-3.37-16.65-10.2-24a15.24,15.24,0,0,0-2.2-1.89c-7.13-5.13-41.12-26.46-53.41,22.47"/><path class="cls-2" d="M147.28,107.71s-2-26.13,15.76-26.45a18.29,18.29,0,0,0,6.33-1.21c7.3-2.86,23.71-10.26,32-21.62a6.53,6.53,0,0,1,4.75-2.61c9.73-.86,38.24-2.52,39.34,7"/><path class="cls-2" d="M154.7,105.32a13.42,13.42,0,0,0-8.6,4.21,14.6,14.6,0,0,0-3.3,14.78c1.73,5.29,2.85,17.53-3.44,45.17a28.19,28.19,0,0,0-.55,9.77c1.23,9.8,7.14,27.64,33.83,28.26"/><path class="cls-2" d="M206.45,99.16c-5.49-6.08-9.63-20.84-17.31-24.06-7-2.95-10.92,6.28-11.53,11.87"/><path class="cls-2" d="M228.85,222.41c7.54,9.43,22.85,8.26,31.61,1.43,11.13-8.69,12.18-22.89,12.43-36,.09,3.07.12,6.14.14,9.21,11.7-14.38,18.67-30.9,11.63-49-2.47-6.34-12-28.24-21.14-16.82,4.8-20.45-15.06-34.95-33.24-37.66a34.09,34.09,0,0,0-12.89.39c-2.63.63-10.36,5.24-11.6,4.32"/><path class="cls-2" d="M183.3,209s-8.45,17.06,9.87,15.07c0,0,19,9.27,28.7-21.75,0,0,43.43-28.25,40-58.18,0,0,3.48-25.63-39.08-35.79,0,0-6.25-.8-9.63,4.66"/><path class="cls-2" d="M188.22,224.09c-3.63,14.56,5,21.86,19.1,21.29,12.13-.49,32.4-1.17,36.14-15.82"/><path class="cls-2" d="M211.15,220.9s19.33,4.47,33.37-4.16c3.11-1.91.72-17.16,15-36.83,0,0,7.14-12.58-.83-17.56"/><path class="cls-2" d="M237.26,239.09c3.59,11.08,11.4,15.6,21.4,8.27,4-2.92,31.24-20,18.49-26"/><path class="cls-2" d="M154.42,163.78s-20.27,5.43-5.73,22.13c0,0,18.34,22.91,31.46,23.39,0,0,45.54-2.35,41.62-19.16-.19-.81.31-18.15.57-26.6A9.31,9.31,0,0,0,219,156.1l-10.76-8.89c1.08,4.64-2.23,12.46-3.39,15a10.12,10.12,0,0,0-.64,1.85c-3.84,15.24-9.47,19.69-11.88,20.94a11.15,11.15,0,0,0-2.81,2.05c-10.15,10.31,8.55,2.71,8.55,2.71s21-10.41,17.14-27.43a27.73,27.73,0,0,0-7-15.12"/><path class="cls-2" d="M173.16,138.84s-16.9,10.74-9.44-4a3.28,3.28,0,0,1,1.35-1.41,28.87,28.87,0,0,0,7.65-6.63s3.45-5.75,12.86,1.79c8.36,6.71,5.89,12.92,9.26,20.76a10.52,10.52,0,0,1,.84,5.85c-.6,3.77-.58,10.83,5.38,18.35"/><path class="cls-2" d="M170.88,159.46s-13.35,13.2,1.9,20.55c0,0,10,13,18.35,5.46"/><path class="cls-2" d="M194.94,113.69S197,94.26,211.57,111c0,0,26.57,32.81,9.15,39.23"/><path class="cls-2" d="M170.61,129.06s-13.34-3.85.7-11.46,17.37-8.88,19.4-12.65c0,0,7-2.58,1.66,20"/><path class="cls-2" d="M218.22,149.6s-11.21,2.61-22.64-16c0,0-2.48-5.89-10-5"/><path class="cls-2" d="M184.17,148.62c.17-11.33-4.11-5.06-4.11-5.06a11,11,0,0,1-4.28,6.48c-3.7,4.41,5.21,3.23,5.21,3.23-.22-.42-29.43,23.87-33.72-3.07a6.94,6.94,0,0,1,.32-3.29c1.62-4.77,6.21-19.67,5.41-32.85a4.56,4.56,0,0,1,.5-2.4c3-5.81,17.14-31,31.62-22.89,0,0,10.72,10.5,21.33,10.39"/><path class="cls-2" d="M178.28,157s-3.62,5.73,1.05,4.34c0,0,7.51,3.43,7.64.07a17.07,17.07,0,0,0-1.43-6.76"/><path class="cls-2" d="M187.1,158s5.8,1.39,5.13-5.64a2.29,2.29,0,0,0-1-1.67c-1.47-1-4.24-3.24-3.72-5.4,0,0-2.17-5.15-3.84-2.13"/><path class="cls-2" d="M182.53,162.67s0,8.76,3.91,6.42c0,0,2.93-4.26,5.44-6a5.67,5.67,0,0,0,2.48-6c-.29-1.06.16-2.33-1.06-2.8,0,0,3.54-.45-3.05-13.28,0,0-.28-11.22-6.18-6.07"/><path class="cls-2" d="M183.41,167.88s-.67,5.26-5.35-1.28c0,0-9.64-3.15-5-8.3"/><path class="cls-2" d="M175.77,156.69s-7.63-2.22-2.92-8.19c0,0,6.61-17.05,11-6.26"/><path class="cls-2" d="M174.56,164.91s-10.17,12.62,5,12.63a9.77,9.77,0,0,1,2.74.35c4.08,1.19,16.94,3.68,9.56-14.83"/><path class="cls-2" d="M166.45,161.4s-14.09-4.46-4-12.26c0,0,10.64-6.27,12.58-15.1.86-3.92,6.17-4.71,7.9-1.1a47.82,47.82,0,0,1,3.25,10.19"/><path class="cls-2" d="M221.94,175.74s16.87,15.88,19.39-3.39c0,0-1.31-22.22,3.29-35a10.86,10.86,0,0,0,.53-5.21c-1-7.51-5.29-24.4-23.23-5.43"/><path class="cls-3" d="M259.9,27.45C244.4,42.31,225.3,70,218.34,119.34A60.19,60.19,0,0,0,219.7,143c8.56,32.67,40.94,114.75,143.4,65a50.37,50.37,0,0,0,4.76-2.64c16.72-10.45,103.79-70.08,29.07-136.09a53.58,53.58,0,0,1-4.75-4.78C383.57,54.73,350.24,20,305.44,13A53.49,53.49,0,0,0,259.9,27.45Z"/></g></g></svg>