<svg xmlns="http://www.w3.org/2000/svg" viewBox="0 0 325.87 387.73"><defs><style>.cls-1{fill:#f7f5f0;}.cls-2,.cls-3{fill:#dbbca8;}.cls-2{opacity:0.71;}.cls-3{opacity:0.64;}.cls-4{fill:none;stroke:#f6e7db;stroke-miterlimit:10;stroke-width:1.22px;}</style></defs><g id="Calque_2" data-name="Calque 2"><g id="Calque_7" data-name="Calque 7"><rect class="cls-1" x="60.92" y="43.91" width="232.23" height="285.37"/><path class="cls-2" d="M162.14,46.74s-18.9-74.17-96.95-4.66c0,0,58.53-18.29,53.66,8.54,0,0-57.32-6.1-69.52,8.54,0,0-29.27,30.48-9.75,30.48,0,0,53.66-28,65.85-13.41,0,0-63,11.3-71.87,33.7-.59,1.47-1.13,2.95-1.81,4.38-2.81,6-9.26,23.38,1.12,39.54,0,0,87.2-88.6,50.61-36.16,0,0-18.29,25.61-31.71,32.93,0,0-23.17,14.64-2.44,53.66,0,0,3.66,11,8.54,14.64,0,0,19.51-67.08,42.68-61,0,0,9.76,0-18.29,32.93,0,0-30.49,26.83-15.85,40.24,0,0,22.35,11.89,28.25,23.63,0,0,1,8.08,12-7.77,0,0,18.29-20.74,42.68-28.05,0,0,25.61-9.76-1.22-42.69,0,0-35.36-46.34-17.07-59.76,0,0,11-11,23.17,47.57,0,0,4.88,30.48,15.86,42.68,0,0-1.22-25.61,17.07-42.68,0,0-43.9-53.66-30.49-70.74,0,0,8.53-11.83,26.57,37.49a117.74,117.74,0,0,1,4.53,16.29,23.09,23.09,0,0,0,4.27,9.64c4.88,6.1,4.88-30.49,21.95-36.59,0,0-42.68-37.8-32.93-45.12,0,0,10.55-10.54,30.48,22.33a20.59,20.59,0,0,0,5.08,5.72c3.89,3,9.5,5,10.93-6.29a35.62,35.62,0,0,0-12.11-31.21C206.75,58,192.9,51.36,172.31,55.3a3.18,3.18,0,0,1-2.83-.77c-2.23-2.23-1.55-9.09,39.61-28.3C209.09,26.23,184.7,3.84,162.14,46.74Z"/><path class="cls-3" d="M198.06,303.91s-35,35.34-11.43,60a35.65,35.65,0,0,0,25.65,10.72c4.74,0,10.85.23,17.28.91a6.46,6.46,0,0,0,5.33-10.92c-11.13-11.46-22.36-26.92-18.43-39.88,0,0,41.07,53.2,66.87,31l26.9-25.44s-60.57,3.93-88.68-31.18c0,0,72.93,24,93.58,6.27a6.38,6.38,0,0,0,1.81-2.62c2.7-7.23,14.51-40,5.74-35.65,0,0-53.12,30.16-85.13,6.48,0,0-11.26-9.24,44.33-10,.76,0,1.51-.06,2.26-.13C288.87,263,306,261,317.81,255a8.86,8.86,0,0,0,4.89-7.12c1-10.65,2.38-36-6.76-30.43,0,0-35.11,28.11-48.74,28,0,0-11.51.71-8.42-6.47a9.53,9.53,0,0,1,6.34-5.31c8.13-2.21,24.59-8.79,35.57-19.61,0,0,14.64-14.11.38-37.06a19.51,19.51,0,0,1-2.84-7.76,14.39,14.39,0,0,1-.13-2.55,3.06,3.06,0,0,0-4.1-2.91c-9.5,3.32-27.42,7.59-40.39-1.33,0,0-12-10.1-22.09,15.13a78.79,78.79,0,0,0-5.34,23.85c-1.15,16.41-4.62,51.72-13,47.46,0,0-9.57-2.47-2.53-24.72a110.76,110.76,0,0,0,2.8-10.89c1.73-8.42,5.49-24,11.85-37.51a6.22,6.22,0,0,0-5.75-8.89c-6,.16-13.8,2.52-20.67,11.55a39.52,39.52,0,0,0-7.84,22.8,116.18,116.18,0,0,0,3.83,34A31,31,0,0,1,196,243c.12,7.94-.54,22.65-7.89,14a19.22,19.22,0,0,1-3.81-7.47c-2.21-8.3-6.53-29.7.88-49.33,9.45-25-7-8.78-7-8.78s-9.31,5.94-5.18,39.24c0,0,5.22,32.76-2.42,33.79,0,0-9.87,7.57-5.63-52.94,0,0,.14-19.09-14.29,15.17,0,0-11.06,21.74,4.55,50.75,0,0-9.17-13.15-25.57-7.81,0,0-1,1.35,2.54,1.94a19,19,0,0,1,15.81,15.73l.06.46S147.73,325.91,198.06,303.91Z"/><path class="cls-4" d="M156.28,315.42s-35,35.34-11.44,60a35.69,35.69,0,0,0,25.66,10.72,171.44,171.44,0,0,1,17.27.92,6.47,6.47,0,0,0,5.33-10.93c-11.13-11.46-22.36-26.92-18.43-39.87,0,0,41.08,53.19,66.87,31l26.9-25.44s-60.56,3.93-88.68-31.17c0,0,72.93,24,93.58,6.27a6.38,6.38,0,0,0,1.81-2.63c2.7-7.23,14.51-40,5.74-35.65,0,0-53.12,30.17-85.13,6.49,0,0-11.25-9.25,44.34-10,.75,0,1.5-.05,2.25-.13,4.74-.47,21.85-2.51,33.68-8.45a8.92,8.92,0,0,0,4.89-7.13c1-10.65,2.37-36-6.77-30.43,0,0-35.1,28.11-48.74,28,0,0-11.5.71-8.42-6.48a9.58,9.58,0,0,1,6.34-5.31c8.13-2.21,24.59-8.78,35.57-19.61,0,0,14.64-14.1.39-37.06a19.38,19.38,0,0,1-2.85-7.76,15.34,15.34,0,0,1-.13-2.54,3.06,3.06,0,0,0-4.1-2.91c-9.5,3.31-27.42,7.58-40.39-1.33,0,0-11.95-10.1-22.09,15.13A78.35,78.35,0,0,0,184.4,213c-1.16,16.4-4.63,51.71-13,47.45,0,0-9.56-2.46-2.52-24.72a110.71,110.71,0,0,0,2.79-10.89c1.73-8.42,5.49-24,11.85-37.51a6.22,6.22,0,0,0-5.75-8.89c-6,.17-13.8,2.52-20.67,11.55a39.57,39.57,0,0,0-7.84,22.8,116.62,116.62,0,0,0,3.83,34,30.42,30.42,0,0,1,1.11,7.71c.13,8-.54,22.65-7.88,14A19,19,0,0,1,142.5,261c-2.21-8.31-6.54-29.7.88-49.34,9.44-25-7-8.77-7-8.77s-9.32,5.93-5.19,39.23c0,0,5.22,32.76-2.42,33.8,0,0-9.87,7.56-5.62-52.95,0,0,.13-19.09-14.29,15.17,0,0-11.06,21.74,4.55,50.76,0,0-9.18-13.16-25.58-7.82,0,0-1,1.35,2.54,1.95a18.93,18.93,0,0,1,15.81,15.72l.06.46S105.94,337.43,156.28,315.42Z"/><path class="cls-4" d="M135.57,35s-18.9-74.17-96.95-4.66c0,0,58.54-18.29,53.66,8.54,0,0-57.32-6.1-69.52,8.54,0,0-29.26,30.48-9.75,30.48,0,0,53.66-28.05,65.85-13.41,0,0-62.94,11.3-71.87,33.7-.58,1.47-1.13,2.94-1.8,4.38-2.82,6-9.27,23.37,1.11,39.54,0,0,87.2-88.6,50.61-36.16,0,0-18.29,25.61-31.71,32.93,0,0-23.17,14.63-2.44,53.66,0,0,3.66,11,8.54,14.63,0,0,19.51-67.07,42.69-61,0,0,9.75,0-18.3,32.93,0,0-30.49,26.82-15.85,40.24,0,0,22.36,11.88,28.25,23.63,0,0,1,8.08,12-7.78,0,0,18.3-20.73,42.69-28.05,0,0,25.61-9.75-1.22-42.68,0,0-35.37-46.34-17.08-59.76,0,0,11-11,23.17,47.57,0,0,4.88,30.48,15.86,42.68,0,0-1.22-25.61,17.07-42.68,0,0-43.9-53.66-30.49-70.74,0,0,8.53-11.83,26.58,37.48a116.45,116.45,0,0,1,4.52,16.3,23.14,23.14,0,0,0,4.27,9.64c4.88,6.1,4.88-30.49,22-36.59,0,0-42.68-37.8-32.93-45.12,0,0,10.55-10.54,30.49,22.33A20.37,20.37,0,0,0,190,91.31c3.89,3,9.51,5,10.93-6.28a35.58,35.58,0,0,0-12.11-31.21c-8.67-7.54-22.52-14.2-43.11-10.27a3.14,3.14,0,0,1-2.83-.77c-2.23-2.22-1.55-9.08,39.61-28.29C182.52,14.49,158.13-7.9,135.57,35Z"/><path d="M159.32,134a25.69,25.69,0,0,1-2.46,1.42,5.73,5.73,0,0,1-3.16.81,1.54,1.54,0,0,1-1.32-1.45,4.6,4.6,0,0,1-.06-.94,19.28,19.28,0,0,1,1.43-6.28,38.85,38.85,0,0,1,3.77-7.3,39.92,39.92,0,0,1,6.06-7.3,26.68,26.68,0,0,1,7.36-5l.21-.06a187.84,187.84,0,0,0,1-22.69.86.86,0,0,1,.44-.79.3.3,0,0,1,.32-.09.24.24,0,0,1,.16.21c0,.7.05,2.41.14,5.09s.16,4.7.19,6.06,0,3.17,0,5.4-.11,4.27-.25,6.11a12.17,12.17,0,0,1,6.79-.07,10.65,10.65,0,0,1,5.4,3.8c-.34-1.85-.6-3.69-.77-5.54a52.64,52.64,0,0,1-.14-6.15q.1-3.37.37-6.45t.75-6.46q.49-3.39,1-6.16t1.13-5.48a1,1,0,0,1,.24-.46,2.72,2.72,0,0,1,1-.46,2.81,2.81,0,0,1,1.59-.11c.51.12.69.54.53,1.24-.09.29-.2.76-.34,1.39-.58,2.53-1,4.51-1.34,6s-.76,3.58-1.3,6.36-.89,5.06-1.09,6.88-.39,4-.58,6.43a32.16,32.16,0,0,0,0,6.23,46.37,46.37,0,0,0,.87,5.14,12.63,12.63,0,0,0,1.83,4.42,10.71,10.71,0,0,0,3,3c.24.15.3.38.16.71s-.33.41-.58.26a14.19,14.19,0,0,1-5.47-7.61.49.49,0,0,0-.08-.1,10.8,10.8,0,0,0-13.08-5.77,58.43,58.43,0,0,1-.9,6.49,41,41,0,0,1-1.68,6,26.74,26.74,0,0,1-2.58,5.28,23.47,23.47,0,0,1-3.71,4.37A30,30,0,0,1,159.32,134ZM171,108.86l-.14.06a24.93,24.93,0,0,0-7.14,4.74,37.64,37.64,0,0,0-5.83,6.9,36.38,36.38,0,0,0-3.6,6.86,17.53,17.53,0,0,0-1.33,5.9,3,3,0,0,0,0,.83,1.31,1.31,0,0,0,1.05,1.25,5,5,0,0,0,2.79-.75,23.82,23.82,0,0,0,2.35-1.37C165.2,129.46,169.23,122.28,171,108.86Z"/><path d="M196.52,103.32a42.35,42.35,0,0,0,4.38-6.48,34.81,34.81,0,0,0,3-6.68c.11-.39.31-.55.59-.46s.37.32.26.71a33.83,33.83,0,0,1-3.15,7,41.69,41.69,0,0,1-4.52,6.67,12.57,12.57,0,0,1-2.57,2.47,2.21,2.21,0,0,1-1.14.46c-.87.47-1.54.39-2-.24a5.27,5.27,0,0,1-.82-3c-.06-1.36-.05-2.92,0-4.7.14-2,.43-4.41.88-7.22.19-1.19.4-2.47.64-3.84a3,3,0,0,1,1.31-2.25,1.61,1.61,0,0,1,1.17-.21c.41.08.57.35.5.79-2.11,10.88-2.69,17-2.09,19.13a.39.39,0,0,0,.13.23.33.33,0,0,0,.37.15,1.58,1.58,0,0,0,.76-.29A11.63,11.63,0,0,0,196.52,103.32Zm-2.87-21.64a1.83,1.83,0,0,1,.87-.85.84.84,0,0,1,.92.08,1.14,1.14,0,0,1,.43.91,2.11,2.11,0,0,1-.12.85,2.38,2.38,0,0,1-.42.77,1.6,1.6,0,0,1-.62.46.86.86,0,0,1-.92-.07,1.21,1.21,0,0,1-.43-.92A2.23,2.23,0,0,1,193.65,81.68Z"/><path d="M189,162.17l0,0c-2.88,2.56-4.63.79-5.38-4.94-.6-5-.44-11.88.68-21.57.17-1.52.34-2.92.53-4.18-5.81,1.86-9.8,3.51-12.21,4.54a.35.35,0,0,1-.3,0,.28.28,0,0,1-.16-.22.52.52,0,0,1,0-.25.75.75,0,0,1,.1-.2.35.35,0,0,1,.16-.14A131.09,131.09,0,0,1,185,130.44a15.07,15.07,0,0,1,.43-2.21,3,3,0,0,1,.37-1,1.89,1.89,0,0,1,.8-.42,1.84,1.84,0,0,1,1.08-.06.49.49,0,0,1,.44.58s-.09.78-.27,2.25c6.6-2,11.37-3,14.07-3.6a.28.28,0,0,1,.32.07.58.58,0,0,1,.16.39.8.8,0,0,1-.1.41.4.4,0,0,1-.25.21c-2.69.6-7.56,1.61-14.34,3.6-.37,3.25-.68,6.14-.93,8.71,0,.06-.11,1-.27,2.68s-.3,3.12-.41,4.23-.21,2.55-.31,4.3-.16,3.24-.16,4.52c0,3.29.25,5.35.77,6.26a1.76,1.76,0,0,0,.42.46.76.76,0,0,0,.48.17,2.06,2.06,0,0,0,1.22-.66,8.06,8.06,0,0,0,1.29-1.64,29.47,29.47,0,0,0,1.46-2.63q.94-2,1.8-4.33a45.8,45.8,0,0,0,1.42-4.62c.08-.33.25-.43.5-.3a.56.56,0,0,1,.24.7q-.57,2.24-1.48,4.77c-.57,1.57-1.18,3-1.82,4.42a26.49,26.49,0,0,1-1.53,2.72A8.1,8.1,0,0,1,189,162.17Z"/><path d="M206.32,171.45a27.85,27.85,0,0,0,3.32-5.08,70.74,70.74,0,0,0,3.52-7.79,81.51,81.51,0,0,0,3-10.43s0,0,0-.05v0c.11-.36.28-.47.52-.33s.33.42.24.82l0,.05v0a90.26,90.26,0,0,1-3.1,10.63,71.68,71.68,0,0,1-3.59,7.89,25.63,25.63,0,0,1-3.44,5.26,4,4,0,0,1-2,1.32,1.51,1.51,0,0,1-1.54-.37,5,5,0,0,1-1.21-3.05,18.61,18.61,0,0,1,0-4.88c.18-1.53.5-3.35,1-5.49s.91-4.11,1.32-5.87a26.2,26.2,0,0,0,.69-3.89,6,6,0,0,0-.34-2.69c-.27-.58-.65-.77-1.12-.57a17.44,17.44,0,0,0-4.06,5.39A50,50,0,0,0,196,161a.91.91,0,0,1-.77.79,1.33,1.33,0,0,1-1.05-.29,1,1,0,0,1-.34-.76q0-6.28.47-12.08a.2.2,0,0,0,0-.14A102.53,102.53,0,0,1,195.69,138c1.32-7.1,3.18-12.74,5.56-16.71a11.53,11.53,0,0,1,2.84-3.45A3.63,3.63,0,0,1,207,117a3,3,0,0,1,1.6,1,6.23,6.23,0,0,1,1.2,2,12.23,12.23,0,0,1,.64,2.85,19.76,19.76,0,0,1,.09,3.29,26.68,26.68,0,0,1-1.56,7.07,30.7,30.7,0,0,1-3.59,7.06,26.38,26.38,0,0,1-8.34,7.86c-.44,3.6-.76,6.9-1,9.93a50.63,50.63,0,0,1,2.85-6.38,18.88,18.88,0,0,1,4.28-5.65,4.82,4.82,0,0,1,1.28-.7,2.09,2.09,0,0,1,1.15-.08c1.8.5,2.55,2.21,2.26,5.05a53.83,53.83,0,0,1-2.18,8.63c-.35,1.09-.61,1.94-.78,2.56l-.63,2.32c-.26.92-.45,1.76-.6,2.53a17.79,17.79,0,0,0-.28,2.16,10,10,0,0,0,.1,3.09c.19.83.53,1.21,1,1.13A3.37,3.37,0,0,0,206.32,171.45Zm2.74-51a3.73,3.73,0,0,0-.92-1.53,1.59,1.59,0,0,0-1.38-.23,4.3,4.3,0,0,0-2.7,2.13,21.9,21.9,0,0,0-2.33,4.75,64.13,64.13,0,0,0-1.93,6.59q-.9,3.77-1.49,7.26t-1.08,7.3a26.48,26.48,0,0,0,7.6-7.41,29,29,0,0,0,3.43-6.72,24.8,24.8,0,0,0,1.45-6.65,18.54,18.54,0,0,0-.05-3A10.57,10.57,0,0,0,209.06,120.49Z"/><path d="M227.11,159.91a21.28,21.28,0,0,0,4.53-4.52,29.65,29.65,0,0,0,3.58-5.91q.22-.49.54-.12a.8.8,0,0,1,.09.89,29.74,29.74,0,0,1-3.72,6.14,23.7,23.7,0,0,1-4.69,4.7c-.45.3-.9.57-1.35.83a13,13,0,0,1-1.34.68,9,9,0,0,1-1.84.57,5.15,5.15,0,0,1-1.74.12,5.27,5.27,0,0,1-4.37-3.12,12.34,12.34,0,0,1-1.27-4.82,19.91,19.91,0,0,1,.38-5.5,17.6,17.6,0,0,1,2.1-5.59,10.06,10.06,0,0,1,3.63-3.72,4.81,4.81,0,0,1,3.5-.36,4.47,4.47,0,0,1,2.89,2v0a3.67,3.67,0,0,1,.53,1.87,7.36,7.36,0,0,1-1,3.7,9.76,9.76,0,0,1-2.73,3.22,9.29,9.29,0,0,1-6.49,1.94,18.78,18.78,0,0,0,0,2.48,9.41,9.41,0,0,0,1,3.48,4.25,4.25,0,0,0,1.69,1.82,4.43,4.43,0,0,0,2.09.47,6.09,6.09,0,0,0,2.12-.37A10,10,0,0,0,227.11,159.91Zm.34-16.89a2.64,2.64,0,0,0-1.74-1.38,2.7,2.7,0,0,0-2,.45,9.06,9.06,0,0,0-1.85,1.63,10.8,10.8,0,0,0-1.42,2.08,9.4,9.4,0,0,0-.57,1.25c-.17.43-.37,1-.61,1.77s-.41,1.28-.52,1.58c-.08.47-.16.92-.22,1.35a8.76,8.76,0,0,0,6-1.84A9.09,9.09,0,0,0,227,147a5.45,5.45,0,0,0,.76-2.85A2.43,2.43,0,0,0,227.45,143Z"/><path d="M244.31,168.4a22.1,22.1,0,0,0,2.3-2.51,62.73,62.73,0,0,0,3.73-5.1,57.41,57.41,0,0,0,3.71-6.19c.47-.9.86-1.71,1.16-2.46q.21-.54.54-.21a.75.75,0,0,1,.12.87,53.31,53.31,0,0,1-5,8.92,48.56,48.56,0,0,1-6.17,7.8c-1.59,1.53-2.91,2-4,1.52-2.12-1-.95-8.83,4.18-23.31.27-.73-.14-.82-1.24-.25-.35.2-.86.53-1.55,1a4.66,4.66,0,0,0-.55.34c-2.46,1.39-4.31,1.72-5.59,1-2.14-1.21-3-3.76-2.46-7.71a8.94,8.94,0,0,1,1.44-3.91,5,5,0,0,1,2.4-2,2.09,2.09,0,0,1,2.05.22c.81.7,1,1.93.66,3.68a32.38,32.38,0,0,1-1.44,4.72,39.22,39.22,0,0,1-1.57,3.69,5.71,5.71,0,0,0,2.61-.51,18.66,18.66,0,0,0,3.9-2.31,32.86,32.86,0,0,0,3.86-3.1.27.27,0,0,1,.43,0,1.38,1.38,0,0,1,.27.24l.2.22a1,1,0,0,1,.22.3,2.08,2.08,0,0,1,.14.4,3.41,3.41,0,0,1,.06.51,2.15,2.15,0,0,1-.07.65,6.13,6.13,0,0,1-.2.76q-1.65,4.44-3.32,9.49c-1.35,4.07-2.34,7.47-3,10.21a15.28,15.28,0,0,0-.54,3.74,1.4,1.4,0,0,0,.18.71.46.46,0,0,0,.47.13A4.63,4.63,0,0,0,244.31,168.4Zm-8.47-20.32a.19.19,0,0,1,.13.07q.08-.21.39-.93l.67-1.56c.23-.56.5-1.19.79-1.92s.54-1.42.75-2.1.39-1.32.53-1.92a5.86,5.86,0,0,0,.18-1.57,1.14,1.14,0,0,0-.36-.91c-.69-.33-1.37,0-2,.87a9.65,9.65,0,0,0-1.48,3.37,15.14,15.14,0,0,0-.42,4A3.34,3.34,0,0,0,235.84,148.08Z"/><path d="M264.56,165.8a21.07,21.07,0,0,0,4.77-3.81,26.32,26.32,0,0,0,3.86-5q.24-.42.51,0a.74.74,0,0,1,0,.83,25.87,25.87,0,0,1-4,5.17,24,24,0,0,1-5,4c-.47.24-.93.47-1.4.69a12.24,12.24,0,0,1-1.39.56,9.19,9.19,0,0,1-1.88.43,5.2,5.2,0,0,1-5.8-3.48,13,13,0,0,1-.79-5.09,21.06,21.06,0,0,1,.94-5.62,17.27,17.27,0,0,1,2.61-5.38,8.54,8.54,0,0,1,3.86-3.06,4.53,4.53,0,0,1,3.39.35,5.21,5.21,0,0,1,2.58,2.51v.05a3.9,3.9,0,0,1,.35,1.89,6.71,6.71,0,0,1-1.22,3.39,8.82,8.82,0,0,1-2.92,2.71,9,9,0,0,1-6.53,1.06,21.14,21.14,0,0,0-.26,2.52,9.68,9.68,0,0,0,.63,3.62,4.07,4.07,0,0,0,1.51,2,4.38,4.38,0,0,0,2,.64,6.19,6.19,0,0,0,2.13-.19A9.93,9.93,0,0,0,264.56,165.8Zm1.72-16.22a3,3,0,0,0-1.54-1.67,2.48,2.48,0,0,0-2,.05,7.61,7.61,0,0,0-1.92,1.27,9,9,0,0,0-1.57,1.83,9.52,9.52,0,0,0-.68,1.16c-.2.41-.46,1-.76,1.7s-.53,1.22-.66,1.51c-.13.46-.25.91-.35,1.34a8.47,8.47,0,0,0,6-1,8.29,8.29,0,0,0,2.68-2.44,4.89,4.89,0,0,0,1-2.62A2.54,2.54,0,0,0,266.28,149.58Z"/><path d="M284.77,171a.55.55,0,0,1,.57-.24.81.81,0,0,1,.51.5,1.85,1.85,0,0,1,.16.91,1.27,1.27,0,0,1-.28.79.57.57,0,0,1-.57.23.78.78,0,0,1-.51-.47,1.79,1.79,0,0,1-.17-.9A1.39,1.39,0,0,1,284.77,171Zm5.75-14.22q-2,6.47-4.07,13.34a.24.24,0,0,1-.27.19.51.51,0,0,1-.38-.18,1.61,1.61,0,0,1-.33-.61,1.29,1.29,0,0,1-.05-.59q1.54-6.9,3.05-13.58c.18-.79.47-1.14.87-1.06a1.58,1.58,0,0,1,1,1A1.94,1.94,0,0,1,290.52,156.76Z"/></g></g></svg>