<svg xmlns="http://www.w3.org/2000/svg" viewBox="0 0 1046.02 893.89"><defs><style>.cls-1,.cls-13,.cls-16,.cls-17,.cls-18,.cls-3,.cls-5,.cls-8{fill:none;}.cls-1{stroke:#edbfa6;}.cls-1,.cls-10,.cls-13,.cls-16,.cls-17,.cls-18,.cls-3,.cls-5,.cls-8,.cls-9{stroke-miterlimit:10;}.cls-1,.cls-13,.cls-9{stroke-width:2.61px;}.cls-2{fill:#edd9ca;}.cls-16,.cls-18,.cls-3,.cls-9{stroke:#f6e7db;}.cls-3,.cls-5{stroke-width:1.31px;}.cls-4,.cls-6{fill:#dbbca8;}.cls-4{opacity:0.71;}.cls-10,.cls-5{stroke:#edd9ca;}.cls-7{fill:#ceb4a3;}.cls-8{stroke:#bcab8a;stroke-width:0.63px;}.cls-15,.cls-9{fill:#726a67;}.cls-10{fill:#f7f5f0;stroke-width:7.15px;opacity:0.82;}.cls-11{fill:#f6e7db;}.cls-12{fill:#f2d7c9;}.cls-13{stroke:#dbbca8;}.cls-14{fill:#efeeed;}.cls-15{opacity:0.48;}.cls-16{stroke-width:5.23px;}.cls-17{stroke:#1d1d1b;stroke-width:0.51px;}.cls-18{stroke-width:0.65px;}</style></defs><g id="Calque_2" data-name="Calque 2"><g id="Calque_8" data-name="Calque 8"><rect class="cls-1" x="609.99" y="734.4" width="44.56" height="44.56"/><circle class="cls-1" cx="631.86" cy="756.49" r="14.52"/><path class="cls-1" d="M584.29,567.9s58.56,34.88,57.26,98.17c-.11,5.68-.26,11.37-.14,17a285.72,285.72,0,0,1-9,76.32"/><path class="cls-2" d="M120.47,666.12s39.93,17.65,39.88-44.52c0,0-14.82,34.47-24.69,22.5,0,0,25-25.11,23.38-36.18,0,0-2-24.91-9.57-15.61,0,0-8.63,35.64-19.81,36.2,0,0,19.6-34,13.26-46.36-.42-.8-.86-1.6-1.22-2.43-1.54-3.5-6.65-12.82-17.79-13.68,0,0,4.86,73.38-3.88,37.1,0,0-4.1-17.91-2.08-26.94,0,0,2.62-16.29-22.59-20.44,0,0-6.25-2.2-9.76-1.2,0,0,21.82,33.41,10.11,42.25,0,0-3.81,4.65-7.32-20.54,0,0,.13-24.17-11.47-22,0,0-13.94,6.38-21.39,5,0,0-3.94-2.42-1.27,8.5,0,0,2,16.17-4.35,30.42,0,0-5.71,15.71,19.21,14.76,0,0,34.14-.19,32.89,13.34,0,0,.53,9.18-29.92-6,0,0-15.28-8.64-24.91-7.79,0,0,11.71,8.62,12.07,23.47,0,0,40.67-1.63,42.93,10.9,0,0,1.87,8.32-26.81-.81a62.27,62.27,0,0,1-8.92-3.7,12.56,12.56,0,0,0-5.9-1.43C56,641,72,654.11,68,664.43c0,0,33.25-6.74,32.65.54,0,0,.52,8.81-21.69,6.49a12,12,0,0,0-4.49.37c-2.81.78-5.9,2.73-1.51,7.46a19.42,19.42,0,0,0,18.43,5.45c6.69-1.42,15-5.63,21.32-16.85a2,2,0,0,1,1.45-1.07c1.84-.26,1,94-6.59,120.51C107.61,787.33,130.5,692.29,120.47,666.12Z"/><path class="cls-3" d="M136,657.68s39.93,17.65,39.88-44.51c0,0-14.82,34.46-24.69,22.49,0,0,25-25.11,23.38-36.18,0,0-2-24.9-9.57-15.61,0,0-8.63,35.65-19.81,36.2,0,0,19.6-34.05,13.25-46.35-.41-.81-.85-1.6-1.21-2.44-1.54-3.49-6.65-12.81-17.79-13.68,0,0,4.85,73.38-3.88,37.11,0,0-4.1-17.92-2.08-26.94,0,0,2.62-16.3-22.6-20.45,0,0-6.24-2.2-9.75-1.19,0,0,21.82,33.4,10.11,42.25,0,0-3.81,4.65-7.32-20.55,0,0,.13-24.17-11.47-22,0,0-13.94,6.38-21.39,5,0,0-4-2.42-1.27,8.51,0,0,2,16.16-4.35,30.41,0,0-5.71,15.71,19.21,14.76,0,0,34.14-.19,32.89,13.34,0,0,.53,9.18-29.92-6,0,0-15.28-8.63-24.91-7.79,0,0,11.71,8.63,12.07,23.48,0,0,40.67-1.63,42.93,10.89,0,0,1.87,8.32-26.82-.81a61.49,61.49,0,0,1-8.91-3.7,12.56,12.56,0,0,0-5.9-1.43c-4.58.13,11.48,13.28,7.49,23.61,0,0,33.25-6.75,32.65.53,0,0,.51,8.81-21.69,6.49a12.23,12.23,0,0,0-4.49.37c-2.81.79-5.9,2.73-1.51,7.46A19.42,19.42,0,0,0,107,676.3c6.69-1.42,15-5.63,21.32-16.85a2.05,2.05,0,0,1,1.44-1.07c1.85-.26,4.59,2.53-3,29C126.67,687.42,146,683.85,136,657.68Z"/><path class="cls-4" d="M149.16,702.25s-29.6,6.47-18.58-33.17c0,0,3.73,23.75,12.39,17.3,0,0-12.17-19-9.11-25.87,0,0,5.7-15.65,9.11-8.81,0,0-.58,23.77,6.74,25.46,0,0-7-24.07-.6-31.15.42-.47.85-.92,1.24-1.41,1.64-2,6.67-7.37,14.22-6.59,0,0-16.19,46.22-4,24.13,0,0,5.89-10.94,6.14-16.93,0,0,1.15-10.71,18.6-10.34,0,0,4.54-.65,6.68.41,0,0-20.37,18.69-14.16,25.74,0,0,1.7,3.42,8.48-12.23,0,0,4.19-15.43,11.5-12.67,0,0,8.12,5.74,13.31,5.73,0,0,3-1.07-.66,5.58,0,0-4.16,10.07-2.49,19.92,0,0,1,10.7-15.35,7.11,0,0-22.61-4.21-24.17,4.57,0,0-2,5.78,20.91-.28,0,0,11.66-3.68,17.9-2,0,0-9.29,4.09-12.15,13.52,0,0-26.7-5.91-30.41,1.81,0,0-2.71,5.08,17.93,2.69a46,46,0,0,0,6.57-1.29,9.21,9.21,0,0,1,4.17-.2c3,.63-10,7.09-9.15,14.15,0,0-20.86-8.28-21.75-3.57,0,0-1.89,5.56,13.25,6.74a8.15,8.15,0,0,1,2.91.77c1.73.84,3.43,2.45-.32,4.94a14.18,14.18,0,0,1-13.19,1.27c-4.18-1.71-9-5.39-11.16-13.3a1.23,1.23,0,0,0-.77-.86c-1.18-.38-17.31,59.83-16.93,77.65C136.27,781.09,137.88,717.74,149.16,702.25Z"/><path class="cls-5" d="M140.36,695s-29.61,6.47-18.59-33.17c0,0,3.74,23.75,12.4,17.31,0,0-12.17-19-9.11-25.88,0,0,5.7-15.65,9.11-8.81,0,0-.58,23.77,6.74,25.46,0,0-7-24.06-.6-31.15.42-.46.85-.92,1.24-1.41,1.63-2,6.67-7.37,14.21-6.59,0,0-16.19,46.22-4,24.13,0,0,5.89-10.94,6.14-16.93,0,0,1.14-10.71,18.6-10.34,0,0,4.53-.65,6.68.41,0,0-20.38,18.69-14.17,25.74,0,0,1.71,3.42,8.48-12.23,0,0,4.19-15.43,11.51-12.67,0,0,8.12,5.74,13.31,5.73,0,0,3-1.07-.66,5.58,0,0-4.16,10.07-2.5,19.92,0,0,1,10.7-15.35,7.11,0,0-22.6-4.21-24.17,4.57,0,0-2,5.78,20.92-.28,0,0,11.66-3.68,17.9-2,0,0-9.29,4.09-12.15,13.52,0,0-26.7-5.91-30.41,1.81,0,0-2.71,5.08,17.93,2.69a46,46,0,0,0,6.57-1.29,9.17,9.17,0,0,1,4.16-.2c3,.63-10,7.09-9.14,14.15,0,0-20.86-8.28-21.75-3.57,0,0-1.9,5.56,13.24,6.74a8.21,8.21,0,0,1,2.92.77c1.72.84,3.43,2.45-.32,4.94a14.19,14.19,0,0,1-13.19,1.27c-4.18-1.7-9-5.39-11.17-13.3a1.22,1.22,0,0,0-.76-.86c-1.18-.38-3.5,1.07-3.12,18.89C141.28,715.09,129.08,710.5,140.36,695Z"/><path class="cls-4" d="M71.85,704.21S99,699.77,77.54,667c0,0,4.06,23.26-5.26,20.36,0,0,4.55-21.86-.14-27.12,0,0-9.61-12.45-10.42-4.93,0,0,7.73,21.76,2,25.89,0,0-1.39-24.69-9-29-.5-.28-1-.55-1.48-.86-2-1.32-7.91-4.47-14.09-1.09,0,0,27.83,37,10.74,20.9,0,0-8.34-8-10.38-13.49,0,0-4.23-9.49-18.94-3,0,0-4.05,1-5.56,2.73,0,0,23,10.09,19.88,18.78,0,0-.41,3.76-10.93-8.31,0,0-8.26-12.78-13.63-7.65,0,0-5.15,8.16-9.56,10,0,0-2.92.08,2.26,4.92,0,0,6.6,7.85,8.18,17.53,0,0,2.4,10.24,15.2,1.16,0,0,17.93-11.85,21.93-4.29,0,0,3.44,4.65-17.85,7.11,0,0-11,.71-15.81,4.48,0,0,9.14.51,14.44,8.21,0,0,20.88-14.86,26.38-9,0,0,3.85,3.74-14.41,8.81a40.63,40.63,0,0,1-6,1.12,7.88,7.88,0,0,0-3.59,1.27c-2.37,1.65,10.62,3,12.07,9.87,0,0,15.2-15,17.39-11,0,0,3.31,4.47-9.2,10.9a7.65,7.65,0,0,0-2.24,1.74c-1.21,1.38-2.16,3.47,1.78,4.45A12.23,12.23,0,0,0,63,724c3-3.06,6-8.14,5.43-16.23a1.35,1.35,0,0,1,.39-1.06c.89-.77,32.92,49.18,38,65.78C106.81,772.52,86.15,714.55,71.85,704.21Z"/><path class="cls-5" d="M77.13,694.42s27.12-4.44,5.68-37.19c0,0,4.06,23.26-5.26,20.36,0,0,4.55-21.86-.14-27.12,0,0-9.6-12.45-10.42-4.93,0,0,7.73,21.76,2,25.89,0,0-1.4-24.69-9-29-.49-.28-1-.55-1.48-.86-2-1.32-7.91-4.47-14.08-1.09,0,0,27.83,37,10.73,20.9,0,0-8.33-8-10.37-13.49,0,0-4.23-9.49-19-3,0,0-4.05,1-5.55,2.73,0,0,23,10.09,19.87,18.78,0,0-.4,3.76-10.93-8.31,0,0-8.26-12.78-13.63-7.65,0,0-5.15,8.16-9.56,10,0,0-2.91.08,2.26,4.92,0,0,6.6,7.85,8.18,17.53,0,0,2.4,10.24,15.21,1.16,0,0,17.92-11.85,21.92-4.29,0,0,3.44,4.65-17.85,7.11,0,0-11,.71-15.81,4.48,0,0,9.14.51,14.44,8.21,0,0,20.88-14.86,26.38-9,0,0,3.85,3.74-14.41,8.81a40.5,40.5,0,0,1-6,1.12,7.91,7.91,0,0,0-3.6,1.27c-2.37,1.65,10.62,3,12.08,9.87,0,0,15.19-15,17.38-11,0,0,3.31,4.47-9.19,10.9a7.52,7.52,0,0,0-2.24,1.74c-1.21,1.38-2.17,3.47,1.77,4.45a12.23,12.23,0,0,0,11.59-3.47c3-3.06,6-8.14,5.44-16.23a1.28,1.28,0,0,1,.39-1.06c.88-.77,3.29-.25,8.4,16.35C82.46,713.3,91.42,704.76,77.13,694.42Z"/></g><g id="Calque_4" data-name="Calque 4"><path class="cls-6" d="M1046,195.69H699.76V827.48h25.08a13.81,13.81,0,1,0,21.07,0h255.74a14.15,14.15,0,0,0-3.24,9,13.79,13.79,0,1,0,27.58,0,14.15,14.15,0,0,0-3.24-9H1046ZM1035,807.4H710.77V679H1035Zm0-132.92H710.77V525.23H1035Zm0-153.77H710.77V364.12H1035Zm0-161.09H710.77V215.71H1035Z"/><path class="cls-6" d="M904.49,722.64v20.47H912v70.7h86v-70.7h7.53V722.64Zm64,42.72H940.26V752.92H968.5Z"/><path class="cls-6" d="M758.51,719.79v20.47h9.6V811H877.56v-70.7h9.59V719.79ZM840,762.51h-36V750.07h36Z"/></g><g id="bureau"><path class="cls-7" d="M832.17,592.87H787.56l43.56,255.32a14.14,14.14,0,0,1,.21,2.57,15.35,15.35,0,0,1-30.48,2.58L756.4,592.87H281.16L238.93,861.74a15.39,15.39,0,0,1-15.16,13,14.69,14.69,0,0,1-2.38-.19A15.4,15.4,0,0,1,208.6,857l41.47-264.11h-54.8V552.56h636.9Z"/></g><g id="plante"><path class="cls-8" d="M807.55,428.51a1.5,1.5,0,0,1,1.83.56,1.63,1.63,0,0,1-.38,2.22,1.52,1.52,0,0,1-2.16-.38,1.64,1.64,0,0,1,.39-2.22,1.14,1.14,0,0,1,.32-.18"/><path class="cls-8" d="M810.24,435.27a1.5,1.5,0,0,1,1.83.56,1.63,1.63,0,0,1-.39,2.22,1.51,1.51,0,0,1-2.15-.38,1.63,1.63,0,0,1,.39-2.22,2,2,0,0,1,.32-.18"/><path class="cls-8" d="M797.07,427.33c4.66-24,6.95-21.74,6.95-21.74,3,3.49-6.95,21.74-6.95,21.74"/><path class="cls-8" d="M809.15,436.35s-7.85-.4-11.63,8.81"/><path class="cls-8" d="M806.24,467.64c-2.74-19.23-15.7-34.5-31.16-45.36"/><path class="cls-8" d="M798,445.36s-7.64-14.36,3.25-25.22A31.67,31.67,0,0,1,807,438a23.67,23.67,0,0,1-1.91,8.4c-.7,1.76-1.51,5.29-1,11.85"/><path class="cls-8" d="M802.8,454.81s-6.16-17.13-1.6-34.67"/><path class="cls-8" d="M793,438.51a69.49,69.49,0,0,0-15.62-4.09s.93,4.51-6.39,2.72c0,0-2.2-.06-.22-3.87,0,0-.88-3.72,1.69-3.95,0,0,6.75-.12,4.89,4.88"/><path class="cls-8" d="M753.78,407.68c9.32,4.84,21.78,14.67,25.79,17.91l1.31,1.07"/><path class="cls-8" d="M766.24,415.48s-6.24-3.44-3.47-6.13C762.77,409.35,765.56,407.51,766.24,415.48Z"/><path class="cls-8" d="M767,416.13s-7,1.93-6.82-1.86C760.17,414.27,761,411,767,416.13Z"/><path class="cls-8" d="M789.25,434s-10-8.47-5.53-9.51C783.72,424.47,786.67,423.71,789.25,434Z"/><path class="cls-8" d="M774.39,421.68s-5.84-4-7.64-1.29C766.75,420.39,765.85,423.17,774.39,421.68Z"/><path class="cls-8" d="M781.78,427.83s-4.38-3.63-4.69-1.8C777.09,426,776.89,427.28,781.78,427.83Z"/><path class="cls-8" d="M775.52,422.62s-4.46-3.15-3.24-5.24C772.28,417.38,774.43,414.69,775.52,422.62Z"/><path class="cls-8" d="M816.38,422a142.4,142.4,0,0,0-12.87,45.92"/><path class="cls-8" d="M816.37,422.05c10.53-22.05,12.18-19.3,12.18-19.3,2.06,4.14-12.18,19.3-12.18,19.3"/><path class="cls-8" d="M816.48,422c18.46-5.68,15.17-7.5,15.17-7.5-4.09-1.21-14.23,6.71-15.18,7.46Z"/><path class="cls-8" d="M816.38,422c8.66-18.27,4.21-17.1,4.21-17.1-4.45,2.22-4.29,15.81-4.27,17.09Z"/><path class="cls-8" d="M806.18,451.24s5.06-16,18.75-23.27"/><path class="cls-8" d="M826.22,425.82a1.5,1.5,0,0,1,1.63,1,1.64,1.64,0,0,1-.93,2.06,1.52,1.52,0,0,1-2-.91,1.64,1.64,0,0,1,.93-2.06,2.37,2.37,0,0,1,.36-.09"/><path class="cls-8" d="M827.12,433a1.5,1.5,0,0,1,1.63,1,1.64,1.64,0,0,1-.93,2.06,1.52,1.52,0,0,1-2-.91,1.64,1.64,0,0,1,.93-2.06,2.37,2.37,0,0,1,.36-.09"/><path class="cls-8" d="M818.11,426.3a1.51,1.51,0,0,1,1.63,1,1.63,1.63,0,0,1-.94,2.05,1.5,1.5,0,0,1-2-.9,1.63,1.63,0,0,1,.93-2.06,1.19,1.19,0,0,1,.36-.09"/><path class="cls-8" d="M817.49,429.2s.76,1.42-3.8,8.4"/><path class="cls-8" d="M825.79,433.81s-7.49-2.35-13.46,5.61"/><path class="cls-8" d="M806.7,468.31C808.31,448.84,799,431,786.16,417"/><path class="cls-8" d="M803.48,444.48s-4.35-15.69,8.65-23.91a31.7,31.7,0,0,1,1.75,18.65,23.58,23.58,0,0,1-3.69,7.78c-1.07,1.57-2.63,4.84-3.56,11.35"/><path class="cls-8" d="M806.15,454.76s-2.29-18.07,6-34.19"/><path class="cls-8" d="M800.11,436.71a69,69,0,0,0-14.35-7.39s-.08,4.61-6.83,1.26c0,0-2.14-.53.62-3.82,0,0,0-3.82,2.51-3.49,0,0,6.62,1.35,3.71,5.83"/><path class="cls-8" d="M768.55,398.09c8.05,6.75,18.07,19.05,21.28,23.09l1,1.33"/><path class="cls-8" d="M779,408.41s-5.35-4.71-2.06-6.73C777,401.68,780.09,400.48,779,408.41Z"/><path class="cls-8" d="M779.61,409.21s-7.28.36-6.26-3.3C773.35,405.91,774.83,402.93,779.61,409.21Z"/><path class="cls-8" d="M797.45,431.47s-8-10.44-3.33-10.48C794.12,421,797.17,420.88,797.45,431.47Z"/><path class="cls-8" d="M785.62,416.24s-4.83-5.16-7.18-2.92C778.44,413.32,777,415.83,785.62,416.24Z"/><path class="cls-8" d="M791.5,423.85s-3.48-4.5-4.19-2.78C787.31,421.07,786.84,422.25,791.5,423.85Z"/><path class="cls-8" d="M786.52,417.4s-3.67-4-2-5.81C784.49,411.59,787.18,409.42,786.52,417.4Z"/></g><g id="Calque_2-2" data-name="Calque 2"><line class="cls-9" x1="343.47" y1="657.63" x2="494.43" y2="771.01"/><line class="cls-9" x1="465.63" y1="657.63" x2="314.51" y2="771.61"/><rect class="cls-10" x="366.72" y="305.01" width="310.31" height="210.41" rx="7.4"/><polygon class="cls-2" points="551.45 518.94 562.81 552.55 503.38 552.55 514.19 518.94 551.45 518.94"/><path class="cls-11" d="M312.09,445.35s15.51-76.93,81.22-73.49a154.93,154.93,0,0,0,16.41-.27c20.82-1.13,72.21,3.47,85.95,73.76C513,534.13,527.05,578.86,549.74,606.9c0,0,33.36,55.77-69.43,62.58l-2.72.17S222.64,700.36,260,606.9C260,606.9,300.08,528.79,312.09,445.35Z"/><rect class="cls-11" x="309.5" y="646.11" width="10.01" height="251" rx="1.91" transform="matrix(0.97, 0.25, -0.25, 0.97, 205.18, -54.43)"/><rect class="cls-11" x="489.42" y="645.51" width="10.01" height="251" rx="1.91" transform="translate(-177.4 148.47) rotate(-14.51)"/><rect class="cls-6" x="872.9" y="429.55" width="143.3" height="20.47"/><path class="cls-6" d="M883.58,450v70.69h121.94V450Zm80.11,22.25H923.64V459.81h40.05Z"/><rect class="cls-12" x="987.83" y="248.86" width="16.02" height="113.01"/><rect class="cls-12" x="1008.29" y="249.78" width="17.65" height="113.01"/><rect class="cls-12" x="963.69" y="248.51" width="20.83" height="113.01"/><rect class="cls-12" x="936.31" y="248.83" width="16.02" height="114.91" transform="translate(101.42 -218.18) rotate(13.92)"/><rect class="cls-12" x="915.63" y="255.82" width="16.02" height="109.56" transform="translate(150.03 -281.94) rotate(18.86)"/><path class="cls-12" d="M909.86,278.59,871,361.28l2.77,1.3a6.35,6.35,0,0,1,3.29-.87,6.44,6.44,0,0,1,3.19.81,6.18,6.18,0,0,1,3.15-.81,6.08,6.08,0,0,1,4.33,1.65l36.67-77.95Z"/><path class="cls-12" d="M821.8,468.89a3.26,3.26,0,0,0-3.93-.49c-2,1.55-7.22-9.48-13.28-9.48s-11.23,11-13.28,9.48a3.26,3.26,0,0,0-3.93.49A31.47,31.47,0,0,0,777,492.59c0,16.78,12.35,30.38,27.59,30.38s27.59-13.6,27.59-30.38A31.47,31.47,0,0,0,821.8,468.89Z"/><path class="cls-8" d="M797.17,427.24C813.61,417.11,810,416.17,810,416.17c-4.26-.14-12.09,10.08-12.81,11Z"/><path class="cls-8" d="M797.07,427.3c3.8-19.85-.21-17.61-.21-17.61-3.75,3.27-.18,16.38.16,17.61Z"/><rect class="cls-13" x="851.98" y="76.85" width="75.43" height="118.83"/><rect class="cls-6" x="865.34" y="91.54" width="48.73" height="96.13"/><path class="cls-6" d="M927.92,136.27l-.88.38a7.43,7.43,0,0,1-.37,2.65,7.45,7.45,0,0,1,0,3.45,7.51,7.51,0,0,1,.2,2.67l25.53,58.36,4.29-1.87Z"/><path class="cls-14" d="M905.06,118.07a15.36,15.36,0,1,1-15.36-15.35A15.35,15.35,0,0,1,905.06,118.07Z"/><path class="cls-15" d="M911.09,156a15.36,15.36,0,1,1-15.35-15.36A15.35,15.35,0,0,1,911.09,156Z"/><rect class="cls-16" x="577.62" y="2.61" width="182.55" height="145.06"/><circle class="cls-12" cx="673.86" cy="52.51" r="22.43"/><circle class="cls-2" cx="671.5" cy="112.21" r="20.67"/><path class="cls-17" d="M668.3,131.59s44.81-77-25.08-99.85"/><path class="cls-17" d="M666.18,44.08S657,34.85,662.76,24a25.35,25.35,0,0,1,8.6,12.32,18.7,18.7,0,0,1,.5,6.88c-.12,1.52.09,4.42,2,9.33"/><path class="cls-17" d="M672.11,50.19S663.37,38.5,662.76,24"/><path class="cls-17" d="M660.76,40a55.8,55.8,0,0,0-12.94.52s1.77,3.24-4.26,3.58c0,0-1.7.48-1.08-2.91,0,0-1.55-2.65.37-3.43,0,0,5.15-1.67,4.9,2.6"/><path class="cls-17" d="M623.47,25.53c8.28,1.53,20.14,6.14,24,7.69l1.25.51"/><path class="cls-17" d="M634.86,28.59s-5.6-1.18-4.11-3.89C630.75,24.7,632.47,22.63,634.86,28.59Z"/><path class="cls-17" d="M635.58,28.91s-4.93,3.13-5.67.17C629.91,29.08,629.77,26.42,635.58,28.91Z"/><path class="cls-17" d="M656.84,37.39s-9.69-4.14-6.48-6C650.36,31.39,652.45,30.11,656.84,37.39Z"/><path class="cls-17" d="M642.56,31.44s-5.42-1.69-6.17.8C636.39,32.24,636.36,34.58,642.56,31.44Z"/><path class="cls-17" d="M649.67,34.42s-4.21-1.76-4-.28C645.64,34.14,645.78,35.14,649.67,34.42Z"/><path class="cls-17" d="M643.64,31.89s-4.16-1.37-3.71-3.25C639.93,28.64,641,26.06,643.64,31.89Z"/><path class="cls-11" d="M169.79,729.68v17.94a5.84,5.84,0,0,1-3.44,5.33,43.33,43.33,0,0,1-9.48,2.91v66c0,4.84-4.3,8.78-9.61,8.78H55.2c-4.94,0-9-3.67-9-8.18v-67A36.21,36.21,0,0,1,36,751.18a6,6,0,0,1-2.71-5.08V730.8a3.55,3.55,0,0,1,3.87-3.53c16.37,1.51,81.56,6.82,129.84,0A2.41,2.41,0,0,1,169.79,729.68Z"/><path class="cls-4" d="M897.82,126.18s-3.36-13.2-17.25-.83c0,0,10.41-3.25,9.55,1.52,0,0-10.21-1.08-12.38,1.52,0,0-5.21,5.43-1.73,5.43,0,0,9.55-5,11.72-2.39,0,0-11.21,2-12.79,6l-.32.78a7.37,7.37,0,0,0,.19,7s15.52-15.77,9-6.44c0,0-3.25,4.56-5.64,5.86,0,0-4.13,2.6-.44,9.55a6.79,6.79,0,0,0,1.52,2.6s3.48-11.93,7.6-10.85c0,0,1.74,0-3.26,5.86,0,0-5.42,4.78-2.82,7.17,0,0,4,2.11,5,4.2,0,0,.18,1.44,2.13-1.38a18.94,18.94,0,0,1,7.6-5s4.56-1.73-.22-7.59c0,0-6.29-8.25-3-10.64,0,0,2-2,4.12,8.47,0,0,.87,5.42,2.82,7.59a10.61,10.61,0,0,1,3-7.59s-7.81-9.55-5.43-12.59c0,0,1.52-2.11,4.73,6.67a20.78,20.78,0,0,1,.81,2.9,4.11,4.11,0,0,0,.76,1.72c.87,1.08.87-5.43,3.9-6.52,0,0-7.59-6.72-5.86-8,0,0,1.88-1.87,5.43,4a3.63,3.63,0,0,0,.9,1c.69.53,1.69.89,2-1.11a6.36,6.36,0,0,0-2.16-5.56,8.66,8.66,0,0,0-7.67-1.83.54.54,0,0,1-.5-.13c-.4-.4-.28-1.62,7-5C906.18,122.53,901.84,118.55,897.82,126.18Z"/><path class="cls-18" d="M893.09,124.09s-3.36-13.2-17.25-.83c0,0,10.42-3.25,9.55,1.52,0,0-10.2-1.08-12.37,1.52,0,0-5.21,5.43-1.74,5.43,0,0,9.55-5,11.72-2.39,0,0-11.2,2-12.79,6-.11.26-.2.52-.32.78a7.37,7.37,0,0,0,.2,7s15.51-15.77,9-6.44c0,0-3.25,4.56-5.64,5.86,0,0-4.12,2.61-.43,9.55a6.87,6.87,0,0,0,1.51,2.6s3.48-11.93,7.6-10.85c0,0,1.74,0-3.25,5.86,0,0-5.43,4.78-2.83,7.17,0,0,4,2.11,5,4.2,0,0,.18,1.44,2.14-1.38a18.86,18.86,0,0,1,7.59-5s4.56-1.73-.21-7.59c0,0-6.3-8.25-3-10.64,0,0,2-1.95,4.12,8.47,0,0,.87,5.42,2.82,7.59a10.66,10.66,0,0,1,3-7.59s-7.81-9.55-5.42-12.59c0,0,1.51-2.11,4.72,6.67a20.78,20.78,0,0,1,.81,2.9,4.24,4.24,0,0,0,.76,1.72c.87,1.08.87-5.43,3.91-6.52,0,0-7.6-6.72-5.86-8,0,0,1.87-1.87,5.42,4a3.82,3.82,0,0,0,.9,1c.7.52,1.7.88,2-1.12a6.36,6.36,0,0,0-2.16-5.56,8.65,8.65,0,0,0-7.67-1.82.57.57,0,0,1-.5-.14c-.4-.4-.28-1.62,7.05-5C901.45,120.44,897.11,116.46,893.09,124.09Z"/></g></g></svg>