<svg xmlns="http://www.w3.org/2000/svg" viewBox="0 0 1243.12 1203.14"><defs><style>.cls-1{fill:#edd9ca;}.cls-12,.cls-15,.cls-16,.cls-17,.cls-2,.cls-3,.cls-5,.cls-8{fill:none;}.cls-2{stroke:#edbfa6;}.cls-12,.cls-15,.cls-16,.cls-17,.cls-2,.cls-3,.cls-5,.cls-7,.cls-8,.cls-9{stroke-miterlimit:10;}.cls-12,.cls-2,.cls-9{stroke-width:2.61px;}.cls-15,.cls-17,.cls-3,.cls-9{stroke:#f6e7db;}.cls-3,.cls-5{stroke-width:1.31px;}.cls-4,.cls-6{fill:#dbbca8;}.cls-4{opacity:0.71;}.cls-5,.cls-7{stroke:#edd9ca;}.cls-7{fill:#f7f5f0;stroke-width:7.15px;opacity:0.82;}.cls-8{stroke:#bcab8a;stroke-width:0.63px;}.cls-14,.cls-9{fill:#726a67;}.cls-10{fill:#f6e7db;}.cls-11{fill:#f2d7c9;}.cls-12{stroke:#dbbca8;}.cls-13{fill:#efeeed;}.cls-14{opacity:0.48;}.cls-15{stroke-width:5.23px;}.cls-16{stroke:#1d1d1b;stroke-width:0.51px;}.cls-17{stroke-width:0.65px;}</style></defs><g id="Calque_2" data-name="Calque 2"><g id="Calque_1-2" data-name="Calque 1"><path class="cls-1" d="M595.84,0a433.09,433.09,0,0,0-78.79,111.14C448.12,251.28,335.17,431.48,175.78,533.35,82.3,593.1,19,685.2,4.13,788.74c-19.68,137.4,22.53,296.83,313.33,316.49a1311.88,1311.88,0,0,1,262,45.24c180.86,50.16,494.82,105.83,663.62-46.86V0Z"/><rect class="cls-2" x="670.13" y="886.49" width="44.56" height="44.56"/><circle class="cls-2" cx="691.99" cy="908.57" r="14.52"/><path class="cls-2" d="M644.43,720s58.56,34.87,57.26,98.17c-.12,5.68-.26,11.36-.14,17a285.72,285.72,0,0,1-9,76.32"/><path class="cls-1" d="M180.61,818.2s39.93,17.65,39.88-44.51c0,0-14.82,34.46-24.69,22.49,0,0,25-25.11,23.38-36.18,0,0-2-24.9-9.57-15.61,0,0-8.63,35.65-19.81,36.2,0,0,19.6-34.05,13.25-46.35-.41-.81-.85-1.6-1.21-2.44-1.54-3.49-6.65-12.81-17.79-13.68,0,0,4.86,73.38-3.88,37.11,0,0-4.1-17.92-2.08-26.94,0,0,2.62-16.3-22.6-20.45,0,0-6.24-2.2-9.75-1.19,0,0,21.82,33.4,10.11,42.25,0,0-3.81,4.65-7.32-20.55,0,0,.13-24.17-11.47-22,0,0-13.94,6.38-21.39,5,0,0-4-2.42-1.27,8.51,0,0,2,16.16-4.35,30.41,0,0-5.71,15.71,19.21,14.76,0,0,34.14-.19,32.89,13.34,0,0,.53,9.18-29.92-6.05,0,0-15.28-8.63-24.91-7.79,0,0,11.71,8.63,12.07,23.48,0,0,40.67-1.63,42.93,10.89,0,0,1.87,8.32-26.81-.81a62.27,62.27,0,0,1-8.92-3.7,12.56,12.56,0,0,0-5.9-1.43c-4.58.13,11.48,13.28,7.49,23.61,0,0,33.25-6.75,32.65.53,0,0,.52,8.81-21.69,6.49a12.23,12.23,0,0,0-4.49.37c-2.81.79-5.9,2.73-1.51,7.46a19.42,19.42,0,0,0,18.43,5.45c6.69-1.42,15-5.63,21.32-16.85a2.05,2.05,0,0,1,1.44-1.07c1.85-.26,1,94-6.58,120.51C167.75,939.41,190.64,844.37,180.61,818.2Z"/><path class="cls-3" d="M196.13,809.77s39.93,17.65,39.87-44.52c0,0-14.81,34.46-24.68,22.5,0,0,25-25.12,23.38-36.19,0,0-2-24.9-9.57-15.6,0,0-8.63,35.64-19.81,36.19,0,0,19.6-34,13.25-46.35-.41-.81-.85-1.6-1.22-2.44-1.53-3.49-6.64-12.81-17.78-13.68,0,0,4.85,73.39-3.88,37.11,0,0-4.1-17.92-2.08-26.94,0,0,2.62-16.3-22.6-20.45,0,0-6.24-2.2-9.75-1.19,0,0,21.82,33.4,10.1,42.25,0,0-3.8,4.65-7.31-20.55,0,0,.12-24.17-11.47-22,0,0-13.94,6.38-21.39,5,0,0-4-2.42-1.27,8.51,0,0,2,16.17-4.35,30.42,0,0-5.71,15.7,19.21,14.75,0,0,34.14-.19,32.88,13.35,0,0,.54,9.17-29.91-6.06,0,0-15.28-8.63-24.91-7.78,0,0,11.71,8.62,12.06,23.47,0,0,40.68-1.63,42.94,10.9,0,0,1.87,8.31-26.82-.81a62.68,62.68,0,0,1-8.91-3.71,12.81,12.81,0,0,0-5.9-1.43c-4.58.14,11.48,13.29,7.49,23.61,0,0,33.25-6.75,32.65.53,0,0,.51,8.81-21.69,6.5a12,12,0,0,0-4.49.36c-2.81.79-5.9,2.73-1.51,7.47a19.41,19.41,0,0,0,18.43,5.44c6.69-1.41,15-5.62,21.32-16.85a2.08,2.08,0,0,1,1.44-1.07c1.85-.26,4.59,2.53-3,29C186.81,839.51,206.16,835.93,196.13,809.77Z"/><path class="cls-4" d="M209.3,854.33s-29.61,6.48-18.58-33.17c0,0,3.73,23.76,12.39,17.31,0,0-12.17-19-9.11-25.88,0,0,5.7-15.65,9.11-8.81,0,0-.58,23.77,6.74,25.46,0,0-7-24.06-.6-31.15.42-.46.85-.92,1.24-1.4,1.63-2.05,6.67-7.38,14.22-6.6,0,0-16.19,46.22-4,24.13,0,0,5.89-10.94,6.14-16.93,0,0,1.14-10.71,18.6-10.33,0,0,4.53-.66,6.68.4,0,0-20.37,18.69-14.17,25.74,0,0,1.71,3.42,8.49-12.23,0,0,4.19-15.43,11.5-12.67,0,0,8.12,5.74,13.31,5.73,0,0,3-1.07-.66,5.58,0,0-4.16,10.08-2.49,19.92,0,0,1,10.7-15.35,7.11,0,0-22.61-4.21-24.17,4.57,0,0-2,5.79,20.91-.28,0,0,11.66-3.67,17.9-2,0,0-9.29,4.1-12.15,13.53,0,0-26.7-5.92-30.41,1.8,0,0-2.71,5.08,17.93,2.7a47.41,47.41,0,0,0,6.57-1.3,9.17,9.17,0,0,1,4.16-.2c3,.63-10,7.09-9.14,14.16,0,0-20.86-8.29-21.75-3.58,0,0-1.89,5.56,13.25,6.74a8,8,0,0,1,2.91.78c1.72.84,3.43,2.44-.32,4.94a14.21,14.21,0,0,1-13.19,1.26c-4.18-1.7-9-5.38-11.16-13.3a1.22,1.22,0,0,0-.77-.85c-1.18-.39-17.31,59.82-16.93,77.64C196.41,933.17,198,869.82,209.3,854.33Z"/><path class="cls-5" d="M200.49,847.09s-29.6,6.48-18.58-33.17c0,0,3.74,23.76,12.4,17.31,0,0-12.17-19-9.11-25.88,0,0,5.7-15.65,9.11-8.8,0,0-.58,23.76,6.74,25.45,0,0-7-24.06-.6-31.15.42-.46.84-.91,1.24-1.4,1.63-2.05,6.67-7.38,14.21-6.6,0,0-16.19,46.22-4,24.13,0,0,5.89-10.94,6.14-16.93,0,0,1.14-10.71,18.6-10.33,0,0,4.53-.66,6.68.4,0,0-20.38,18.69-14.17,25.74,0,0,1.71,3.42,8.48-12.23,0,0,4.19-15.43,11.51-12.67,0,0,8.11,5.74,13.31,5.73,0,0,3-1.07-.66,5.58,0,0-4.16,10.08-2.5,19.92,0,0,1,10.7-15.35,7.11,0,0-22.61-4.21-24.17,4.57,0,0-2,5.79,20.91-.28,0,0,11.67-3.67,17.91-2,0,0-9.3,4.1-12.16,13.53,0,0-26.69-5.92-30.4,1.8,0,0-2.71,5.08,17.93,2.7a47.41,47.41,0,0,0,6.57-1.3,9.16,9.16,0,0,1,4.16-.2c3,.63-10,7.09-9.14,14.16,0,0-20.86-8.29-21.75-3.58,0,0-1.9,5.56,13.24,6.74a8,8,0,0,1,2.92.78c1.72.84,3.43,2.45-.32,4.94a14.22,14.22,0,0,1-13.19,1.26c-4.18-1.7-9-5.38-11.17-13.3a1.19,1.19,0,0,0-.76-.85c-1.18-.39-3.5,1.06-3.12,18.88C201.42,867.17,189.22,862.58,200.49,847.09Z"/><path class="cls-4" d="M132,856.29s27.12-4.44,5.69-37.19c0,0,4.06,23.27-5.26,20.36,0,0,4.55-21.86-.14-27.12,0,0-9.61-12.45-10.42-4.93,0,0,7.73,21.76,2,25.9,0,0-1.39-24.7-9-29-.5-.29-1-.55-1.48-.87-2-1.31-7.92-4.47-14.09-1.08,0,0,27.83,37,10.74,20.89,0,0-8.34-8-10.38-13.48,0,0-4.23-9.5-19-3,0,0-4,1-5.55,2.73,0,0,23,10.09,19.88,18.79,0,0-.41,3.76-10.93-8.32,0,0-8.26-12.77-13.63-7.65,0,0-5.15,8.16-9.56,10,0,0-2.92.08,2.26,4.92,0,0,6.6,7.84,8.18,17.52,0,0,2.4,10.25,15.2,1.17,0,0,17.93-11.86,21.93-4.29,0,0,3.44,4.65-17.85,7.1,0,0-11,.72-15.81,4.48,0,0,9.14.51,14.44,8.22,0,0,20.88-14.87,26.38-9,0,0,3.85,3.73-14.41,8.8a38.17,38.17,0,0,1-6,1.12,7.86,7.86,0,0,0-3.6,1.28c-2.36,1.64,10.63,3,12.08,9.86,0,0,15.2-15,17.39-11,0,0,3.31,4.46-9.2,10.89a7.65,7.65,0,0,0-2.24,1.74c-1.21,1.38-2.16,3.47,1.78,4.45a12.23,12.23,0,0,0,11.59-3.47c3-3.05,6-8.14,5.43-16.23a1.36,1.36,0,0,1,.39-1.06c.89-.77,32.92,49.18,38,65.78C167,924.6,146.29,866.63,132,856.29Z"/><path class="cls-5" d="M137.27,846.5s27.12-4.44,5.68-37.19c0,0,4.06,23.27-5.26,20.36,0,0,4.55-21.86-.14-27.12,0,0-9.61-12.45-10.42-4.93,0,0,7.73,21.76,2,25.9,0,0-1.4-24.7-9-29-.49-.29-1-.55-1.48-.87-2-1.31-7.91-4.47-14.08-1.08,0,0,27.82,37,10.73,20.89,0,0-8.33-8-10.37-13.48,0,0-4.23-9.5-19-3,0,0-4,1-5.55,2.73,0,0,23,10.09,19.87,18.79,0,0-.41,3.76-10.93-8.32,0,0-8.26-12.77-13.63-7.65,0,0-5.15,8.16-9.56,10,0,0-2.91.08,2.26,4.92,0,0,6.6,7.84,8.18,17.52,0,0,2.4,10.25,15.21,1.17,0,0,17.92-11.86,21.92-4.29,0,0,3.44,4.65-17.85,7.1,0,0-11,.72-15.81,4.48,0,0,9.14.51,14.44,8.22,0,0,20.88-14.87,26.38-9,0,0,3.85,3.73-14.41,8.8a38.05,38.05,0,0,1-6,1.12,7.82,7.82,0,0,0-3.6,1.28c-2.37,1.64,10.62,3,12.07,9.86,0,0,15.2-15,17.39-11,0,0,3.31,4.46-9.19,10.89a7.4,7.4,0,0,0-2.24,1.74c-1.21,1.38-2.17,3.47,1.77,4.45a12.23,12.23,0,0,0,11.59-3.47c3-3.05,6-8.14,5.44-16.23a1.3,1.3,0,0,1,.39-1.06c.88-.77,3.29-.24,8.4,16.36C142.6,865.39,151.56,856.84,137.27,846.5Z"/><path class="cls-6" d="M1106.16,347.77H759.9v631.8H785a13.81,13.81,0,1,0,21.07,0h255.74a14.12,14.12,0,0,0-3.24,9,13.79,13.79,0,1,0,27.58,0,14.12,14.12,0,0,0-3.24-9h23.27Zm-11,611.72H770.91V831.08h324.27Zm0-132.93H770.91V677.32h324.27Zm0-153.77H770.91V516.2h324.27Zm0-161.08H770.91V367.8h324.27Z"/><path class="cls-6" d="M964.63,874.72v20.47h7.53v70.7h86v-70.7h7.53V874.72Zm64,42.72H1000.4V905h28.23Z"/><path class="cls-6" d="M818.65,871.87v20.47h9.6V963H937.7v-70.7h9.59V871.87Zm81.5,42.72H864.2V902.15h35.95Z"/><path class="cls-7" d="M892.31,745H847.7l43.56,255.32a14,14,0,0,1,.21,2.56,15.35,15.35,0,0,1-30.49,2.59L816.54,745H341.3l-42.23,268.86a15.38,15.38,0,0,1-15.16,13,13.56,13.56,0,0,1-2.38-.19,15.4,15.4,0,0,1-12.79-17.54L310.21,745h-54.8V704.64h636.9Z"/><path class="cls-8" d="M867.69,580.59a1.5,1.5,0,0,1,1.83.56,1.63,1.63,0,0,1-.38,2.22A1.52,1.52,0,0,1,867,583a1.64,1.64,0,0,1,.39-2.22,2,2,0,0,1,.32-.18"/><path class="cls-8" d="M870.38,587.35a1.51,1.51,0,0,1,1.83.56,1.64,1.64,0,0,1-.39,2.23,1.51,1.51,0,0,1-2.15-.38,1.64,1.64,0,0,1,.39-2.23,2,2,0,0,1,.32-.18"/><path class="cls-8" d="M857.21,579.41c4.66-24,6.95-21.74,6.95-21.74,3,3.49-6.95,21.74-6.95,21.74"/><path class="cls-8" d="M869.28,588.43s-7.84-.4-11.62,8.81"/><path class="cls-8" d="M866.38,619.72c-2.74-19.23-15.7-34.49-31.17-45.35"/><path class="cls-8" d="M858.09,597.45s-7.64-14.37,3.25-25.22a31.62,31.62,0,0,1,5.77,17.82,23.67,23.67,0,0,1-1.91,8.4c-.71,1.76-1.51,5.3-1,11.85"/><path class="cls-8" d="M862.94,606.9s-6.17-17.14-1.6-34.67"/><path class="cls-8" d="M853.12,590.6a69.17,69.17,0,0,0-15.62-4.1s.93,4.51-6.39,2.72c0,0-2.2-.05-.22-3.87,0,0-.88-3.71,1.69-4,0,0,6.75-.12,4.89,4.88"/><path class="cls-8" d="M813.92,559.76c9.32,4.84,21.78,14.67,25.79,17.91l1.31,1.07"/><path class="cls-8" d="M826.38,567.56s-6.24-3.44-3.47-6.12C822.91,561.44,825.7,559.59,826.38,567.56Z"/><path class="cls-8" d="M827.13,568.22s-7,1.93-6.83-1.87C820.3,566.35,821.11,563.12,827.13,568.22Z"/><path class="cls-8" d="M849.39,586.06s-10-8.46-5.53-9.51C843.86,576.55,846.81,575.79,849.39,586.06Z"/><path class="cls-8" d="M834.53,573.77s-5.84-4-7.64-1.3C826.89,572.47,826,575.25,834.53,573.77Z"/><path class="cls-8" d="M841.92,579.91s-4.38-3.62-4.69-1.8C837.23,578.11,837,579.36,841.92,579.91Z"/><path class="cls-8" d="M835.66,574.7s-4.46-3.15-3.24-5.23C832.42,569.47,834.57,566.77,835.66,574.7Z"/><path class="cls-8" d="M876.52,574.11A142.28,142.28,0,0,0,863.65,620"/><path class="cls-8" d="M876.51,574.13c10.53-22,12.18-19.3,12.18-19.3,2.06,4.14-12.18,19.3-12.18,19.3"/><path class="cls-8" d="M876.62,574.07c18.46-5.68,15.17-7.5,15.17-7.5-4.09-1.21-14.23,6.71-15.18,7.46Z"/><path class="cls-8" d="M876.52,574.11c8.66-18.27,4.21-17.11,4.21-17.11-4.45,2.23-4.29,15.81-4.27,17.09Z"/><path class="cls-8" d="M866.32,603.32s5.06-16,18.75-23.27"/><path class="cls-8" d="M886.36,577.9a1.52,1.52,0,0,1,1.63,1,1.64,1.64,0,0,1-.93,2.06,1.51,1.51,0,0,1-2-.91,1.63,1.63,0,0,1,1.29-2.15"/><path class="cls-8" d="M887.26,585.12a1.51,1.51,0,0,1,1.63,1,1.64,1.64,0,0,1-.93,2.06,1.51,1.51,0,0,1-2-.91,1.63,1.63,0,0,1,1.29-2.15"/><path class="cls-8" d="M878.24,578.38a1.51,1.51,0,0,1,1.64,1,1.64,1.64,0,0,1-.94,2.06,1.52,1.52,0,0,1-2-.91,1.61,1.61,0,0,1,1.29-2.15"/><path class="cls-8" d="M877.63,581.29s.75,1.41-3.8,8.39"/><path class="cls-8" d="M885.93,585.89s-7.49-2.35-13.46,5.61"/><path class="cls-8" d="M866.84,620.39c1.61-19.46-7.73-37.29-20.54-51.33"/><path class="cls-8" d="M863.61,596.56s-4.34-15.68,8.66-23.91A31.7,31.7,0,0,1,874,591.3a23.58,23.58,0,0,1-3.69,7.78c-1.07,1.57-2.63,4.85-3.57,11.35"/><path class="cls-8" d="M866.29,606.84s-2.29-18.07,6-34.19"/><path class="cls-8" d="M860.25,588.79a69,69,0,0,0-14.35-7.39s-.08,4.61-6.83,1.27c0,0-2.14-.54.62-3.83,0,0-.05-3.82,2.51-3.49,0,0,6.62,1.35,3.71,5.83"/><path class="cls-8" d="M828.69,550.18c8,6.75,18.07,19,21.28,23.08l1,1.33"/><path class="cls-8" d="M839.16,560.5s-5.35-4.72-2.06-6.74C837.1,553.76,840.23,552.57,839.16,560.5Z"/><path class="cls-8" d="M839.75,561.3s-7.28.35-6.26-3.31C833.49,558,835,555,839.75,561.3Z"/><path class="cls-8" d="M857.59,583.55s-8-10.44-3.33-10.48C854.26,573.07,857.31,573,857.59,583.55Z"/><path class="cls-8" d="M845.76,568.32s-4.83-5.15-7.18-2.92C838.58,565.4,837.1,567.92,845.76,568.32Z"/><path class="cls-8" d="M851.64,575.93s-3.49-4.49-4.19-2.78C847.45,573.15,847,574.33,851.64,575.93Z"/><path class="cls-8" d="M846.66,569.48s-3.67-4.05-2-5.81C844.63,563.67,847.32,561.5,846.66,569.48Z"/><line class="cls-9" x1="403.61" y1="809.72" x2="554.56" y2="923.09"/><line class="cls-9" x1="525.77" y1="809.72" x2="374.65" y2="923.7"/><rect class="cls-7" x="426.86" y="457.09" width="310.31" height="210.41" rx="7.4"/><polygon class="cls-1" points="611.59 671.02 622.95 704.63 563.52 704.63 574.33 671.02 611.59 671.02"/><path class="cls-10" d="M372.23,597.43s15.51-76.93,81.22-73.49a154.93,154.93,0,0,0,16.41-.27c20.81-1.13,72.21,3.47,85.95,73.76,17.36,88.79,31.38,133.51,54.07,161.55,0,0,33.36,55.77-69.43,62.59l-2.72.16s-255,30.71-217.57-62.75C320.16,759,360.21,680.88,372.23,597.43Z"/><rect class="cls-10" x="369.64" y="798.2" width="10.01" height="251" rx="1.91" transform="matrix(0.97, 0.25, -0.25, 0.97, 245.56, -64.69)"/><rect class="cls-10" x="549.56" y="797.59" width="10.01" height="251" rx="1.91" transform="translate(-213.59 168.39) rotate(-14.51)"/><rect class="cls-6" x="933.04" y="581.63" width="143.3" height="20.47"/><path class="cls-6" d="M943.72,602.1v70.69h121.94V602.1Zm80.11,22.26H983.78V611.9h40.05Z"/><rect class="cls-11" x="1047.97" y="400.94" width="16.02" height="113.01"/><rect class="cls-11" x="1068.43" y="401.87" width="17.65" height="113.01"/><rect class="cls-11" x="1023.83" y="400.59" width="20.83" height="113.01"/><rect class="cls-11" x="996.45" y="400.92" width="16.02" height="114.91" transform="translate(139.77 -228.18) rotate(13.92)"/><rect class="cls-11" x="975.77" y="407.91" width="16.02" height="109.56" transform="translate(202.43 -293.21) rotate(18.86)"/><path class="cls-11" d="M970,430.67l-38.9,82.69,2.77,1.3a6.64,6.64,0,0,1,6.48,0,6.18,6.18,0,0,1,3.15-.82,6,6,0,0,1,4.33,1.66l36.67-78Z"/><path class="cls-11" d="M881.93,621a3.23,3.23,0,0,0-3.92-.48c-2,1.54-7.22-9.49-13.28-9.49s-11.24,11-13.28,9.49a3.24,3.24,0,0,0-3.93.48,31.49,31.49,0,0,0-10.39,23.71c0,16.77,12.36,30.37,27.6,30.37s27.59-13.6,27.59-30.37A31.45,31.45,0,0,0,881.93,621Z"/><path class="cls-8" d="M857.31,579.33c16.44-10.14,12.79-11.07,12.79-11.07-4.26-.15-12.09,10.07-12.82,11Z"/><path class="cls-8" d="M857.21,579.39c3.8-19.86-.22-17.61-.22-17.61-3.74,3.26-.17,16.37.17,17.6Z"/><rect class="cls-12" x="912.12" y="228.93" width="75.43" height="118.83"/><rect class="cls-6" x="925.48" y="243.62" width="48.73" height="96.13"/><path class="cls-6" d="M988.06,288.35l-.88.38a7.4,7.4,0,0,1-.37,2.65,7.45,7.45,0,0,1,0,3.45,7.32,7.32,0,0,1,.19,2.68l25.54,58.35,4.29-1.87Z"/><path class="cls-13" d="M965.2,270.16a15.36,15.36,0,1,1-15.36-15.36A15.33,15.33,0,0,1,965.2,270.16Z"/><path class="cls-14" d="M971.23,308.07a15.36,15.36,0,1,1-15.35-15.36A15.33,15.33,0,0,1,971.23,308.07Z"/><rect class="cls-15" x="637.75" y="154.7" width="182.55" height="145.06"/><circle class="cls-11" cx="734" cy="204.59" r="22.43"/><circle class="cls-1" cx="731.64" cy="264.29" r="20.67"/><path class="cls-16" d="M728.44,283.68s44.81-77-25.08-99.86"/><path class="cls-16" d="M726.32,196.16s-9.23-9.22-3.42-20.1a25.42,25.42,0,0,1,8.6,12.32,18.73,18.73,0,0,1,.5,6.89c-.12,1.51.08,4.41,2,9.32"/><path class="cls-16" d="M732.25,202.27s-8.74-11.69-9.35-26.21"/><path class="cls-16" d="M720.9,192.07a55.8,55.8,0,0,0-12.94.52s1.77,3.25-4.26,3.59c0,0-1.7.47-1.08-2.92,0,0-1.55-2.64.37-3.43,0,0,5.15-1.67,4.9,2.6"/><path class="cls-16" d="M683.61,177.61c8.28,1.53,20.14,6.15,24,7.69l1.25.51"/><path class="cls-16" d="M695,180.67s-5.6-1.17-4.11-3.88C690.89,176.79,692.61,174.72,695,180.67Z"/><path class="cls-16" d="M695.72,181s-4.93,3.12-5.67.16C690.05,181.16,689.91,178.5,695.72,181Z"/><path class="cls-16" d="M717,189.47s-9.69-4.14-6.48-6C710.5,183.47,712.59,182.2,717,189.47Z"/><path class="cls-16" d="M702.7,183.52s-5.42-1.69-6.17.8C696.53,184.32,696.5,186.66,702.7,183.52Z"/><path class="cls-16" d="M709.81,186.5s-4.21-1.75-4-.28C705.78,186.22,705.92,187.23,709.81,186.5Z"/><path class="cls-16" d="M703.78,184s-4.16-1.37-3.71-3.25C700.07,180.72,701.09,178.15,703.78,184Z"/><path class="cls-10" d="M229.93,881.76V899.7a5.84,5.84,0,0,1-3.44,5.33,42.79,42.79,0,0,1-9.48,2.91v66c0,4.85-4.3,8.78-9.61,8.78H115.34c-4.94,0-9-3.66-9-8.18v-67a35.92,35.92,0,0,1-10.2-4.33,6,6,0,0,1-2.72-5.08V882.89a3.56,3.56,0,0,1,3.88-3.54c16.37,1.52,81.56,6.82,129.84,0A2.41,2.41,0,0,1,229.93,881.76Z"/><path class="cls-4" d="M958,278.27s-3.36-13.21-17.26-.83c0,0,10.42-3.26,9.55,1.52,0,0-10.2-1.09-12.37,1.51,0,0-5.21,5.43-1.73,5.43,0,0,9.55-5,11.72-2.39,0,0-11.21,2-12.79,6-.11.26-.21.53-.33.78a7.4,7.4,0,0,0,.2,7s15.52-15.77,9-6.44c0,0-3.26,4.56-5.64,5.86,0,0-4.13,2.61-.44,9.55a6.81,6.81,0,0,0,1.52,2.61s3.48-11.94,7.6-10.85c0,0,1.74,0-3.26,5.86,0,0-5.42,4.77-2.82,7.16,0,0,4,2.11,5,4.2,0,0,.18,1.44,2.13-1.38a18.86,18.86,0,0,1,7.6-5s4.56-1.74-.22-7.6c0,0-6.29-8.25-3-10.63,0,0,2-2,4.13,8.46,0,0,.87,5.43,2.82,7.6a10.63,10.63,0,0,1,3-7.6s-7.81-9.55-5.43-12.59c0,0,1.52-2.1,4.73,6.67a21.17,21.17,0,0,1,.81,2.9,4.05,4.05,0,0,0,.76,1.72c.87,1.08.87-5.43,3.9-6.51,0,0-7.59-6.73-5.86-8,0,0,1.88-1.88,5.43,4a3.82,3.82,0,0,0,.9,1c.69.52,1.69.89,2-1.12a6.37,6.37,0,0,0-2.16-5.56,8.66,8.66,0,0,0-7.67-1.82.56.56,0,0,1-.5-.14c-.4-.4-.28-1.62,7.05-5C966.32,274.61,962,270.63,958,278.27Z"/><path class="cls-17" d="M953.23,276.18s-3.36-13.2-17.25-.83c0,0,10.41-3.26,9.55,1.52,0,0-10.2-1.09-12.38,1.52,0,0-5.2,5.42-1.73,5.42,0,0,9.55-5,11.72-2.39,0,0-11.2,2-12.79,6-.11.26-.2.53-.32.78a7.39,7.39,0,0,0,.19,7s15.52-15.77,9-6.44c0,0-3.25,4.56-5.64,5.86,0,0-4.12,2.61-.44,9.55a7,7,0,0,0,1.52,2.61s3.48-11.94,7.6-10.85c0,0,1.74,0-3.25,5.86,0,0-5.43,4.77-2.83,7.16,0,0,4,2.11,5,4.2,0,0,.18,1.44,2.14-1.38a18.78,18.78,0,0,1,7.59-5s4.56-1.74-.21-7.6c0,0-6.3-8.25-3-10.63,0,0,1.95-2,4.12,8.46,0,0,.87,5.43,2.82,7.6a10.68,10.68,0,0,1,3-7.6s-7.81-9.55-5.43-12.59c0,0,1.52-2.1,4.73,6.67a21.17,21.17,0,0,1,.81,2.9,4.05,4.05,0,0,0,.76,1.72c.87,1.08.87-5.43,3.91-6.51,0,0-7.6-6.73-5.86-8,0,0,1.87-1.88,5.42,4a3.82,3.82,0,0,0,.9,1c.7.52,1.7.89,2-1.12a6.37,6.37,0,0,0-2.16-5.56A8.65,8.65,0,0,0,955,277.7a.57.57,0,0,1-.5-.14c-.4-.4-.28-1.62,7.05-5C961.59,272.53,957.25,268.54,953.23,276.18Z"/></g></g></svg>