<svg xmlns="http://www.w3.org/2000/svg" viewBox="0 0 1046.02 892.77"><defs><style>.cls-1,.cls-5{fill:#dbbca8;}.cls-11,.cls-14,.cls-16,.cls-17,.cls-2,.cls-4,.cls-7{fill:none;}.cls-2,.cls-4,.cls-7{stroke:#353434;}.cls-11,.cls-14,.cls-16,.cls-17,.cls-2,.cls-4,.cls-7,.cls-8,.cls-9{stroke-miterlimit:10;}.cls-2{stroke-width:2px;}.cls-3,.cls-9{fill:#edd9ca;}.cls-4{stroke-width:0.75px;}.cls-5{opacity:0.71;}.cls-6{fill:#ceb4a3;}.cls-13,.cls-8{fill:#726a67;}.cls-17,.cls-8{stroke:#f6e7db;}.cls-11,.cls-8{stroke-width:2.61px;}.cls-11,.cls-14,.cls-9{stroke:#dbbca8;}.cls-9{stroke-width:8px;}.cls-10{fill:#f6e7db;}.cls-12{fill:#efeeed;}.cls-13{opacity:0.48;}.cls-14{stroke-width:3px;}.cls-15{fill:#f2d7c9;}.cls-16{stroke:#1d1d1b;stroke-width:0.51px;}.cls-17{stroke-width:0.65px;}</style></defs><g id="Calque_2" data-name="Calque 2"><g id="Calque_6" data-name="Calque 6"><path class="cls-1" d="M1046,194.57H699.76v631.8h25.08a13.81,13.81,0,1,0,21.07,0h255.74a14.13,14.13,0,0,0-3.24,9,13.79,13.79,0,1,0,27.58,0,14.13,14.13,0,0,0-3.24-9H1046Zm-11,611.72H710.77V677.89H1035Zm0-132.93H710.77V524.12H1035Zm0-153.76H710.77V363H1035Zm0-161.09H939.36l26.56-107.18-15.55-3.85-3,12.22,1.59.54-6.27,18.36-19.81,79.91h-7.49l27.3-79.91,4.68-18.9-13.57-4.64-9.91,29,.5.24-2.12,4.5-23.81,69.71h-9l32.79-69.71,1.62-4.74-14-6.59-38.12,81h-161V214.6H1035Z"/></g><g id="Calque_8" data-name="Calque 8"><rect class="cls-2" x="609.99" y="733.29" width="44.56" height="44.56"/><circle class="cls-2" cx="631.86" cy="755.37" r="14.52"/><path class="cls-2" d="M584.29,566.79s58.56,34.88,57.26,98.17c-.11,5.68-.26,11.36-.14,17a285.68,285.68,0,0,1-9,76.32"/><path class="cls-3" d="M120.47,665s39.93,17.65,39.88-44.52c0,0-14.82,34.46-24.69,22.5,0,0,25-25.12,23.38-36.19,0,0-2-24.9-9.57-15.6,0,0-8.63,35.64-19.81,36.19,0,0,19.6-34,13.26-46.35-.42-.81-.86-1.6-1.22-2.44-1.54-3.49-6.65-12.81-17.79-13.68,0,0,4.86,73.39-3.88,37.11,0,0-4.1-17.92-2.08-26.94,0,0,2.62-16.3-22.59-20.45,0,0-6.25-2.2-9.76-1.19,0,0,21.82,33.4,10.11,42.25,0,0-3.81,4.65-7.32-20.55,0,0,.13-24.17-11.47-22,0,0-13.94,6.38-21.39,5,0,0-3.94-2.42-1.27,8.51,0,0,2,16.17-4.35,30.41,0,0-5.71,15.71,19.21,14.76,0,0,34.14-.19,32.89,13.35,0,0,.53,9.17-29.92-6.06,0,0-15.28-8.63-24.91-7.79,0,0,11.71,8.63,12.07,23.48,0,0,40.67-1.63,42.93,10.9,0,0,1.87,8.31-26.81-.82a61.14,61.14,0,0,1-8.92-3.7,12.81,12.81,0,0,0-5.9-1.43C56,639.85,72,653,68,663.32c0,0,33.25-6.75,32.65.53,0,0,.52,8.81-21.69,6.5a12,12,0,0,0-4.49.36c-2.81.79-5.9,2.73-1.51,7.47a19.42,19.42,0,0,0,18.43,5.44c6.69-1.41,15-5.62,21.32-16.85a2.08,2.08,0,0,1,1.45-1.07c1.84-.26,1,94-6.59,120.52C107.61,786.22,130.5,691.17,120.47,665Z"/><path class="cls-4" d="M136,656.57s39.93,17.65,39.88-44.52c0,0-14.82,34.47-24.69,22.5,0,0,25-25.12,23.38-36.19,0,0-2-24.9-9.57-15.6,0,0-8.63,35.64-19.81,36.19,0,0,19.6-34.05,13.25-46.35-.41-.81-.85-1.6-1.21-2.43-1.54-3.5-6.65-12.82-17.79-13.68,0,0,4.85,73.38-3.88,37.1,0,0-4.1-17.92-2.08-26.94,0,0,2.62-16.3-22.6-20.44,0,0-6.24-2.21-9.75-1.2,0,0,21.82,33.41,10.11,42.25,0,0-3.81,4.65-7.32-20.55,0,0,.13-24.16-11.47-22,0,0-13.94,6.38-21.39,5,0,0-4-2.43-1.27,8.5,0,0,2,16.17-4.35,30.42,0,0-5.71,15.71,19.21,14.76,0,0,34.14-.2,32.89,13.34,0,0,.53,9.17-29.92-6.05,0,0-15.28-8.64-24.91-7.79,0,0,11.71,8.62,12.07,23.47,0,0,40.67-1.63,42.93,10.9,0,0,1.87,8.31-26.82-.81a62.63,62.63,0,0,1-8.91-3.7,12.56,12.56,0,0,0-5.9-1.43c-4.58.13,11.48,13.28,7.49,23.6,0,0,33.25-6.74,32.65.53,0,0,.51,8.82-21.69,6.5a11.81,11.81,0,0,0-4.49.37c-2.81.78-5.9,2.73-1.51,7.46A19.44,19.44,0,0,0,107,675.19c6.69-1.42,15-5.63,21.32-16.85a2.05,2.05,0,0,1,1.44-1.07c1.85-.27,4.59,2.53-3,29C126.67,686.31,146,682.74,136,656.57Z"/><path class="cls-5" d="M149.16,701.13s-29.6,6.48-18.58-33.16c0,0,3.73,23.75,12.39,17.3,0,0-12.17-19-9.11-25.88,0,0,5.7-15.64,9.11-8.8,0,0-.58,23.76,6.74,25.45,0,0-7-24.06-.6-31.14.42-.47.85-.92,1.24-1.41,1.64-2,6.67-7.38,14.22-6.6,0,0-16.19,46.22-4,24.13,0,0,5.89-10.93,6.14-16.93,0,0,1.15-10.71,18.6-10.33,0,0,4.54-.66,6.68.41,0,0-20.37,18.68-14.16,25.73,0,0,1.7,3.42,8.48-12.23,0,0,4.19-15.43,11.5-12.67,0,0,8.12,5.74,13.31,5.74,0,0,3-1.08-.66,5.57,0,0-4.16,10.08-2.49,19.92,0,0,1,10.7-15.35,7.11,0,0-22.61-4.21-24.17,4.57,0,0-2,5.79,20.91-.28,0,0,11.66-3.67,17.9-2,0,0-9.29,4.1-12.15,13.53,0,0-26.7-5.91-30.41,1.8,0,0-2.71,5.08,17.93,2.7a47.38,47.38,0,0,0,6.57-1.29,9.2,9.2,0,0,1,4.17-.21c3,.63-10,7.1-9.15,14.16,0,0-20.86-8.29-21.75-3.57,0,0-1.89,5.55,13.25,6.74a8.15,8.15,0,0,1,2.91.77c1.73.84,3.43,2.45-.32,4.94a14.24,14.24,0,0,1-13.19,1.27c-4.18-1.71-9-5.39-11.16-13.3a1.23,1.23,0,0,0-.77-.86c-1.18-.39-17.31,59.82-16.93,77.65C136.27,780,137.88,716.62,149.16,701.13Z"/><path class="cls-4" d="M140.36,693.89s-29.61,6.48-18.59-33.16c0,0,3.74,23.75,12.4,17.3,0,0-12.17-19-9.11-25.88,0,0,5.7-15.64,9.11-8.8,0,0-.58,23.76,6.74,25.45,0,0-7-24.06-.6-31.14.42-.47.85-.92,1.24-1.41,1.63-2,6.67-7.38,14.21-6.6,0,0-16.19,46.22-4,24.13,0,0,5.89-10.93,6.14-16.93,0,0,1.14-10.71,18.6-10.33,0,0,4.53-.66,6.68.41,0,0-20.38,18.68-14.17,25.73,0,0,1.71,3.42,8.48-12.23,0,0,4.19-15.43,11.51-12.67,0,0,8.12,5.74,13.31,5.74,0,0,3-1.08-.66,5.57,0,0-4.16,10.08-2.5,19.92,0,0,1,10.7-15.35,7.11,0,0-22.6-4.21-24.17,4.57,0,0-2,5.79,20.92-.28,0,0,11.66-3.67,17.9-2,0,0-9.29,4.1-12.15,13.53,0,0-26.7-5.91-30.41,1.8,0,0-2.71,5.08,17.93,2.7a47.38,47.38,0,0,0,6.57-1.29,9.16,9.16,0,0,1,4.16-.21c3,.63-10,7.1-9.14,14.16,0,0-20.86-8.29-21.75-3.57,0,0-1.9,5.55,13.24,6.74a8.21,8.21,0,0,1,2.92.77c1.72.84,3.43,2.45-.32,4.94a14.24,14.24,0,0,1-13.19,1.27c-4.18-1.71-9-5.39-11.17-13.3a1.22,1.22,0,0,0-.76-.86c-1.18-.39-3.5,1.06-3.12,18.89C141.28,714,129.08,709.38,140.36,693.89Z"/><path class="cls-5" d="M71.85,703.1s27.12-4.45,5.69-37.19c0,0,4.06,23.26-5.26,20.35,0,0,4.55-21.86-.14-27.12,0,0-9.61-12.45-10.42-4.93,0,0,7.73,21.76,2,25.9,0,0-1.39-24.69-9-29-.5-.28-1-.55-1.48-.87-2-1.31-7.91-4.46-14.09-1.08,0,0,27.83,37,10.74,20.89,0,0-8.34-8-10.38-13.48,0,0-4.23-9.49-18.94-3,0,0-4.05,1-5.56,2.73,0,0,23,10.09,19.88,18.79,0,0-.41,3.76-10.93-8.31,0,0-8.26-12.78-13.63-7.66,0,0-5.15,8.17-9.56,10,0,0-2.92.08,2.26,4.92,0,0,6.6,7.84,8.18,17.52,0,0,2.4,10.25,15.2,1.17,0,0,17.93-11.86,21.93-4.29,0,0,3.44,4.65-17.85,7.11,0,0-11,.71-15.81,4.47,0,0,9.14.51,14.44,8.22,0,0,20.88-14.87,26.38-9,0,0,3.85,3.74-14.41,8.8a38.17,38.17,0,0,1-6,1.12,8,8,0,0,0-3.59,1.28c-2.37,1.65,10.62,3.05,12.07,9.86,0,0,15.2-15,17.39-11,0,0,3.31,4.47-9.2,10.89a7.65,7.65,0,0,0-2.24,1.74c-1.21,1.38-2.16,3.47,1.78,4.45A12.21,12.21,0,0,0,63,722.91c3-3,6-8.14,5.43-16.22a1.34,1.34,0,0,1,.39-1.06c.89-.78,32.92,49.18,38,65.78C106.81,771.41,86.15,713.44,71.85,703.1Z"/><path class="cls-4" d="M77.13,693.31s27.12-4.45,5.68-37.19c0,0,4.06,23.26-5.26,20.35,0,0,4.55-21.86-.14-27.12,0,0-9.6-12.45-10.42-4.93,0,0,7.73,21.76,2,25.9,0,0-1.4-24.69-9-29-.49-.28-1-.55-1.48-.87-2-1.31-7.91-4.46-14.08-1.08,0,0,27.83,37,10.73,20.89,0,0-8.33-8-10.37-13.48,0,0-4.23-9.49-19-3,0,0-4.05,1-5.55,2.73,0,0,23,10.09,19.87,18.79,0,0-.4,3.76-10.93-8.31,0,0-8.26-12.78-13.63-7.66,0,0-5.15,8.17-9.56,10,0,0-2.91.08,2.26,4.92,0,0,6.6,7.84,8.18,17.52,0,0,2.4,10.25,15.21,1.17,0,0,17.92-11.86,21.92-4.29,0,0,3.44,4.65-17.85,7.11,0,0-11,.71-15.81,4.47,0,0,9.14.51,14.44,8.22,0,0,20.88-14.87,26.38-9,0,0,3.85,3.74-14.41,8.8a38.05,38.05,0,0,1-6,1.12,8.06,8.06,0,0,0-3.6,1.28c-2.37,1.65,10.62,3,12.08,9.86,0,0,15.19-15,17.38-11,0,0,3.31,4.47-9.19,10.89a7.52,7.52,0,0,0-2.24,1.74c-1.21,1.38-2.17,3.47,1.77,4.45a12.21,12.21,0,0,0,11.59-3.47c3-3,6-8.14,5.44-16.22a1.27,1.27,0,0,1,.39-1.06c.88-.78,3.29-.25,8.4,16.35C82.46,712.19,91.42,703.65,77.13,693.31Z"/></g><g id="Calque_4" data-name="Calque 4"><path class="cls-1" d="M904.49,721.52V742H912v70.7h86V742h7.53V721.52Zm64,42.73H940.26V751.8H968.5Z"/><path class="cls-1" d="M758.51,718.67v20.48h9.6v70.7H877.56v-70.7h9.59V718.67ZM840,761.4h-36V749h36Z"/></g><g id="bureau"><path class="cls-6" d="M832.17,591.76H787.56l43.56,255.32a14,14,0,0,1,.21,2.56,15.35,15.35,0,0,1-30.48,2.59L756.4,591.76H281.16L238.93,860.62a15.38,15.38,0,0,1-15.16,13,14.67,14.67,0,0,1-2.38-.18,15.41,15.41,0,0,1-12.79-17.55l41.47-264.1h-54.8V551.44h636.9Z"/></g><g id="plante"><path class="cls-7" d="M807.55,427.39a1.51,1.51,0,0,1,1.83.56,1.64,1.64,0,0,1-.38,2.23,1.52,1.52,0,0,1-2.16-.38,1.65,1.65,0,0,1,.39-2.23,2,2,0,0,1,.32-.18"/><path class="cls-7" d="M810.24,434.15a1.53,1.53,0,0,1,1.83.56,1.64,1.64,0,0,1-.39,2.23,1.51,1.51,0,0,1-2.15-.38,1.64,1.64,0,0,1,.39-2.23,2,2,0,0,1,.32-.18"/><path class="cls-7" d="M797.07,426.21c4.66-24,6.95-21.74,6.95-21.74,3,3.5-6.95,21.74-6.95,21.74"/><path class="cls-7" d="M809.15,435.23s-7.85-.4-11.63,8.82"/><path class="cls-7" d="M806.24,466.52c-2.74-19.22-15.7-34.49-31.16-45.35"/><path class="cls-7" d="M798,444.25s-7.64-14.37,3.25-25.22A31.67,31.67,0,0,1,807,436.86a23.66,23.66,0,0,1-1.91,8.39c-.7,1.76-1.51,5.3-1,11.85"/><path class="cls-7" d="M802.8,453.7s-6.16-17.13-1.6-34.67"/><path class="cls-7" d="M793,437.4a69.17,69.17,0,0,0-15.62-4.1s.93,4.52-6.39,2.73c0,0-2.2-.06-.22-3.87,0,0-.88-3.72,1.69-4,0,0,6.75-.12,4.89,4.89"/><path class="cls-7" d="M753.78,406.57c9.32,4.84,21.78,14.66,25.79,17.9l1.31,1.07"/><path class="cls-7" d="M766.24,414.36s-6.24-3.43-3.47-6.12C762.77,408.24,765.56,406.39,766.24,414.36Z"/><path class="cls-7" d="M767,415s-7,1.93-6.82-1.87C760.17,413.15,761,409.92,767,415Z"/><path class="cls-7" d="M789.25,432.86s-10-8.46-5.53-9.51C783.72,423.35,786.67,422.59,789.25,432.86Z"/><path class="cls-7" d="M774.39,420.57s-5.84-4-7.64-1.3C766.75,419.27,765.85,422.05,774.39,420.57Z"/><path class="cls-7" d="M781.78,426.72s-4.38-3.63-4.69-1.8C777.09,424.92,776.89,426.16,781.78,426.72Z"/><path class="cls-7" d="M775.52,421.5s-4.46-3.15-3.24-5.23C772.28,416.27,774.43,413.57,775.52,421.5Z"/><path class="cls-7" d="M816.38,420.91a142.33,142.33,0,0,0-12.87,45.92"/><path class="cls-7" d="M816.37,420.93c10.53-22.05,12.18-19.3,12.18-19.3,2.06,4.15-12.18,19.3-12.18,19.3"/><path class="cls-7" d="M816.48,420.88c18.46-5.69,15.17-7.51,15.17-7.51-4.09-1.21-14.23,6.72-15.18,7.47Z"/><path class="cls-7" d="M816.38,420.91c8.66-18.27,4.21-17.1,4.21-17.1-4.45,2.22-4.29,15.81-4.27,17.08Z"/><path class="cls-7" d="M806.18,450.12s5.06-16,18.75-23.27"/><path class="cls-7" d="M826.22,424.7a1.52,1.52,0,0,1,1.63,1,1.63,1.63,0,0,1-.93,2.05,1.51,1.51,0,0,1-2-.91,1.63,1.63,0,0,1,1.29-2.15"/><path class="cls-7" d="M827.12,431.93a1.5,1.5,0,0,1,1.63,1,1.63,1.63,0,0,1-.93,2.05,1.51,1.51,0,0,1-2-.9,1.64,1.64,0,0,1,.93-2.06,1.19,1.19,0,0,1,.36-.09"/><path class="cls-7" d="M818.11,425.18a1.51,1.51,0,0,1,1.63,1,1.64,1.64,0,0,1-.94,2.06,1.5,1.5,0,0,1-2-.91,1.63,1.63,0,0,1,.93-2.06l.36-.09"/><path class="cls-7" d="M817.49,428.09s.76,1.41-3.8,8.39"/><path class="cls-7" d="M825.79,432.69s-7.49-2.35-13.46,5.62"/><path class="cls-7" d="M806.7,467.19c1.61-19.46-7.72-37.29-20.54-51.33"/><path class="cls-7" d="M803.48,443.36s-4.35-15.68,8.65-23.91a31.74,31.74,0,0,1,1.75,18.66,23.68,23.68,0,0,1-3.69,7.78c-1.07,1.56-2.63,4.84-3.56,11.34"/><path class="cls-7" d="M806.15,453.64s-2.29-18.06,6-34.19"/><path class="cls-7" d="M800.11,435.59a69.53,69.53,0,0,0-14.35-7.39s-.08,4.61-6.83,1.27c0,0-2.14-.53.62-3.82,0,0,0-3.83,2.51-3.5,0,0,6.62,1.35,3.71,5.83"/><path class="cls-7" d="M768.55,397c8.05,6.75,18.07,19,21.28,23.09l1,1.32"/><path class="cls-7" d="M779,407.3s-5.35-4.71-2.06-6.74C777,400.56,780.09,399.37,779,407.3Z"/><path class="cls-7" d="M779.61,408.1s-7.28.36-6.26-3.31C773.35,404.79,774.83,401.82,779.61,408.1Z"/><path class="cls-7" d="M797.45,430.36s-8-10.45-3.33-10.49C794.12,419.87,797.17,419.77,797.45,430.36Z"/><path class="cls-7" d="M785.62,415.13s-4.83-5.16-7.18-2.93C778.44,412.2,777,414.72,785.62,415.13Z"/><path class="cls-7" d="M791.5,422.73s-3.48-4.49-4.19-2.77C787.31,420,786.84,421.13,791.5,422.73Z"/><path class="cls-7" d="M786.52,416.28s-3.67-4-2-5.81C784.49,410.47,787.18,408.31,786.52,416.28Z"/></g><g id="Calque_2-2" data-name="Calque 2"><line class="cls-8" x1="343.47" y1="656.52" x2="494.43" y2="769.89"/><line class="cls-8" x1="465.63" y1="656.52" x2="314.51" y2="770.5"/><rect class="cls-9" x="366.72" y="303.89" width="310.31" height="210.41" rx="7.4"/><polygon class="cls-1" points="550.87 517.82 562.81 551.43 500.35 551.43 511.71 517.82 550.87 517.82"/><path class="cls-10" d="M312.09,444.23s15.51-76.93,81.22-73.49a154.93,154.93,0,0,0,16.41-.26c20.82-1.14,72.21,3.46,85.95,73.75C513,533,527.05,577.75,549.74,605.78c0,0,33.36,55.77-69.43,62.59l-2.72.17S222.64,699.24,260,605.78C260,605.78,300.08,527.68,312.09,444.23Z"/><rect class="cls-10" x="309.5" y="645" width="10.01" height="251" rx="1.91" transform="matrix(0.97, 0.25, -0.25, 0.97, 204.9, -54.47)"/><rect class="cls-10" x="489.42" y="644.39" width="10.01" height="251" rx="1.91" transform="translate(-177.12 148.43) rotate(-14.51)"/><rect class="cls-1" x="872.9" y="428.43" width="143.3" height="20.47"/><path class="cls-1" d="M883.58,448.91v70.68h121.94V448.91Zm80.11,22.25H923.64V458.7h40.05Z"/><rect class="cls-1" x="987.83" y="247.75" width="16.02" height="113.01"/><rect class="cls-1" x="1008.29" y="248.67" width="17.65" height="113.01"/><rect class="cls-1" x="963.69" y="247.39" width="20.83" height="113.01"/><polygon class="cls-1" points="948.93 260.24 942.66 278.6 947.34 259.7 948.93 260.24"/><polygon class="cls-1" points="924.36 284.3 922.24 288.8 923.86 284.06 924.36 284.3"/><polygon class="cls-1" points="948.93 260.24 942.66 278.6 947.34 259.7 948.93 260.24"/><polygon class="cls-1" points="924.36 284.3 922.24 288.8 923.86 284.06 924.36 284.3"/><path class="cls-10" d="M821.8,467.77a3.25,3.25,0,0,0-3.93-.48c-2,1.54-7.22-9.48-13.28-9.48s-11.23,11-13.28,9.48a3.24,3.24,0,0,0-3.93.48A31.49,31.49,0,0,0,777,491.48c0,16.77,12.35,30.37,27.59,30.37s27.59-13.6,27.59-30.37A31.49,31.49,0,0,0,821.8,467.77Z"/><path class="cls-7" d="M797.17,426.13C813.61,416,810,415.06,810,415.06c-4.26-.15-12.09,10.07-12.81,11Z"/><path class="cls-7" d="M797.07,426.19c3.8-19.86-.21-17.61-.21-17.61-3.75,3.27-.18,16.38.16,17.6Z"/><rect class="cls-11" x="851.98" y="75.74" width="75.43" height="118.83"/><rect class="cls-1" x="865.34" y="90.42" width="48.73" height="96.13"/><path class="cls-1" d="M927.92,135.15l-.88.39a7.34,7.34,0,0,1-.37,2.64,7.45,7.45,0,0,1,0,3.45,7.55,7.55,0,0,1,.2,2.68l25.53,58.36,4.29-1.88Z"/><path class="cls-12" d="M905.06,117a15.36,15.36,0,1,1-15.36-15.35A15.32,15.32,0,0,1,905.06,117Z"/><path class="cls-13" d="M911.09,154.87a15.36,15.36,0,1,1-15.35-15.35A15.34,15.34,0,0,1,911.09,154.87Z"/><rect class="cls-14" x="577.62" y="1.5" width="182.55" height="145.06"/><circle class="cls-15" cx="677.03" cy="56" r="22.43"/><circle class="cls-3" cx="667.35" cy="111.09" r="20.67"/><path class="cls-16" d="M668.3,130.48s44.81-77-25.08-99.86"/><path class="cls-16" d="M666.18,43s-9.23-9.22-3.42-20.1a25.42,25.42,0,0,1,8.6,12.32,18.76,18.76,0,0,1,.5,6.89c-.12,1.51.09,4.42,2,9.33"/><path class="cls-16" d="M672.11,49.08s-8.74-11.7-9.35-26.22"/><path class="cls-16" d="M660.76,38.88a55.44,55.44,0,0,0-12.94.51s1.77,3.25-4.26,3.59c0,0-1.7.47-1.08-2.92,0,0-1.55-2.64.37-3.42,0,0,5.15-1.68,4.9,2.6"/><path class="cls-16" d="M623.47,24.41c8.28,1.53,20.14,6.15,24,7.69l1.25.52"/><path class="cls-16" d="M634.86,27.47s-5.6-1.17-4.11-3.88C630.75,23.59,632.47,21.52,634.86,27.47Z"/><path class="cls-16" d="M635.58,27.8s-4.93,3.13-5.67.17C629.91,28,629.77,25.3,635.58,27.8Z"/><path class="cls-16" d="M656.84,36.27s-9.69-4.14-6.48-6C650.36,30.28,652.45,29,656.84,36.27Z"/><path class="cls-16" d="M642.56,30.32s-5.42-1.68-6.17.8C636.39,31.12,636.36,33.46,642.56,30.32Z"/><path class="cls-16" d="M649.67,33.31s-4.21-1.76-4-.28C645.64,33,645.78,34,649.67,33.31Z"/><path class="cls-16" d="M643.64,30.77s-4.16-1.37-3.71-3.25C639.93,27.52,641,25,643.64,30.77Z"/><path class="cls-1" d="M169.79,728.56V746.5a5.83,5.83,0,0,1-3.44,5.33,42.72,42.72,0,0,1-9.48,2.92v66c0,4.85-4.3,8.78-9.61,8.78H55.2c-4.94,0-9-3.66-9-8.18v-67A35.92,35.92,0,0,1,36,750.06,6,6,0,0,1,33.32,745v-15.3a3.56,3.56,0,0,1,3.87-3.54c16.37,1.52,81.56,6.83,129.84,0A2.41,2.41,0,0,1,169.79,728.56Z"/><path class="cls-5" d="M897.82,125.07s-3.36-13.2-17.25-.83c0,0,10.41-3.26,9.55,1.52,0,0-10.21-1.09-12.38,1.52,0,0-5.21,5.42-1.73,5.42,0,0,9.55-5,11.72-2.38,0,0-11.21,2-12.79,6-.11.26-.21.53-.32.78a7.37,7.37,0,0,0,.19,7s15.52-15.77,9-6.43c0,0-3.25,4.55-5.64,5.86,0,0-4.13,2.6-.44,9.55a6.79,6.79,0,0,0,1.52,2.6s3.48-11.94,7.6-10.85c0,0,1.74,0-3.26,5.86,0,0-5.42,4.77-2.82,7.16,0,0,4,2.12,5,4.21,0,0,.18,1.43,2.13-1.39a18.86,18.86,0,0,1,7.6-5s4.56-1.74-.22-7.6c0,0-6.29-8.24-3-10.63,0,0,2-1.95,4.12,8.46,0,0,.87,5.43,2.82,7.6a10.63,10.63,0,0,1,3-7.6s-7.81-9.55-5.43-12.59c0,0,1.52-2.1,4.73,6.68a20.41,20.41,0,0,1,.81,2.9,4.07,4.07,0,0,0,.76,1.71c.87,1.09.87-5.43,3.9-6.51,0,0-7.59-6.73-5.86-8,0,0,1.88-1.88,5.43,4a3.82,3.82,0,0,0,.9,1c.69.53,1.69.89,2-1.12a6.34,6.34,0,0,0-2.16-5.55,8.66,8.66,0,0,0-7.67-1.83.57.57,0,0,1-.5-.14c-.4-.39-.28-1.61,7-5C906.18,121.42,901.84,117.43,897.82,125.07Z"/><path class="cls-17" d="M893.09,123s-3.36-13.2-17.25-.83c0,0,10.42-3.26,9.55,1.52,0,0-10.2-1.09-12.37,1.52,0,0-5.21,5.42-1.74,5.42,0,0,9.55-5,11.72-2.38,0,0-11.2,2-12.79,6-.11.27-.2.53-.32.78a7.37,7.37,0,0,0,.2,7s15.51-15.77,9-6.43c0,0-3.25,4.55-5.64,5.86,0,0-4.12,2.6-.43,9.55a6.87,6.87,0,0,0,1.51,2.6s3.48-11.94,7.6-10.85c0,0,1.74,0-3.25,5.86,0,0-5.43,4.77-2.83,7.16,0,0,4,2.12,5,4.21,0,0,.18,1.43,2.14-1.39a18.78,18.78,0,0,1,7.59-5s4.56-1.74-.21-7.6c0,0-6.3-8.24-3-10.63,0,0,2-1.95,4.12,8.46,0,0,.87,5.43,2.82,7.6a10.68,10.68,0,0,1,3-7.6s-7.81-9.55-5.42-12.59c0,0,1.51-2.1,4.72,6.68a20.41,20.41,0,0,1,.81,2.9,4.2,4.2,0,0,0,.76,1.71c.87,1.09.87-5.42,3.91-6.51,0,0-7.6-6.73-5.86-8,0,0,1.87-1.88,5.42,4a3.82,3.82,0,0,0,.9,1c.7.53,1.7.89,2-1.12a6.34,6.34,0,0,0-2.16-5.55,8.65,8.65,0,0,0-7.67-1.83.54.54,0,0,1-.5-.14c-.4-.39-.28-1.61,7.05-5C901.45,119.33,897.11,115.34,893.09,123Z"/></g></g></svg>