<svg xmlns="http://www.w3.org/2000/svg" viewBox="0 0 1240.94 1203.66"><defs><style>.cls-1,.cls-5,.cls-7{fill:#dbbca8;}.cls-1{opacity:0.23;}.cls-14,.cls-17,.cls-18,.cls-19,.cls-2,.cls-4,.cls-6,.cls-9{fill:none;}.cls-2{stroke:#edbfa6;}.cls-10,.cls-11,.cls-14,.cls-17,.cls-18,.cls-19,.cls-2,.cls-4,.cls-6,.cls-9{stroke-miterlimit:10;}.cls-10,.cls-14,.cls-2{stroke-width:2.61px;}.cls-3{fill:#edd9ca;}.cls-10,.cls-17,.cls-19,.cls-4{stroke:#f6e7db;}.cls-4,.cls-6{stroke-width:1.31px;}.cls-5{opacity:0.71;}.cls-11,.cls-6{stroke:#edd9ca;}.cls-8{fill:#ceb4a3;}.cls-9{stroke:#bcab8a;stroke-width:0.63px;}.cls-10,.cls-16{fill:#726a67;}.cls-11{fill:#f7f5f0;stroke-width:7.15px;opacity:0.82;}.cls-12{fill:#f6e7db;}.cls-13{fill:#f2d7c9;}.cls-14{stroke:#dbbca8;}.cls-15{fill:#efeeed;}.cls-16{opacity:0.48;}.cls-17{stroke-width:5.23px;}.cls-18{stroke:#1d1d1b;stroke-width:0.51px;}.cls-19{stroke-width:0.65px;}</style></defs><g id="Calque_2" data-name="Calque 2"><g id="Calque_1-2" data-name="Calque 1"><path class="cls-1" d="M596.36,0a433.39,433.39,0,0,0-79.31,111.65C448.12,251.79,335.17,432,175.78,533.86,82.3,593.61,19,685.71,4.13,789.26c-19.68,137.39,22.53,296.82,313.33,316.48a1311.88,1311.88,0,0,1,262,45.24c180.08,49.94,492.13,105.36,661.44-44.88L1236.85,0Z"/><rect class="cls-2" x="670.13" y="887" width="44.56" height="44.56"/><circle class="cls-2" cx="691.99" cy="909.08" r="14.52"/><path class="cls-2" d="M644.43,720.5s58.56,34.87,57.26,98.17c-.12,5.68-.26,11.36-.14,17a285.72,285.72,0,0,1-9,76.32"/><path class="cls-3" d="M180.61,818.71s39.93,17.66,39.88-44.51c0,0-14.82,34.46-24.69,22.49,0,0,25-25.11,23.38-36.18,0,0-2-24.9-9.57-15.61,0,0-8.63,35.65-19.81,36.2,0,0,19.6-34.05,13.25-46.35-.41-.81-.85-1.6-1.21-2.44-1.54-3.49-6.65-12.81-17.79-13.68,0,0,4.86,73.39-3.88,37.11,0,0-4.1-17.92-2.08-26.94,0,0,2.62-16.3-22.6-20.45,0,0-6.24-2.2-9.75-1.19,0,0,21.82,33.4,10.11,42.25,0,0-3.81,4.65-7.32-20.55,0,0,.13-24.17-11.47-22,0,0-13.94,6.38-21.39,5,0,0-4-2.42-1.27,8.51,0,0,2,16.16-4.35,30.41,0,0-5.71,15.71,19.21,14.76,0,0,34.14-.19,32.89,13.35,0,0,.53,9.17-29.92-6.06,0,0-15.28-8.63-24.91-7.79,0,0,11.71,8.63,12.07,23.48,0,0,40.67-1.63,42.93,10.89,0,0,1.87,8.32-26.81-.81a61.14,61.14,0,0,1-8.92-3.7,12.68,12.68,0,0,0-5.9-1.43c-4.58.13,11.48,13.28,7.49,23.61,0,0,33.25-6.75,32.65.53,0,0,.52,8.81-21.69,6.49a12.23,12.23,0,0,0-4.49.37c-2.81.79-5.9,2.73-1.51,7.46a19.42,19.42,0,0,0,18.43,5.45c6.69-1.42,15-5.62,21.32-16.85a2.08,2.08,0,0,1,1.44-1.07c1.85-.26,1,94-6.58,120.51C167.75,939.92,190.64,844.88,180.61,818.71Z"/><path class="cls-4" d="M196.13,810.28s39.93,17.65,39.87-44.52c0,0-14.81,34.46-24.68,22.5,0,0,25-25.12,23.38-36.19,0,0-2-24.9-9.57-15.6,0,0-8.63,35.64-19.81,36.19,0,0,19.6-34,13.25-46.35-.41-.81-.85-1.6-1.22-2.43-1.53-3.5-6.64-12.82-17.78-13.69,0,0,4.85,73.39-3.88,37.11,0,0-4.1-17.92-2.08-26.94,0,0,2.62-16.3-22.6-20.45,0,0-6.24-2.2-9.75-1.19,0,0,21.82,33.4,10.1,42.25,0,0-3.8,4.65-7.31-20.55,0,0,.12-24.17-11.47-22,0,0-13.94,6.39-21.39,5,0,0-4-2.42-1.27,8.51,0,0,2,16.17-4.35,30.42,0,0-5.71,15.7,19.21,14.76,0,0,34.14-.2,32.88,13.34,0,0,.54,9.17-29.91-6.06,0,0-15.28-8.63-24.91-7.78,0,0,11.71,8.62,12.06,23.47,0,0,40.68-1.63,42.94,10.9,0,0,1.87,8.31-26.82-.81a62.68,62.68,0,0,1-8.91-3.71,12.81,12.81,0,0,0-5.9-1.43c-4.58.14,11.48,13.29,7.49,23.61,0,0,33.25-6.75,32.65.53,0,0,.51,8.81-21.69,6.5a12,12,0,0,0-4.49.36c-2.81.79-5.9,2.74-1.51,7.47a19.44,19.44,0,0,0,18.43,5.45c6.69-1.42,15-5.63,21.32-16.86a2.08,2.08,0,0,1,1.44-1.07c1.85-.26,4.59,2.53-3,29C186.81,840,206.16,836.44,196.13,810.28Z"/><path class="cls-5" d="M209.3,854.84s-29.61,6.48-18.58-33.16c0,0,3.73,23.75,12.39,17.3,0,0-12.17-19-9.11-25.88,0,0,5.7-15.64,9.11-8.8,0,0-.58,23.76,6.74,25.45,0,0-7-24.06-.6-31.15.42-.46.85-.91,1.24-1.4,1.63-2.05,6.67-7.38,14.22-6.6,0,0-16.19,46.22-4,24.13,0,0,5.89-10.93,6.14-16.93,0,0,1.14-10.71,18.6-10.33,0,0,4.53-.66,6.68.4,0,0-20.37,18.69-14.17,25.74,0,0,1.71,3.42,8.49-12.23,0,0,4.19-15.43,11.5-12.67,0,0,8.12,5.74,13.31,5.73,0,0,3-1.07-.66,5.58,0,0-4.16,10.08-2.49,19.92,0,0,1,10.7-15.35,7.11,0,0-22.61-4.21-24.17,4.57,0,0-2,5.79,20.91-.28,0,0,11.66-3.67,17.9-2,0,0-9.29,4.1-12.15,13.53,0,0-26.7-5.92-30.41,1.8,0,0-2.71,5.08,17.93,2.7a47.41,47.41,0,0,0,6.57-1.3,9.17,9.17,0,0,1,4.16-.2c3,.63-10,7.09-9.14,14.16,0,0-20.86-8.29-21.75-3.58,0,0-1.89,5.56,13.25,6.75a8,8,0,0,1,2.91.77c1.72.84,3.43,2.45-.32,4.94a14.21,14.21,0,0,1-13.19,1.26c-4.18-1.7-9-5.38-11.16-13.3a1.24,1.24,0,0,0-.77-.85c-1.18-.39-17.31,59.82-16.93,77.64C196.41,933.68,198,870.33,209.3,854.84Z"/><path class="cls-6" d="M200.49,847.6s-29.6,6.48-18.58-33.16c0,0,3.74,23.75,12.4,17.3,0,0-12.17-19-9.11-25.88,0,0,5.7-15.64,9.11-8.8,0,0-.58,23.76,6.74,25.45,0,0-7-24.06-.6-31.15.42-.46.84-.91,1.24-1.4,1.63-2.05,6.67-7.38,14.21-6.6,0,0-16.19,46.22-4,24.13,0,0,5.89-10.93,6.14-16.93,0,0,1.14-10.71,18.6-10.33,0,0,4.53-.66,6.68.4,0,0-20.38,18.69-14.17,25.74,0,0,1.71,3.42,8.48-12.23,0,0,4.19-15.43,11.51-12.67,0,0,8.11,5.74,13.31,5.73,0,0,3-1.07-.66,5.58,0,0-4.16,10.08-2.5,19.92,0,0,1,10.7-15.35,7.11,0,0-22.61-4.21-24.17,4.57,0,0-2,5.79,20.91-.28,0,0,11.67-3.67,17.91-2,0,0-9.3,4.1-12.16,13.53,0,0-26.69-5.92-30.4,1.8,0,0-2.71,5.08,17.93,2.7a46,46,0,0,0,6.57-1.3,9.16,9.16,0,0,1,4.16-.2c3,.63-10,7.09-9.14,14.16,0,0-20.86-8.29-21.75-3.58,0,0-1.9,5.56,13.24,6.75a8,8,0,0,1,2.92.77c1.72.84,3.43,2.45-.32,4.94A14.22,14.22,0,0,1,216.47,863c-4.18-1.7-9-5.38-11.17-13.3a1.21,1.21,0,0,0-.76-.85c-1.18-.39-3.5,1.06-3.12,18.88C201.42,867.68,189.22,863.09,200.49,847.6Z"/><path class="cls-5" d="M132,856.81s27.12-4.45,5.69-37.19c0,0,4.06,23.26-5.26,20.35,0,0,4.55-21.86-.14-27.12,0,0-9.61-12.45-10.42-4.93,0,0,7.73,21.76,2,25.9,0,0-1.39-24.7-9-29-.5-.29-1-.55-1.48-.87-2-1.31-7.92-4.47-14.09-1.08,0,0,27.83,37,10.74,20.89,0,0-8.34-8-10.38-13.48,0,0-4.23-9.5-19-3,0,0-4,1-5.55,2.73,0,0,23,10.09,19.88,18.79,0,0-.41,3.76-10.93-8.32,0,0-8.26-12.77-13.63-7.65,0,0-5.15,8.16-9.56,10,0,0-2.92.08,2.26,4.92,0,0,6.6,7.84,8.18,17.52,0,0,2.4,10.25,15.2,1.17,0,0,17.93-11.86,21.93-4.29,0,0,3.44,4.65-17.85,7.11,0,0-11,.71-15.81,4.47,0,0,9.14.51,14.44,8.22,0,0,20.88-14.87,26.38-9,0,0,3.85,3.74-14.41,8.8a38.17,38.17,0,0,1-6,1.12,7.86,7.86,0,0,0-3.6,1.28c-2.36,1.64,10.63,3,12.08,9.86,0,0,15.2-15,17.39-11,0,0,3.31,4.47-9.2,10.89a7.65,7.65,0,0,0-2.24,1.74c-1.21,1.38-2.16,3.47,1.78,4.45a12.23,12.23,0,0,0,11.59-3.47c3-3,6-8.14,5.43-16.22a1.37,1.37,0,0,1,.39-1.07c.89-.77,32.92,49.19,38,65.79C167,925.12,146.29,867.15,132,856.81Z"/><path class="cls-6" d="M137.27,847s27.12-4.45,5.68-37.19c0,0,4.06,23.26-5.26,20.35,0,0,4.55-21.86-.14-27.12,0,0-9.61-12.45-10.42-4.93,0,0,7.73,21.76,2,25.9,0,0-1.4-24.7-9-29-.49-.29-1-.55-1.48-.87-2-1.31-7.91-4.47-14.08-1.08,0,0,27.82,37,10.73,20.89,0,0-8.33-8-10.37-13.48,0,0-4.23-9.5-19-3,0,0-4,1-5.55,2.73,0,0,23,10.09,19.87,18.79,0,0-.41,3.76-10.93-8.32,0,0-8.26-12.77-13.63-7.65,0,0-5.15,8.16-9.56,10,0,0-2.91.08,2.26,4.92,0,0,6.6,7.84,8.18,17.52,0,0,2.4,10.25,15.21,1.17,0,0,17.92-11.86,21.92-4.29,0,0,3.44,4.65-17.85,7.11,0,0-11,.71-15.81,4.47,0,0,9.14.51,14.44,8.22,0,0,20.88-14.87,26.38-9,0,0,3.85,3.74-14.41,8.8a38.05,38.05,0,0,1-6,1.12,7.82,7.82,0,0,0-3.6,1.28c-2.37,1.64,10.62,3,12.07,9.86,0,0,15.2-15,17.39-11,0,0,3.31,4.47-9.19,10.89a7.4,7.4,0,0,0-2.24,1.74c-1.21,1.38-2.17,3.47,1.77,4.45a12.23,12.23,0,0,0,11.59-3.47c3-3.05,6-8.14,5.44-16.22a1.31,1.31,0,0,1,.39-1.07c.88-.77,3.29-.24,8.4,16.36C142.6,865.9,151.56,857.36,137.27,847Z"/><path class="cls-7" d="M1106.16,348.28H759.9v631.8H785a13.81,13.81,0,1,0,21.07,0h255.74a14.12,14.12,0,0,0-3.24,9,13.79,13.79,0,1,0,27.58,0,14.12,14.12,0,0,0-3.24-9h23.27Zm-11,611.72H770.91V831.59h324.27Zm0-132.93H770.91V677.83h324.27Zm0-153.77H770.91V516.71h324.27Zm0-161.08H770.91V368.31h324.27Z"/><path class="cls-7" d="M964.63,875.23V895.7h7.53v70.7h86V895.7h7.53V875.23Zm64,42.72H1000.4V905.51h28.23Z"/><path class="cls-7" d="M818.65,872.38v20.47h9.6v70.7H937.7v-70.7h9.59V872.38Zm81.5,42.72H864.2V902.66h35.95Z"/><path class="cls-8" d="M892.31,745.47H847.7l43.56,255.32a14,14,0,0,1,.21,2.56,15.35,15.35,0,0,1-30.49,2.59L816.54,745.47H341.3l-42.23,268.86a15.38,15.38,0,0,1-15.16,13,14.59,14.59,0,0,1-2.38-.18,15.41,15.41,0,0,1-12.79-17.55l41.47-264.1h-54.8V705.15h636.9Z"/><path class="cls-9" d="M867.69,581.1a1.5,1.5,0,0,1,1.83.56,1.63,1.63,0,0,1-.38,2.22,1.52,1.52,0,0,1-2.16-.37,1.65,1.65,0,0,1,.39-2.23,2,2,0,0,1,.32-.18"/><path class="cls-9" d="M870.38,587.86a1.51,1.51,0,0,1,1.83.56,1.64,1.64,0,0,1-.39,2.23,1.51,1.51,0,0,1-2.15-.38,1.64,1.64,0,0,1,.39-2.23,2,2,0,0,1,.32-.18"/><path class="cls-9" d="M857.21,579.92c4.66-24,6.95-21.74,6.95-21.74,3,3.49-6.95,21.74-6.95,21.74"/><path class="cls-9" d="M869.28,588.94s-7.84-.4-11.62,8.81"/><path class="cls-9" d="M866.38,620.23c-2.74-19.23-15.7-34.49-31.17-45.35"/><path class="cls-9" d="M858.09,598s-7.64-14.37,3.25-25.22a31.66,31.66,0,0,1,5.77,17.82,23.67,23.67,0,0,1-1.91,8.4c-.71,1.76-1.51,5.3-1,11.85"/><path class="cls-9" d="M862.94,607.41s-6.17-17.14-1.6-34.67"/><path class="cls-9" d="M853.12,591.11A69.17,69.17,0,0,0,837.5,587s.93,4.52-6.39,2.72c0,0-2.2-.05-.22-3.86,0,0-.88-3.72,1.69-4,0,0,6.75-.12,4.89,4.88"/><path class="cls-9" d="M813.92,560.27c9.32,4.84,21.78,14.67,25.79,17.91l1.31,1.07"/><path class="cls-9" d="M826.38,568.07s-6.24-3.44-3.47-6.12C822.91,562,825.7,560.1,826.38,568.07Z"/><path class="cls-9" d="M827.13,568.73s-7,1.93-6.83-1.87C820.3,566.86,821.11,563.63,827.13,568.73Z"/><path class="cls-9" d="M849.39,586.57s-10-8.46-5.53-9.51C843.86,577.06,846.81,576.3,849.39,586.57Z"/><path class="cls-9" d="M834.53,574.28s-5.84-4-7.64-1.3C826.89,573,826,575.76,834.53,574.28Z"/><path class="cls-9" d="M841.92,580.42s-4.38-3.62-4.69-1.79C837.23,578.63,837,579.87,841.92,580.42Z"/><path class="cls-9" d="M835.66,575.21s-4.46-3.15-3.24-5.23C832.42,570,834.57,567.28,835.66,575.21Z"/><path class="cls-9" d="M876.52,574.62a142.35,142.35,0,0,0-12.87,45.91"/><path class="cls-9" d="M876.51,574.64c10.53-22,12.18-19.3,12.18-19.3,2.06,4.14-12.18,19.3-12.18,19.3"/><path class="cls-9" d="M876.62,574.58c18.46-5.68,15.17-7.5,15.17-7.5-4.09-1.21-14.23,6.72-15.18,7.46Z"/><path class="cls-9" d="M876.52,574.62c8.66-18.27,4.21-17.1,4.21-17.1-4.45,2.22-4.29,15.8-4.27,17.08Z"/><path class="cls-9" d="M866.32,603.83s5.06-16,18.75-23.27"/><path class="cls-9" d="M886.36,578.41a1.52,1.52,0,0,1,1.63,1,1.64,1.64,0,0,1-.93,2.06,1.51,1.51,0,0,1-2-.91,1.63,1.63,0,0,1,1.29-2.15"/><path class="cls-9" d="M887.26,585.63a1.52,1.52,0,0,1,1.63,1,1.64,1.64,0,0,1-.93,2.06,1.51,1.51,0,0,1-2-.91,1.63,1.63,0,0,1,1.29-2.15"/><path class="cls-9" d="M878.24,578.89a1.51,1.51,0,0,1,1.64,1,1.64,1.64,0,0,1-.94,2.06,1.52,1.52,0,0,1-2-.91,1.64,1.64,0,0,1,.94-2.06l.35-.09"/><path class="cls-9" d="M877.63,581.8s.75,1.41-3.8,8.39"/><path class="cls-9" d="M885.93,586.4s-7.49-2.35-13.46,5.61"/><path class="cls-9" d="M866.84,620.9c1.61-19.46-7.73-37.29-20.54-51.33"/><path class="cls-9" d="M863.61,597.07s-4.34-15.68,8.66-23.91A31.7,31.7,0,0,1,874,591.81a23.58,23.58,0,0,1-3.69,7.78c-1.07,1.57-2.63,4.85-3.57,11.35"/><path class="cls-9" d="M866.29,607.35s-2.29-18.07,6-34.19"/><path class="cls-9" d="M860.25,589.3a69,69,0,0,0-14.35-7.39s-.08,4.61-6.83,1.27c0,0-2.14-.54.62-3.83,0,0-.05-3.82,2.51-3.49,0,0,6.62,1.35,3.71,5.83"/><path class="cls-9" d="M828.69,550.69c8,6.75,18.07,19,21.28,23.08l1,1.33"/><path class="cls-9" d="M839.16,561s-5.35-4.72-2.06-6.74C837.1,554.27,840.23,553.08,839.16,561Z"/><path class="cls-9" d="M839.75,561.81s-7.28.35-6.26-3.31C833.49,558.5,835,555.53,839.75,561.81Z"/><path class="cls-9" d="M857.59,584.06s-8-10.44-3.33-10.48C854.26,573.58,857.31,573.48,857.59,584.06Z"/><path class="cls-9" d="M845.76,568.84s-4.83-5.16-7.18-2.93C838.58,565.91,837.1,568.43,845.76,568.84Z"/><path class="cls-9" d="M851.64,576.44s-3.49-4.49-4.19-2.78C847.45,573.66,847,574.84,851.64,576.44Z"/><path class="cls-9" d="M846.66,570s-3.67-4-2-5.81C844.63,564.18,847.32,562,846.66,570Z"/><line class="cls-10" x1="403.61" y1="810.23" x2="554.56" y2="923.6"/><line class="cls-10" x1="525.77" y1="810.23" x2="374.65" y2="924.21"/><rect class="cls-11" x="426.86" y="457.6" width="310.31" height="210.41" rx="7.4"/><polygon class="cls-3" points="611.59 671.53 622.95 705.14 563.52 705.14 574.33 671.53 611.59 671.53"/><path class="cls-12" d="M372.23,597.94s15.51-76.93,81.22-73.49a154.93,154.93,0,0,0,16.41-.27c20.81-1.13,72.21,3.47,85.95,73.76,17.36,88.79,31.38,133.51,54.07,161.55,0,0,33.36,55.77-69.43,62.59l-2.72.16s-255,30.71-217.57-62.75C320.16,759.49,360.21,681.39,372.23,597.94Z"/><rect class="cls-12" x="369.64" y="798.71" width="10.01" height="251" rx="1.91" transform="matrix(0.97, 0.25, -0.25, 0.97, 245.69, -64.68)"/><rect class="cls-12" x="549.56" y="798.1" width="10.01" height="251" rx="1.91" transform="translate(-213.72 168.4) rotate(-14.51)"/><rect class="cls-7" x="933.04" y="582.14" width="143.3" height="20.47"/><path class="cls-7" d="M943.72,602.61V673.3h121.94V602.61Zm80.11,22.26H983.78V612.41h40.05Z"/><rect class="cls-13" x="1047.97" y="401.46" width="16.02" height="113.01"/><rect class="cls-13" x="1068.43" y="402.38" width="17.65" height="113.01"/><rect class="cls-13" x="1023.83" y="401.1" width="20.83" height="113.01"/><rect class="cls-13" x="996.45" y="401.43" width="16.02" height="114.91" transform="translate(139.89 -228.17) rotate(13.92)"/><rect class="cls-13" x="975.77" y="408.42" width="16.02" height="109.56" transform="translate(202.59 -293.19) rotate(18.86)"/><path class="cls-13" d="M970,431.18l-38.9,82.69,2.77,1.31a6.26,6.26,0,0,1,3.29-.88,6.34,6.34,0,0,1,3.19.82,6.18,6.18,0,0,1,3.15-.82,6,6,0,0,1,4.33,1.66l36.67-78Z"/><path class="cls-13" d="M881.93,621.48A3.23,3.23,0,0,0,878,621c-2,1.54-7.22-9.48-13.28-9.48s-11.24,11-13.28,9.48a3.24,3.24,0,0,0-3.93.48,31.49,31.49,0,0,0-10.39,23.71c0,16.77,12.36,30.37,27.6,30.37s27.59-13.6,27.59-30.37A31.45,31.45,0,0,0,881.93,621.48Z"/><path class="cls-9" d="M857.31,579.84c16.44-10.14,12.79-11.07,12.79-11.07-4.26-.15-12.09,10.07-12.82,11Z"/><path class="cls-9" d="M857.21,579.9C861,560,857,562.29,857,562.29c-3.74,3.26-.17,16.37.17,17.6Z"/><rect class="cls-14" x="912.12" y="229.45" width="75.43" height="118.83"/><rect class="cls-7" x="925.48" y="244.13" width="48.73" height="96.13"/><path class="cls-7" d="M988.06,288.86l-.88.39a7.38,7.38,0,0,1-.37,2.64,7.45,7.45,0,0,1,0,3.45A7.32,7.32,0,0,1,987,298l25.54,58.35,4.29-1.87Z"/><path class="cls-15" d="M965.2,270.67a15.36,15.36,0,1,1-15.36-15.36A15.33,15.33,0,0,1,965.2,270.67Z"/><path class="cls-16" d="M971.23,308.58a15.36,15.36,0,1,1-15.35-15.35A15.32,15.32,0,0,1,971.23,308.58Z"/><rect class="cls-17" x="637.75" y="155.21" width="182.55" height="145.06"/><circle class="cls-13" cx="734" cy="205.11" r="22.43"/><circle class="cls-3" cx="731.64" cy="264.8" r="20.67"/><path class="cls-18" d="M728.44,284.19s44.81-77-25.08-99.86"/><path class="cls-18" d="M726.32,196.67s-9.23-9.22-3.42-20.1a25.42,25.42,0,0,1,8.6,12.32,18.73,18.73,0,0,1,.5,6.89c-.12,1.51.08,4.42,2,9.33"/><path class="cls-18" d="M732.25,202.78s-8.74-11.69-9.35-26.21"/><path class="cls-18" d="M720.9,192.58a55.8,55.8,0,0,0-12.94.52s1.77,3.25-4.26,3.59c0,0-1.7.47-1.08-2.92,0,0-1.55-2.64.37-3.43,0,0,5.15-1.67,4.9,2.6"/><path class="cls-18" d="M683.61,178.12c8.28,1.53,20.14,6.15,24,7.69l1.25.51"/><path class="cls-18" d="M695,181.18s-5.6-1.17-4.11-3.88C690.89,177.3,692.61,175.23,695,181.18Z"/><path class="cls-18" d="M695.72,181.51s-4.93,3.12-5.67.17C690.05,181.68,689.91,179,695.72,181.51Z"/><path class="cls-18" d="M717,190s-9.69-4.14-6.48-6C710.5,184,712.59,182.71,717,190Z"/><path class="cls-18" d="M702.7,184s-5.42-1.68-6.17.8C696.53,184.83,696.5,187.17,702.7,184Z"/><path class="cls-18" d="M709.81,187s-4.21-1.75-4-.27C705.78,186.74,705.92,187.74,709.81,187Z"/><path class="cls-18" d="M703.78,184.48s-4.16-1.37-3.71-3.25C700.07,181.23,701.09,178.66,703.78,184.48Z"/><path class="cls-12" d="M229.93,882.27v17.94a5.84,5.84,0,0,1-3.44,5.33,42.79,42.79,0,0,1-9.48,2.91v66c0,4.85-4.3,8.78-9.61,8.78H115.34c-4.94,0-9-3.66-9-8.18v-67a35.92,35.92,0,0,1-10.2-4.33,6,6,0,0,1-2.72-5.08V883.4a3.56,3.56,0,0,1,3.88-3.54c16.37,1.52,81.56,6.82,129.84,0A2.41,2.41,0,0,1,229.93,882.27Z"/><path class="cls-5" d="M958,278.78s-3.36-13.2-17.26-.83c0,0,10.42-3.26,9.55,1.52,0,0-10.2-1.09-12.37,1.52,0,0-5.21,5.42-1.73,5.42,0,0,9.55-5,11.72-2.39,0,0-11.21,2-12.79,6-.11.26-.21.53-.33.78a7.4,7.4,0,0,0,.2,7s15.52-15.77,9-6.44c0,0-3.26,4.56-5.64,5.86,0,0-4.13,2.61-.44,9.55a6.81,6.81,0,0,0,1.52,2.61s3.48-11.94,7.6-10.85c0,0,1.74,0-3.26,5.86,0,0-5.42,4.77-2.82,7.16,0,0,4,2.11,5,4.2,0,0,.18,1.44,2.13-1.38a18.86,18.86,0,0,1,7.6-5s4.56-1.74-.22-7.6c0,0-6.29-8.25-3-10.63,0,0,2-2,4.13,8.46,0,0,.87,5.43,2.82,7.6a10.63,10.63,0,0,1,3-7.6s-7.81-9.55-5.43-12.59c0,0,1.52-2.1,4.73,6.67a21.17,21.17,0,0,1,.81,2.9,4.05,4.05,0,0,0,.76,1.72c.87,1.08.87-5.43,3.9-6.51,0,0-7.59-6.73-5.86-8,0,0,1.88-1.88,5.43,4a3.82,3.82,0,0,0,.9,1c.69.52,1.69.89,2-1.12a6.37,6.37,0,0,0-2.16-5.56,8.66,8.66,0,0,0-7.67-1.82.56.56,0,0,1-.5-.14c-.4-.4-.28-1.62,7.05-5C966.32,275.13,962,271.14,958,278.78Z"/><path class="cls-19" d="M953.23,276.69s-3.36-13.2-17.25-.83c0,0,10.41-3.26,9.55,1.52,0,0-10.2-1.09-12.38,1.52,0,0-5.2,5.42-1.73,5.42,0,0,9.55-5,11.72-2.39,0,0-11.2,2-12.79,6-.11.26-.2.53-.32.78a7.39,7.39,0,0,0,.19,7s15.52-15.77,9-6.44c0,0-3.25,4.56-5.64,5.86,0,0-4.12,2.61-.44,9.55a7,7,0,0,0,1.52,2.61s3.48-11.94,7.6-10.85c0,0,1.74,0-3.25,5.86,0,0-5.43,4.77-2.83,7.16,0,0,4,2.11,5,4.2,0,0,.18,1.44,2.14-1.38a18.78,18.78,0,0,1,7.59-5s4.56-1.74-.21-7.6c0,0-6.3-8.25-3-10.63,0,0,1.95-2,4.12,8.46,0,0,.87,5.43,2.82,7.6a10.68,10.68,0,0,1,3-7.6S949.87,288,952.25,285c0,0,1.52-2.1,4.73,6.67a21.17,21.17,0,0,1,.81,2.9,4.05,4.05,0,0,0,.76,1.72c.87,1.08.87-5.43,3.91-6.51,0,0-7.6-6.73-5.86-8,0,0,1.87-1.88,5.42,4a3.82,3.82,0,0,0,.9,1c.7.52,1.7.89,2-1.12a6.34,6.34,0,0,0-2.16-5.55,8.62,8.62,0,0,0-7.67-1.83.57.57,0,0,1-.5-.14c-.4-.39-.28-1.62,7.05-5C961.59,273,957.25,269.05,953.23,276.69Z"/></g></g></svg>