<svg xmlns="http://www.w3.org/2000/svg" viewBox="0 0 425.26 537.59"><defs><style>.cls-1{fill:#dbbca8;opacity:0.45;}.cls-2{fill:none;stroke:#000;stroke-miterlimit:10;stroke-width:0.5px;}</style></defs><g id="Calque_2" data-name="Calque 2"><g id="Calque_1-2" data-name="Calque 1"><path class="cls-1" d="M275.09,31.67C204.78,26.94,116,60.55,12.94,212.05c-19.38,28.48-16.07,92.18,3.79,117.17,52.34,65.85,149.15,155.72,272.66,175.89,75.78,12.38,145.27-59.6,131.53-134.45C409,305.9,394,218,383,132.94,375.76,77.37,331.71,35.47,275.09,31.67Z"/><path class="cls-2" d="M61.26,67.34s-4-70,108-67c0,0,82-6.3,116,99.93,6.6,20.63-5,42.93-25.74,49-.7.2-1.41.4-2.14.59a32.87,32.87,0,0,1-22.53-2.49c-5.88-2.84-14.56-4.76-23.56,1.26,0,0-13.12,9.11-37.55.61a7.9,7.9,0,0,0-6.28.44,5.83,5.83,0,0,0-3.07,3.18s-2.3-28.54,29-30.73a52,52,0,0,1,31.5,8.31,35.26,35.26,0,0,1,6.33,4.95,9.16,9.16,0,0,0,12.95.17c2.74-2.65,5.85-7.05,9.13-14.22,0,0,7.69-9.83-16.15-30.41l-.9-1a37.86,37.86,0,0,0-28.59-12.14c-25.22.55-68.65,7-69.36,44.53,0,0-4,51,15,73,0,0,13,18,4,26,0,0-9,8-16,4,0,0-3.81-.19,4-8,2-2-11-8-18-3a14.88,14.88,0,0,0-4.74,7.66,4.67,4.67,0,0,1-4,3.62,5,5,0,0,1-4.31-1.28s-5-9-9-7c0,0,0,2.36,2.79,5.68a1.48,1.48,0,0,1-1.16,2.45c-1.63-.13-4.13-1.63-7.63-7.13,0,0-6-8,6-30,0,0,17-33,10-62,0,0-5.72-31.47-54.42-31.08a5.36,5.36,0,0,0-5,3.53c-2.93,8.09-8.6,29.13,2.4,49.55,0,0,13-26,45-9,0,0,10,5,9,16,0,0,0,1.59-2.69.92a15.59,15.59,0,0,0-9.68.71,48.34,48.34,0,0,1-13.63,3.37s-17,2-21-8c0,0-24,18-5,64l23,55s.47,3,7.74,0a10.59,10.59,0,0,1,9.74,1.66c2,1.55,4,4.13,5.52,8.34,0,0,7,27,59,5,0,0,12-4,18-15,0,0-30-16-33-19,0,0-20-15-32,0,0,0-10-12-15,1,0,0-1.24,6.81-1.76,13.12A7.59,7.59,0,0,1,97,272.79c-4.9,2.11-11.78,6.78-7.73,15.55l21.54,41.21c.71,1.37,1.33,2.77,1.93,4.19,2.12,5,13,21.42,62.53,8.6,0,0,53.46-9.86,93.45-34.07a82.46,82.46,0,0,0,38.68-82c0-.3-.08-.6-.13-.9a89.59,89.59,0,0,1,6.49-49.66,84.61,84.61,0,0,1,41.51-42.38s29-8,21,34c0,0-10,48-50,59,0,0-20,4-15-19,0,0,0-9,12-10,0,0,9,0,2-12,0,0-9-4-1-14,0,0,23-33,40-24,0,0,13.67,11.85,1,34.67-1,1.73-1.81,3.53-2.62,5.33-1.51,3.34-6.57,10.24-23.53,15.95a49,49,0,0,1-8.57,2c-4.29.63-14.2,8.49-1.28,73.1,0,0,12.79,93.88,48.4,141.44,0,0,82.6,139.56,29.6,114.56,0,0-50-25-107-79,0,0-115.7-105-193.35,82"/></g></g></svg>