<svg xmlns="http://www.w3.org/2000/svg" xmlns:xlink="http://www.w3.org/1999/xlink" viewBox="0 0 784.88 766.69"><defs><style>.cls-1{opacity:0.37;fill:url(#Dégradé_sans_nom_11);}.cls-12,.cls-15,.cls-16,.cls-2,.cls-4,.cls-5,.cls-8{fill:none;}.cls-2{stroke:#edbfa6;}.cls-12,.cls-15,.cls-16,.cls-2,.cls-4,.cls-5,.cls-8,.cls-9{stroke-miterlimit:10;}.cls-12,.cls-2{stroke-width:1.77px;}.cls-3{fill:#557570;}.cls-15,.cls-4{stroke:#f6e7db;}.cls-4,.cls-5{stroke-width:0.88px;}.cls-5,.cls-9{stroke:#edd9ca;}.cls-18,.cls-6{fill:#dbbca8;}.cls-7{fill:#ceb4a3;}.cls-8{stroke:#557570;stroke-width:0.68px;}.cls-9{fill:#f7f5f0;stroke-width:4.83px;opacity:0.82;}.cls-10{fill:#edd9ca;}.cls-11{fill:#f2d7c9;}.cls-12{stroke:#dbbca8;}.cls-13{fill:#efeeed;}.cls-14{fill:#726a67;opacity:0.48;}.cls-15{stroke-width:3.53px;}.cls-16{stroke:#1d1d1b;stroke-width:0.34px;}.cls-17{fill:#f6e7db;}.cls-18{opacity:0.71;}</style><linearGradient id="Dégradé_sans_nom_11" y1="383.35" x2="784.88" y2="383.35" gradientUnits="userSpaceOnUse"><stop offset="0" stop-color="#f7d2b9"/><stop offset="1" stop-color="#ce7e5d"/><stop offset="1"/></linearGradient></defs><g id="Calque_2" data-name="Calque 2"><g id="Calque_6" data-name="Calque 6"><path class="cls-1" d="M365.71,0a287.22,287.22,0,0,0-16.4,29c-46.57,94.68-122.87,216.41-230.55,285.24-63.16,40.36-106,102.59-116,172.54C-10.5,579.55,18,687.26,214.47,700.54a886.53,886.53,0,0,1,177,30.56c104.55,29,274.93,60.72,393.38,4.66L784,0Z"/></g><g id="Calque_8" data-name="Calque 8"><rect class="cls-2" x="452.73" y="552.76" width="30.1" height="30.1"/><circle class="cls-2" cx="467.5" cy="567.68" r="9.81"/><path class="cls-2" d="M435.36,440.27s39.56,23.57,38.69,66.32c-.08,3.84-.18,7.68-.1,11.52a192.5,192.5,0,0,1-6.12,51.56"/><path class="cls-3" d="M122,506.63s27,11.92,26.94-30.08c0,0-10,23.29-16.68,15.2,0,0,16.92-17,15.79-24.45,0,0-1.32-16.82-6.46-10.54,0,0-5.83,24.08-13.39,24.45,0,0,13.25-23,9-31.31-.28-.54-.58-1.08-.82-1.64-1-2.37-4.49-8.66-12-9.25,0,0,3.28,49.58-2.62,25.07,0,0-2.77-12.1-1.41-18.2,0,0,1.77-11-15.26-13.81,0,0-4.22-1.49-6.59-.81,0,0,14.74,22.57,6.83,28.55,0,0-2.58,3.14-4.94-13.89,0,0,.08-16.32-7.76-14.87,0,0-9.41,4.31-14.45,3.36,0,0-2.66-1.64-.85,5.74,0,0,1.32,10.92-2.94,20.55,0,0-3.86,10.61,13,10,0,0,23.06-.13,22.21,9,0,0,.36,6.19-20.21-4.09,0,0-10.32-5.84-16.83-5.27,0,0,7.91,5.83,8.15,15.86,0,0,27.49-1.1,29,7.36,0,0,1.26,5.62-18.12-.54a44.11,44.11,0,0,1-6-2.5,8.47,8.47,0,0,0-4-1c-3.1.09,7.75,9,5.06,15.95,0,0,22.46-4.56,22.05.36,0,0,.35,5.95-14.65,4.38a8.21,8.21,0,0,0-3,.25c-1.9.53-4,1.85-1,5a13.13,13.13,0,0,0,12.45,3.69c4.51-1,10.14-3.81,14.4-11.39a1.38,1.38,0,0,1,1-.72c1.25-.18.7,63.5-4.45,81.41C113.33,588.51,128.79,524.31,122,506.63Z"/><path class="cls-4" d="M132.5,500.93s27,11.92,26.94-30.08c0,0-10,23.29-16.68,15.2,0,0,16.92-17,15.8-24.45,0,0-1.33-16.82-6.47-10.54,0,0-5.83,24.08-13.38,24.45,0,0,13.24-23,8.95-31.31-.28-.54-.57-1.08-.82-1.64-1-2.37-4.49-8.66-12-9.25,0,0,3.28,49.58-2.62,25.07,0,0-2.77-12.1-1.4-18.2,0,0,1.77-11-15.27-13.81,0,0-4.22-1.49-6.59-.81,0,0,14.75,22.57,6.83,28.55,0,0-2.57,3.14-4.94-13.89,0,0,.08-16.32-7.75-14.87,0,0-9.42,4.31-14.45,3.36,0,0-2.67-1.64-.86,5.74,0,0,1.32,10.92-2.94,20.55,0,0-3.85,10.61,13,10,0,0,23.06-.13,22.22,9,0,0,.36,6.19-20.21-4.09,0,0-10.33-5.84-16.84-5.27,0,0,7.92,5.83,8.16,15.86,0,0,27.48-1.1,29,7.36,0,0,1.27,5.62-18.11-.54a44.77,44.77,0,0,1-6-2.5,8.44,8.44,0,0,0-4-1c-3.09.09,7.75,9,5.06,16,0,0,22.46-4.56,22.06.36,0,0,.35,6-14.66,4.38a8.21,8.21,0,0,0-3,.25c-1.9.53-4,1.85-1,5a13.13,13.13,0,0,0,12.45,3.69c4.52-1,10.15-3.81,14.41-11.39a1.36,1.36,0,0,1,1-.72c1.25-.18,3.1,1.71-2,19.62C126.21,521,139.28,518.61,132.5,500.93Z"/><path class="cls-3" d="M141.4,531s-20,4.38-12.56-22.4c0,0,2.53,16,8.38,11.69,0,0-8.22-12.85-6.16-17.48,0,0,3.85-10.58,6.16-5.95,0,0-.39,16.05,4.55,17.19,0,0-4.72-16.25-.41-21,.29-.31.58-.62.84-1,1.11-1.38,4.51-5,9.61-4.45,0,0-10.94,31.22-2.7,16.3,0,0,4-7.39,4.15-11.44,0,0,.77-7.24,12.57-7,0,0,3.06-.45,4.51.27,0,0-13.76,12.63-9.57,17.39,0,0,1.15,2.31,5.73-8.26,0,0,2.83-10.43,7.77-8.56,0,0,5.49,3.88,9,3.87,0,0,2.06-.72-.44,3.77,0,0-2.81,6.8-1.69,13.45,0,0,.69,7.23-10.37,4.81,0,0-15.27-2.85-16.33,3.09,0,0-1.33,3.91,14.13-.19,0,0,7.88-2.48,12.1-1.34,0,0-6.28,2.77-8.21,9.14,0,0-18-4-20.55,1.22,0,0-1.83,3.43,12.12,1.82a32,32,0,0,0,4.44-.88,6.18,6.18,0,0,1,2.81-.13c2,.42-6.73,4.79-6.18,9.56,0,0-14.09-5.6-14.69-2.41,0,0-1.28,3.75,8.95,4.55a5.33,5.33,0,0,1,2,.52c1.17.57,2.32,1.66-.21,3.34a9.63,9.63,0,0,1-8.91.86c-2.83-1.16-6.06-3.64-7.54-9a.86.86,0,0,0-.52-.58c-.8-.26-11.7,40.42-11.44,52.46C132.69,584.3,133.78,541.5,141.4,531Z"/><path class="cls-5" d="M135.45,526.14s-20,4.38-12.55-22.4c0,0,2.52,16,8.37,11.69,0,0-8.22-12.85-6.15-17.49,0,0,3.85-10.57,6.15-5.94,0,0-.39,16.05,4.55,17.19,0,0-4.72-16.25-.4-21,.28-.31.57-.62.83-.95,1.11-1.38,4.51-5,9.61-4.46,0,0-10.94,31.23-2.69,16.31,0,0,4-7.39,4.15-11.44,0,0,.77-7.24,12.56-7,0,0,3.06-.45,4.52.27,0,0-13.77,12.63-9.58,17.39,0,0,1.15,2.31,5.73-8.27,0,0,2.83-10.42,7.77-8.55,0,0,5.49,3.87,9,3.87,0,0,2.05-.72-.45,3.77,0,0-2.81,6.8-1.68,13.45,0,0,.68,7.23-10.37,4.81,0,0-15.28-2.85-16.33,3.09,0,0-1.34,3.9,14.12-.19,0,0,7.88-2.49,12.1-1.34,0,0-6.28,2.77-8.21,9.14,0,0-18-4-20.54,1.22,0,0-1.83,3.43,12.11,1.82a32,32,0,0,0,4.44-.88,6.31,6.31,0,0,1,2.81-.14c2,.43-6.73,4.8-6.17,9.57,0,0-14.1-5.6-14.7-2.41,0,0-1.28,3.75,9,4.55a5.43,5.43,0,0,1,2,.52c1.16.57,2.31,1.66-.22,3.34a9.63,9.63,0,0,1-8.91.86c-2.82-1.16-6.06-3.64-7.54-9a.84.84,0,0,0-.52-.58c-.8-.26-2.36.72-2.11,12.76C136.07,539.71,127.83,536.61,135.45,526.14Z"/><path class="cls-3" d="M89.17,532.36s18.32-3,3.84-25.12c0,0,2.75,15.71-3.55,13.75,0,0,3.07-14.77-.1-18.32,0,0-6.49-8.41-7-3.33,0,0,5.22,14.69,1.36,17.49,0,0-.94-16.68-6.06-19.59-.34-.19-.68-.37-1-.58-1.36-.89-5.35-3-9.52-.73,0,0,18.8,25,7.25,14.11,0,0-5.62-5.42-7-9.11,0,0-2.86-6.41-12.8-2,0,0-2.74.67-3.75,1.84,0,0,15.54,6.82,13.42,12.7,0,0-.27,2.54-7.38-5.62,0,0-5.58-8.63-9.21-5.17,0,0-3.48,5.51-6.46,6.75,0,0-2,0,1.53,3.32a27.85,27.85,0,0,1,5.53,11.84s1.62,6.92,10.27.79c0,0,12.11-8,14.81-2.9,0,0,2.32,3.14-12.06,4.8,0,0-7.45.48-10.68,3a13.77,13.77,0,0,1,9.76,5.55s14.1-10,17.82-6.1c0,0,2.6,2.52-9.74,5.95a27.75,27.75,0,0,1-4,.75,5.41,5.41,0,0,0-2.44.86c-1.6,1.12,7.18,2.06,8.16,6.67,0,0,10.27-10.14,11.75-7.41,0,0,2.23,3-6.21,7.36a5.07,5.07,0,0,0-1.52,1.17c-.81.94-1.46,2.35,1.2,3a8.26,8.26,0,0,0,7.83-2.34c2-2.06,4-5.5,3.67-11a.89.89,0,0,1,.27-.72c.6-.52,22.24,33.22,25.69,44.44C112.79,578.51,98.83,539.35,89.17,532.36Z"/><path class="cls-5" d="M92.73,525.75s18.33-3,3.85-25.13c0,0,2.74,15.72-3.56,13.75,0,0,3.07-14.76-.09-18.32,0,0-6.49-8.41-7-3.33,0,0,5.22,14.7,1.37,17.5,0,0-1-16.69-6.07-19.59-.33-.19-.67-.37-1-.58-1.36-.89-5.34-3-9.51-.74,0,0,18.8,25,7.25,14.12,0,0-5.63-5.43-7-9.11,0,0-2.86-6.41-12.8-2,0,0-2.74.66-3.75,1.84,0,0,15.54,6.82,13.42,12.69,0,0-.27,2.54-7.38-5.61,0,0-5.58-8.64-9.21-5.17,0,0-3.47,5.51-6.46,6.74,0,0-2,.06,1.53,3.32A27.85,27.85,0,0,1,51.8,518s1.62,6.92,10.27.78c0,0,12.11-8,14.81-2.9,0,0,2.33,3.15-12.06,4.81,0,0-7.45.48-10.68,3a13.71,13.71,0,0,1,9.76,5.55s14.1-10,17.82-6.11c0,0,2.6,2.53-9.74,5.95a26.26,26.26,0,0,1-4,.76,5.26,5.26,0,0,0-2.43.86c-1.6,1.11,7.17,2.06,8.15,6.66,0,0,10.27-10.13,11.75-7.4,0,0,2.24,3-6.21,7.36a5.16,5.16,0,0,0-1.51,1.17c-.82.94-1.47,2.35,1.2,3a8.23,8.23,0,0,0,7.82-2.35c2.06-2.06,4-5.49,3.68-11a.87.87,0,0,1,.26-.71c.6-.53,2.22-.17,5.67,11C96.33,538.5,102.39,532.73,92.73,525.75Z"/></g><g id="Calque_4" data-name="Calque 4"><path class="cls-6" d="M747.3,188.81H513.37V615.64h16.94a9.33,9.33,0,1,0,14.24,0H717.32a9.52,9.52,0,0,0-2.19,6.11,9.32,9.32,0,1,0,18.64,0,9.52,9.52,0,0,0-2.19-6.11H747.3Zm-7.42,413.27H520.81V515.33H739.88Zm0-89.81H520.81V411.45H739.88Zm0-103.88H520.81V302.6H739.88Zm0-108.83H520.81V202.34H739.88Z"/><path class="cls-6" d="M651.68,544.81v13.83h5.09V606.4h58.08V558.64h5.08V544.81Zm43.24,28.86H675.85v-8.41h19.07Z"/><path class="cls-6" d="M553.06,542.88v13.83h6.49v47.77h73.94V556.71H640V542.88Zm55.06,28.87H583.83v-8.41h24.29Z"/></g><g id="bureau"><path class="cls-7" d="M602.82,457.14H572.69l29.43,172.49a10.26,10.26,0,0,1,.14,1.73,10.37,10.37,0,0,1-20.6,1.75l-30-176H230.57L202.05,638.78a10.4,10.4,0,0,1-10.25,8.76,9.58,9.58,0,0,1-1.6-.12,10.39,10.39,0,0,1-8.64-11.85l28-178.43h-37V429.91H602.82Z"/></g><g id="plante"><path class="cls-8" d="M586.19,346.1a1,1,0,0,1,1.24.38,1.1,1.1,0,0,1-.26,1.5,1,1,0,0,1-1.46-.25,1.11,1.11,0,0,1,.48-1.63"/><path class="cls-8" d="M588,350.67a1,1,0,0,1,1.24.38,1.11,1.11,0,0,1-.27,1.5,1,1,0,0,1-1.45-.26,1.1,1.1,0,0,1,.26-1.5.94.94,0,0,1,.22-.12"/><path class="cls-8" d="M579.11,345.3c3.15-16.2,4.7-14.68,4.7-14.68,2.05,2.36-4.7,14.68-4.7,14.68"/><path class="cls-8" d="M587.27,351.4s-5.3-.27-7.85,6"/><path class="cls-8" d="M585.31,372.53c-1.85-13-10.61-23.3-21.06-30.63"/><path class="cls-8" d="M579.71,357.49s-5.17-9.71,2.19-17a21.34,21.34,0,0,1,3.9,12,15.86,15.86,0,0,1-1.29,5.68c-.48,1.19-1,3.58-.69,8"/><path class="cls-8" d="M583,363.87s-4.17-11.57-1.09-23.42"/><path class="cls-8" d="M576.35,352.86a46.8,46.8,0,0,0-10.55-2.77s.63,3.05-4.32,1.84c0,0-1.49,0-.15-2.61,0,0-.59-2.51,1.14-2.67,0,0,4.57-.08,3.31,3.3"/><path class="cls-8" d="M549.87,332c6.29,3.27,14.71,9.91,17.42,12.1l.89.72"/><path class="cls-8" d="M558.29,337.3s-4.22-2.32-2.35-4.14C555.94,333.16,557.83,331.91,558.29,337.3Z"/><path class="cls-8" d="M558.79,337.74s-4.74,1.3-4.61-1.26C554.18,336.48,554.72,334.3,558.79,337.74Z"/><path class="cls-8" d="M573.83,349.8s-6.78-5.72-3.74-6.43C570.09,343.37,572.08,342.86,573.83,349.8Z"/><path class="cls-8" d="M563.79,341.49s-3.95-2.69-5.16-.87C558.63,340.62,558,342.49,563.79,341.49Z"/><path class="cls-8" d="M568.78,345.64s-2.95-2.45-3.17-1.21C565.61,344.43,565.48,345.27,568.78,345.64Z"/><path class="cls-8" d="M564.55,342.12s-3-2.13-2.19-3.53C562.36,338.59,563.81,336.76,564.55,342.12Z"/><path class="cls-8" d="M592.16,341.72a95.94,95.94,0,0,0-8.7,31"/><path class="cls-8" d="M592.15,341.74c7.11-14.9,8.23-13,8.23-13,1.39,2.8-8.23,13-8.23,13"/><path class="cls-8" d="M592.23,341.7c12.47-3.84,10.24-5.07,10.24-5.07-2.76-.82-9.61,4.54-10.25,5Z"/><path class="cls-8" d="M592.15,341.72C598,329.38,595,330.17,595,330.17c-3,1.5-2.9,10.68-2.88,11.54Z"/><path class="cls-8" d="M585.27,361.46s3.42-10.83,12.66-15.72"/><path class="cls-8" d="M598.8,344.28a1,1,0,0,1,1.11.68,1.11,1.11,0,0,1-.64,1.39,1,1,0,0,1-1.34-.61,1.1,1.1,0,0,1,.63-1.39l.24-.07"/><path class="cls-8" d="M599.41,349.16a1,1,0,0,1,1.11.68,1.12,1.12,0,0,1-.64,1.39,1,1,0,0,1-1.34-.61,1.1,1.1,0,0,1,.63-1.39.73.73,0,0,1,.24-.07"/><path class="cls-8" d="M593.32,344.61a1,1,0,0,1,1.11.67,1.11,1.11,0,0,1-.64,1.39,1,1,0,0,1-1.34-.61,1.11,1.11,0,0,1,.63-1.39,1.05,1.05,0,0,1,.24-.06"/><path class="cls-8" d="M592.9,346.57s.52,1-2.56,5.67"/><path class="cls-8" d="M598.51,349.68s-5.06-1.59-9.09,3.79"/><path class="cls-8" d="M585.62,373c1.08-13.15-5.22-25.19-13.88-34.68"/><path class="cls-8" d="M583.44,356.89s-2.93-10.6,5.84-16.15a21.36,21.36,0,0,1,1.19,12.6,15.94,15.94,0,0,1-2.49,5.25c-.73,1.06-1.78,3.28-2.41,7.67"/><path class="cls-8" d="M585.25,363.83s-1.55-12.2,4-23.09"/><path class="cls-8" d="M581.16,351.64a46.43,46.43,0,0,0-9.69-5s-.05,3.11-4.62.85c0,0-1.44-.36.42-2.58,0,0,0-2.58,1.7-2.36,0,0,4.47.91,2.51,3.94"/><path class="cls-8" d="M559.85,325.55c5.43,4.56,12.2,12.87,14.37,15.6.46.57.71.9.71.9"/><path class="cls-8" d="M566.92,332.53s-3.62-3.19-1.4-4.55C565.52,328,567.64,327.17,566.92,332.53Z"/><path class="cls-8" d="M567.31,333.07s-4.91.24-4.22-2.24C563.09,330.83,564.09,328.82,567.31,333.07Z"/><path class="cls-8" d="M579.37,348.1s-5.38-7.05-2.25-7.08C577.12,341,579.18,341,579.37,348.1Z"/><path class="cls-8" d="M571.38,337.81s-3.27-3.48-4.85-2C566.53,335.84,565.53,337.54,571.38,337.81Z"/><path class="cls-8" d="M575.35,343s-2.36-3-2.83-1.87C572.52,341.08,572.2,341.87,575.35,343Z"/><path class="cls-8" d="M572,338.59s-2.47-2.73-1.36-3.92C570.62,334.67,572.43,333.21,572,338.59Z"/></g><g id="Calque_2-2" data-name="Calque 2"><line class="cls-6" x1="272.67" y1="500.89" x2="374.65" y2="577.49"/><line class="cls-6" x1="355.2" y1="500.89" x2="253.1" y2="577.9"/><rect class="cls-9" x="288.38" y="262.67" width="209.64" height="142.15" rx="7.4"/><polygon class="cls-10" points="413.18 407.19 420.85 429.9 380.7 429.9 388 407.19 413.18 407.19"/><path class="cls-6" d="M251.47,357.48s10.48-52,54.87-49.65a105,105,0,0,0,11.08-.18c14.07-.77,48.79,2.34,58.07,49.83,11.73,60,21.2,90.2,36.53,109.14,0,0,22.54,37.67-46.91,42.28l-1.83.11s-172.24,20.75-147-42.39C216.29,466.62,243.35,413.85,251.47,357.48Z"/><rect class="cls-6" x="249.72" y="493.11" width="6.76" height="169.57" rx="1.91" transform="translate(154.24 -45.2) rotate(14.64)"/><rect class="cls-6" x="371.27" y="492.7" width="6.76" height="169.57" rx="1.91" transform="matrix(0.97, -0.25, 0.25, 0.97, -132.74, 112.29)"/><rect class="cls-6" x="630.34" y="346.8" width="96.81" height="13.83"/><path class="cls-6" d="M637.56,360.64v47.75h82.38V360.64Zm54.12,15H664.62v-8.42h27.06Z"/><rect class="cls-11" x="707.99" y="224.74" width="10.82" height="76.35"/><rect class="cls-11" x="721.81" y="225.36" width="11.93" height="76.35"/><rect class="cls-11" x="691.68" y="224.5" width="14.08" height="76.35"/><rect class="cls-11" x="673.18" y="224.72" width="10.82" height="77.63" transform="translate(83.33 -155.51) rotate(13.92)"/><rect class="cls-11" x="659.21" y="229.44" width="10.82" height="74.02" transform="translate(121.84 -200.57) rotate(18.86)"/><path class="cls-11" d="M655.31,244.82,629,300.68l1.87.88a4.28,4.28,0,0,1,2.22-.59,4.37,4.37,0,0,1,2.16.55,4.25,4.25,0,0,1,2.13-.55,4.08,4.08,0,0,1,2.92,1.12l24.78-52.66Z"/><path class="cls-11" d="M595.82,373.38a2.19,2.19,0,0,0-2.66-.33c-1.38,1.05-4.87-6.4-9-6.4s-7.59,7.45-9,6.4a2.18,2.18,0,0,0-2.65.33,21.25,21.25,0,0,0-7,16c0,11.33,8.35,20.52,18.64,20.52s18.64-9.19,18.64-20.52A21.28,21.28,0,0,0,595.82,373.38Z"/><path class="cls-8" d="M579.18,345.25c11.11-6.85,8.64-7.48,8.64-7.48-2.88-.1-8.16,6.8-8.66,7.45Z"/><path class="cls-8" d="M579.11,345.29c2.57-13.42-.14-11.9-.14-11.9-2.54,2.21-.12,11.06.11,11.89Z"/><rect class="cls-12" x="616.21" y="108.53" width="50.96" height="80.28"/><rect class="cls-6" x="625.23" y="118.45" width="32.92" height="64.94"/><path class="cls-6" d="M667.51,148.67l-.6.26a4.91,4.91,0,0,1-.24,1.79,5.1,5.1,0,0,1,0,2.33,5,5,0,0,1,.13,1.81L684,194.28l2.89-1.27Z"/><path class="cls-13" d="M652.06,136.38A10.37,10.37,0,1,1,641.69,126,10.38,10.38,0,0,1,652.06,136.38Z"/><path class="cls-14" d="M656.14,162a10.37,10.37,0,1,1-10.37-10.37A10.35,10.35,0,0,1,656.14,162Z"/><rect class="cls-15" x="430.85" y="58.38" width="123.32" height="98"/><circle class="cls-8" cx="495.88" cy="92.09" r="15.15"/><circle class="cls-10" cx="494.28" cy="132.42" r="13.96"/><path class="cls-8" d="M492.12,145.51s30.27-52-16.94-67.46"/><path class="cls-16" d="M490.68,86.39s-6.23-6.23-2.3-13.58a17.17,17.17,0,0,1,5.81,8.32,13,13,0,0,1,.34,4.65c-.09,1,.05,3,1.35,6.31"/><path class="cls-16" d="M494.69,90.52s-5.9-7.9-6.31-17.71"/><path class="cls-8" d="M487,83.63a37.41,37.41,0,0,0-8.74.35s1.2,2.19-2.88,2.42c0,0-1.15.32-.73-2,0,0-1-1.79.25-2.32,0,0,3.49-1.13,3.31,1.76"/><path class="cls-8" d="M461.83,73.86c5.6,1,13.61,4.15,16.2,5.19l.85.35"/><path class="cls-8" d="M469.52,75.92s-3.78-.79-2.77-2.62C466.75,73.3,467.91,71.9,469.52,75.92Z"/><path class="cls-8" d="M470,76.14s-3.33,2.12-3.83.12C466.18,76.26,466.09,74.46,470,76.14Z"/><path class="cls-8" d="M484.37,81.87s-6.54-2.8-4.37-4.05C480,77.82,481.41,77,484.37,81.87Z"/><path class="cls-8" d="M474.73,77.85s-3.66-1.14-4.17.54C470.56,78.39,470.54,80,474.73,77.85Z"/><path class="cls-8" d="M479.53,79.86s-2.84-1.18-2.72-.18C476.81,79.68,476.91,80.35,479.53,79.86Z"/><path class="cls-8" d="M475.46,78.15S472.65,77.23,473,76C473,76,473.64,74.22,475.46,78.15Z"/><path class="cls-17" d="M155.33,549.57v12.12a3.92,3.92,0,0,1-2.32,3.59,28.52,28.52,0,0,1-6.4,2v44.61a6.24,6.24,0,0,1-6.49,5.94H77.92a5.82,5.82,0,0,1-6.06-5.53V567A24.52,24.52,0,0,1,65,564.09a4.06,4.06,0,0,1-1.83-3.43V550.33a2.4,2.4,0,0,1,2.61-2.39c11.06,1,55.1,4.61,87.72,0A1.63,1.63,0,0,1,155.33,549.57Z"/><path class="cls-18" d="M647.18,141.86s-2.28-8.92-11.66-.56c0,0,7-2.2,6.45,1,0,0-6.89-.73-8.36,1,0,0-3.52,3.67-1.17,3.67,0,0,6.45-3.38,7.92-1.62,0,0-7.57,1.36-8.64,4-.07.18-.14.36-.22.53a5,5,0,0,0,.13,4.76s10.49-10.66,6.09-4.35c0,0-2.2,3.08-3.81,4,0,0-2.79,1.76-.3,6.45a4.59,4.59,0,0,0,1,1.76s2.35-8.07,5.13-7.33c0,0,1.17,0-2.2,4,0,0-3.66,3.22-1.9,4.83,0,0,2.68,1.43,3.39,2.84,0,0,.13,1,1.44-.93a12.73,12.73,0,0,1,5.14-3.37s3.08-1.18-.15-5.13c0,0-4.25-5.58-2-7.19,0,0,1.32-1.32,2.78,5.72,0,0,.59,3.67,1.91,5.13a7.17,7.17,0,0,1,2-5.13s-5.28-6.45-3.66-8.5c0,0,1-1.43,3.19,4.5a15,15,0,0,1,.55,2,2.79,2.79,0,0,0,.51,1.16c.59.73.59-3.67,2.64-4.4,0,0-5.13-4.54-4-5.42,0,0,1.27-1.27,3.66,2.68a2.68,2.68,0,0,0,.61.69c.47.35,1.15.6,1.32-.76a4.26,4.26,0,0,0-1.46-3.75,5.82,5.82,0,0,0-5.18-1.23.39.39,0,0,1-.34-.1c-.27-.27-.19-1.09,4.76-3.4C652.82,139.39,649.89,136.7,647.18,141.86Z"/><path class="cls-3" d="M644,140.44s-2.27-8.91-11.65-.56c0,0,7-2.19,6.45,1,0,0-6.89-.73-8.36,1,0,0-3.52,3.66-1.17,3.66,0,0,6.45-3.37,7.91-1.61,0,0-7.56,1.36-8.64,4-.07.18-.13.36-.21.53a5,5,0,0,0,.13,4.75s10.48-10.65,6.08-4.34c0,0-2.19,3.08-3.81,4,0,0-2.78,1.76-.29,6.46a4.59,4.59,0,0,0,1,1.76s2.34-8.07,5.13-7.34c0,0,1.17,0-2.2,4,0,0-3.67,3.23-1.91,4.84,0,0,2.69,1.43,3.4,2.84,0,0,.12,1,1.44-.93a12.75,12.75,0,0,1,5.13-3.37s3.08-1.18-.14-5.14c0,0-4.26-5.57-2.06-7.18,0,0,1.32-1.32,2.79,5.72,0,0,.59,3.66,1.91,5.13a7.17,7.17,0,0,1,2-5.13s-5.28-6.45-3.67-8.51c0,0,1-1.42,3.2,4.51a15,15,0,0,1,.54,2,2.79,2.79,0,0,0,.51,1.16c.59.73.59-3.67,2.64-4.4,0,0-5.13-4.55-4-5.43,0,0,1.27-1.26,3.67,2.69a2.51,2.51,0,0,0,.61.69c.47.35,1.14.6,1.31-.76a4.28,4.28,0,0,0-1.45-3.75,5.86,5.86,0,0,0-5.19-1.24.36.36,0,0,1-.34-.09c-.26-.27-.18-1.09,4.77-3.4C649.63,138,646.69,135.29,644,140.44Z"/></g></g></svg>