<svg xmlns="http://www.w3.org/2000/svg" viewBox="0 0 829.41 229.22"><defs><style>.cls-1{fill:none;stroke:#000;stroke-miterlimit:10;stroke-width:5.3px;}</style></defs><g id="Calque_2" data-name="Calque 2"><g id="Calque_1-2" data-name="Calque 1"><g id="Calque_2-2" data-name="Calque 2"><g id="Calque_3" data-name="Calque 3"><path class="cls-1" d="M1.24,151.33S147.07,73.86,261,165c0,0,109.37,84.31,159.5-95.69h0l-9.11,98v4.56l-9.12,57"/><path d="M411.38,165c31.89-34.17,41-38.73,38.73-34.17,0,6.83-43.29,43.29-43.29,43.29Z"/><path class="cls-1" d="M409.1,174.12s4.55,59.24,102.53-38.74c0,0,66.08-79.74,59.24-120.76C568.59,5.51,564,1,557.2,3.23,545.81,5.51,525.3,28.29,523,139.94c0,11.39,2.28,22.79,4.56,34.18,4.56,11.39,13.67,25.06,29.62,15.95,13.67-9.12,22.79-31.9,20.51-50.13-2.28-9.11-6.84-22.78-16-25.06,0,0-9.12,0-4.56,11.39,2.28,4.56,4.56,9.11,9.11,11.39,11.4,4.56,38.74,13.67,82-27.34,0,0,70.63-68.35,180-20.51"/></g></g></g></g></svg>