<?xml version="1.0" encoding="utf-8"?>
<!-- Generator: Adobe Illustrator 25.2.1, SVG Export Plug-In . SVG Version: 6.00 Build 0)  -->
<svg version="1.1" id="Calque_1" xmlns="http://www.w3.org/2000/svg" xmlns:xlink="http://www.w3.org/1999/xlink" x="0px" y="0px"
	 viewBox="0 0 134.8 37.3" style="enable-background:new 0 0 134.8 37.3;" xml:space="preserve">
<style type="text/css">
	.st0{fill:none;stroke:#000000;stroke-width:0.2326;stroke-miterlimit:10;}
</style>
<g id="Calque_2_1_">
	<g id="Calque_3">
		<path class="st0" d="M-7.1,12.6c0,0,6.4-3.4,11.4,0.6c0,0,4.8,3.7,7-4.2l0,0l-0.4,4.3l0,0.2L10.5,16"/>
		<path d="M10.9,13.2c1.4-1.5,1.8-1.7,1.7-1.5c0,0.3-1.9,1.9-1.9,1.9L10.9,13.2z"/>
		<path class="st0" d="M10.8,13.6c0,0,0.2,2.6,4.5-1.7c0,0,2.9-3.5,2.6-5.3c-0.1-0.4-0.3-0.6-0.6-0.5c-0.5,0.1-1.4,1.1-1.5,6
			c0,0.5,0.1,1,0.2,1.5c0.2,0.5,0.6,1.1,1.3,0.7c0.6-0.4,1-1.4,0.9-2.2c-0.1-0.4-0.3-1-0.7-1.1c0,0-0.4,0-0.2,0.5
			c0.1,0.2,0.2,0.4,0.4,0.5c0.5,0.2,1.7,0.6,3.6-1.2c0,0,3.1-3,7.9-0.9"/>
	</g>
</g>
</svg>
