<svg xmlns="http://www.w3.org/2000/svg" viewBox="0 0 134.79 37.33"><defs><style>.cls-1{fill:none;stroke:#000;stroke-miterlimit:10;stroke-width:0.86px;}</style></defs><g id="Calque_2" data-name="Calque 2"><g id="Calque_3" data-name="Calque 3"><path class="cls-1" d="M.2,24.72s23.52-12.54,42,2.28C42.23,27,60,40.68,68,11.65c0,0,0,0,0,0L66.55,27.47l-.07.76-.87,9.06"/><path d="M67,26.85c5-5.55,6.51-6.4,6.42-5.41s-7,7.17-7,7.17Z"/><path class="cls-1" d="M66.48,28.23S67.09,37.74,83,22c0,0,10.59-13.09,9.72-19.58C92.5,1.08,91.54.19,90.53.49c-1.91.55-5,4.21-5.57,22A13.56,13.56,0,0,0,85.85,28c.84,2,2.32,3.95,4.76,2.41,2.21-1.4,3.81-5.12,3.32-8.25-.24-1.55-1-3.84-2.5-4,0,0-1.62-.15-.86,1.83a3.06,3.06,0,0,0,1.65,1.79c1.9.8,6.24,2.33,13.3-4.28,0,0,11.38-11,29.1-3.25"/></g></g></svg>